STARTFONT 2.1
FONT -ADECW-Sung-Medium-R-Normal--32-320-75-75-M-320-DEC.DTSCS.1990-2
SIZE 32 75 75
FONTBOUNDINGBOX 32 32 0 -8

STARTPROPERTIES 26
FOUNDRY "ADECW"
FAMILY_NAME "Sung"
WEIGHT_NAME "Medium"
SLANT "R"
SETWIDTH_NAME "Normal"
ADD_STYLE_NAME ""
PIXEL_SIZE 32
POINT_SIZE 320
RESOLUTION_X 75
RESOLUTION_Y 75
SPACING "M"
AVERAGE_WIDTH 320
CHARSET_REGISTRY "DEC.DTSCS.1990"
CHARSET_ENCODING "2"
DEVICE_FONT_NAME "Sung-DEC.DTSCS.1990-2"
CHARSET_COLLECTIONS "DEC.DTSCS.1990 2"
FULL_NAME "Sung DEC.DTSCS.1990 2"
CAP_HEIGHT 23
X_HEIGHT 17
COPYRIGHT ""
NOTICE ""
WEIGHT 10
QUAD_WIDTH 32
DEFAULT_CHAR 65278
FONT_DESCENT 8
FONT_ASCENT 24
ENDPROPERTIES

CHARS 6320

STARTCHAR A1A1
ENCODING 41377
SWIDTH 960 0
DWIDTH 32 0
BBX 32 32 0 -8
BITMAP
00000000
00020000
00038000
00030000
00030000
00030000
00030000
00030000
00030000
00030000
00030000
00030000
00030000
00030000
00030000
00030000
00030000
00030000
00030000
00030000
00030000
00030000
00030000
00030000
00030000
00030000
00030000
00030000
00030000
00030000
00030000
00000000
ENDCHAR

STARTCHAR A1A2
ENCODING 41378
SWIDTH 960 0
DWIDTH 32 0
BBX 32 32 0 -8
BITMAP
00000000
00000000
00040000
00020000
00010000
00018000
0000C000
0000E000
00006000
00006000
00000000
00000000
00000000
00000000
00000000
00000000
00000000
00000000
00000000
00000000
00000000
00000000
00000000
00000000
00000000
00000000
00000000
00000000
00000000
00000000
00000000
00000000
ENDCHAR

STARTCHAR A1A3
ENCODING 41379
SWIDTH 960 0
DWIDTH 32 0
BBX 32 32 0 -8
BITMAP
00000000
00003800
00003000
00003000
00003000
00003000
00003000
00003000
00003000
00003000
00003000
00003000
00003000
00003000
00006000
00006000
00006000
00006000
0000C000
0000C000
00008000
00018000
00010000
00010000
00020000
00020000
00040000
00080000
00080000
00100000
00200000
00000000
ENDCHAR

STARTCHAR A1A4
ENCODING 41380
SWIDTH 960 0
DWIDTH 32 0
BBX 32 32 0 -8
BITMAP
00000000
00000000
00007000
00006000
00006000
00006000
00006000
00006000
00006000
00006000
00006000
00006000
00006000
00006000
00006000
00006000
00006000
00006000
00006000
00006000
00006000
00006000
00006000
00006000
00006000
00006000
00006000
00006000
000FE000
0001C000
00000000
00000000
ENDCHAR

STARTCHAR A1A5
ENCODING 41381
SWIDTH 960 0
DWIDTH 32 0
BBX 32 32 0 -8
BITMAP
00000000
00000000
00000008
4000000C
3FFFFFFE
00018000
00018000
00018000
00018000
00018000
00018000
00018000
00018000
00018000
00018000
00018000
00018000
00018000
00018000
00018000
00018000
00018000
00018000
00018000
00018000
00018000
00018000
00018000
00018000
00018000
00000000
00000000
ENDCHAR

STARTCHAR A1A6
ENCODING 41382
SWIDTH 960 0
DWIDTH 32 0
BBX 32 32 0 -8
BITMAP
00000000
00000000
00010000
0001C000
00018000
00018000
00018000
00018000
00018000
00018000
00018000
00018000
00018000
00018000
00018000
00018000
00018000
00018000
00018000
00018000
00018000
00018000
00018000
00018000
00018000
00018000
00018000
00018008
0001801C
7FFFFFFE
00000000
00000000
ENDCHAR

STARTCHAR A1A7
ENCODING 41383
SWIDTH 960 0
DWIDTH 32 0
BBX 32 32 0 -8
BITMAP
00000000
20000000
30000030
3FFFFFF8
30000030
30000030
30000030
30000030
30000030
30000030
30000030
30000030
30000030
30000030
30000030
30000030
30000030
30000030
30000030
30000030
30000030
30000030
30000030
30000030
30000030
30000030
30000030
30000630
300001F0
30000060
00000000
00000000
ENDCHAR

STARTCHAR A1A8
ENCODING 41384
SWIDTH 960 0
DWIDTH 32 0
BBX 32 32 0 -8
BITMAP
00000000
00000000
00000000
00000000
08000010
0FFFFFF8
0800001C
18000030
38000060
30000040
00000000
00000000
00000000
00000000
00000000
00000000
00000000
00000000
00000000
00000000
00000000
00000000
00000000
00000000
00000000
00000000
00000000
00000000
00000000
00000000
00000000
00000000
ENDCHAR

STARTCHAR A1A9
ENCODING 41385
SWIDTH 960 0
DWIDTH 32 0
BBX 32 32 0 -8
BITMAP
00000000
00000000
00000008
4000001C
3FFFFFFE
06000000
06000000
06000000
06000000
06000000
06000000
06000000
06000000
06000000
06000000
06000000
06000000
06000000
06000000
06000000
06000000
06000000
06000000
06000000
06000000
06000000
06000000
06000000
07FFFFFC
03FFFFF8
00000000
00000000
ENDCHAR

STARTCHAR A1AA
ENCODING 41386
SWIDTH 960 0
DWIDTH 32 0
BBX 32 32 0 -8
BITMAP
00000000
00000000
00C00600
00FFFF00
00C00600
00C00600
00C00600
00C00600
00C00600
00C00600
00C00600
00C00600
00C00600
00C00600
00C00600
00C00600
00C00600
00C00600
00C00600
00C00600
00C00600
00C00600
00C00600
00C1E600
00C01E00
00C01C00
00C00000
00C00000
00C00000
00C00000
00000000
00000000
ENDCHAR

STARTCHAR A1AB
ENCODING 41387
SWIDTH 960 0
DWIDTH 32 0
BBX 32 32 0 -8
BITMAP
00000000
00000000
00018000
0003C000
00030000
00030000
00030000
00060000
00060000
00060000
00040000
000C0000
00080000
00180000
00100400
00100200
00200200
00200100
00400180
00400080
008000C0
00800040
01000060
02000060
020003B0
04007C30
081FC030
0FF80030
0F000010
08000010
00000000
00000000
ENDCHAR

STARTCHAR A1AC
ENCODING 41388
SWIDTH 960 0
DWIDTH 32 0
BBX 32 32 0 -8
BITMAP
00000000
00000000
0001C000
00030000
00038000
00064000
00064000
000C2000
00181000
00300800
0061C600
00C18300
018181C0
060180F8
1801803E
6001800C
00018000
00018000
00018000
00018000
00018000
00018000
00018000
00018000
00018000
00018000
00018000
00018000
00018000
00018000
00018000
00000000
ENDCHAR

STARTCHAR A1AD
ENCODING 41389
SWIDTH 960 0
DWIDTH 32 0
BBX 32 32 0 -8
BITMAP
00000000
00000000
00E00000
00C00000
01800008
0180001C
01FFFFFE
03001800
03001800
06001800
04001800
0C001800
08001800
10001800
20001800
40001800
00001800
00001800
00001800
00001800
00001800
00001800
00001800
00001800
00001800
00001800
00001800
00001800
0007F800
00007000
00000000
00000000
ENDCHAR

STARTCHAR A1AE
ENCODING 41390
SWIDTH 960 0
DWIDTH 32 0
BBX 32 32 0 -8
BITMAP
00000000
00000000
01000080
010400E0
008201C0
008181C0
0081C180
0080C380
0040C300
00400300
00400600
00200600
00200C00
00100C00
00181800
00081800
000C3000
00066000
0003C000
0003C000
0003C000
0007E000
000C7000
00183800
00300E00
00C00780
018003E0
060000F8
0800003E
7000000C
00000000
00000000
ENDCHAR

STARTCHAR A1AF
ENCODING 41391
SWIDTH 960 0
DWIDTH 32 0
BBX 32 32 0 -8
BITMAP
00000000
00020000
00038000
00030000
00020000
00020000
00040000
00840C00
00FFFE00
00C00C00
00C00C00
00C00C00
00C00C00
00C00C00
00800C00
00800C00
00800C00
01800C00
01800C00
01000C00
01000C00
01000C00
03000C00
02000C00
02000C08
04000C08
08000C08
08000C0C
10000FFC
200007F8
40000000
00000000
ENDCHAR

STARTCHAR A1B0
ENCODING 41392
SWIDTH 960 0
DWIDTH 32 0
BBX 32 32 0 -8
BITMAP
00000000
00000000
00000E00
00000C00
00700C00
00600C00
00600C00
00600C00
00600C00
00C00C00
00C00C00
00C00C00
00C01800
01801800
01801000
01803000
01FFE000
03006000
0000D000
0000CC00
00018600
00030300
00060180
000C00C0
00180060
00200030
00C00038
01800018
06000018
18000008
00000000
00000000
ENDCHAR

STARTCHAR A1B1
ENCODING 41393
SWIDTH 960 0
DWIDTH 32 0
BBX 32 32 0 -8
BITMAP
00000000
00000040
00000060
0FFFFFF0
00000000
00000000
00000000
00000000
00000008
4000001C
3FFFFFFE
00300000
00300000
00600000
00600000
00C00000
00C00040
01FFFFE0
010000E0
030000C0
000000C0
00000180
00000180
00000100
00000300
00000200
00000600
00000C00
0007FC00
00007800
00006000
00000000
ENDCHAR

STARTCHAR A1B2
ENCODING 41394
SWIDTH 960 0
DWIDTH 32 0
BBX 32 32 0 -8
BITMAP
00000000
00000000
00030000
0003C000
00030000
00068000
00064000
000C6000
000C3000
00181800
00300C00
00200600
00600300
00C001C0
018004E0
03000E78
06FFFF3E
0800000C
30000000
40000000
00000000
00000000
00000000
00000000
00000000
00000000
00000000
00000000
00000000
00000000
00000000
00000000
ENDCHAR

STARTCHAR A1B3
ENCODING 41395
SWIDTH 960 0
DWIDTH 32 0
BBX 32 32 0 -8
BITMAP
00000000
00000000
3000C000
3800E000
30008000
3000C000
3000C000
3000C000
3001C000
3001A000
3001A000
3001A000
30013000
30011000
30031800
30020800
30060C00
30040600
300C0600
30180300
30100180
302000E0
30400070
3180003C
32000018
34000000
30000000
30000000
3FFFFFF0
1FFFFFF8
00000000
00000000
ENDCHAR

STARTCHAR A1B4
ENCODING 41396
SWIDTH 960 0
DWIDTH 32 0
BBX 32 32 0 -8
BITMAP
00000000
00000000
30010000
38010000
30010000
30008000
30008000
30008000
30008000
30004000
30004000
3000E000
3000E000
3001A000
3001B000
30031800
30030800
30060C00
300C0600
30080300
30100180
302000C0
30400060
30800038
3300001C
34000000
30000000
30000000
3FFFFFFC
1FFFFFF8
00000000
00000000
ENDCHAR

STARTCHAR A1B5
ENCODING 41397
SWIDTH 960 0
DWIDTH 32 0
BBX 32 32 0 -8
BITMAP
00000000
00000000
00040000
00030000
00030000
00018000
01018000
01800400
01FFFE00
01800C00
01800C00
01800C00
01800C00
01800C00
01800C00
01800C00
01800C00
01800C00
01800C00
01000C00
01000C00
01000C04
03000C04
02000C04
02000C04
04000C04
04000C08
08000C0C
10000FFC
200007FC
40000000
00000000
ENDCHAR

STARTCHAR A1B6
ENCODING 41398
SWIDTH 960 0
DWIDTH 32 0
BBX 32 32 0 -8
BITMAP
00000000
00000000
000000C0
0FFFFFE0
200C00C0
100C00C0
080C00C0
080C00C0
040C00C0
020C00C0
011800C0
019800C0
00F800C0
007800C0
003000C0
003800C0
006E00C0
00470180
00C1C180
00C0F180
00803D80
01000F80
030003E0
020001FE
0600019C
0C000180
08008180
10007F00
20001E00
40000C00
00000000
00000000
ENDCHAR

STARTCHAR A1B7
ENCODING 41399
SWIDTH 960 0
DWIDTH 32 0
BBX 32 32 0 -8
BITMAP
00000000
01C01C00
01801800
01801800
01801800
01801800
01801800
01801800
01831800
3FFF9800
01831800
01831800
01831800
01831800
01831800
01831800
01831800
01831800
03031800
03031800
03031800
03031800
06031808
06031808
06031808
0C031808
08071808
180E180C
31FC1FFE
20380FFC
40000000
00000000
ENDCHAR

STARTCHAR A1B8
ENCODING 41400
SWIDTH 960 0
DWIDTH 32 0
BBX 32 32 0 -8
BITMAP
00000000
00200800
00380E00
00300C00
00300C00
00300C00
00300C00
00300C00
00300C00
00300C00
00300C00
00300C08
00300C0C
7FFFFFFE
00300C00
00300C00
00300C00
00300C00
00300C00
00300C00
00300C00
00300C00
00300C00
00300C00
00300C00
00300C00
00300C00
00300C00
00300C00
00300C00
00200800
00000000
ENDCHAR

STARTCHAR A1B9
ENCODING 41401
SWIDTH 960 0
DWIDTH 32 0
BBX 32 32 0 -8
BITMAP
00000000
00000000
00700000
00600000
00600000
00400000
00C00080
00FFFFE0
018001C0
01800180
01800300
02400300
06400200
04200600
08200400
10100C00
10181800
20081800
00043000
00066000
0003C000
00018000
0003C000
00066000
000C3800
00181E00
00600780
018003E0
060000FE
38000038
40000000
00000000
ENDCHAR

STARTCHAR A1BA
ENCODING 41402
SWIDTH 960 0
DWIDTH 32 0
BBX 32 32 0 -8
BITMAP
00000000
00000000
000E0000
000C0000
00180000
00180000
04180300
043FFF80
02300600
02600600
01400C00
01C00C00
00800C00
01C01800
03401800
02203000
04106000
08186000
100CC000
60078000
00038000
0003C000
0006E000
001C3800
00301E00
00600780
00C003E0
030000FC
0C00003E
30000008
40000000
00000000
ENDCHAR

STARTCHAR A1BB
ENCODING 41403
SWIDTH 960 0
DWIDTH 32 0
BBX 32 32 0 -8
BITMAP
00000000
000C0000
00030000
00018000
04018000
08008008
0FFFFFFC
0800001C
18000030
38000020
30000040
20000000
00000000
00000000
00000000
00000000
00000000
00000000
00000000
00000000
00000000
00000000
00000000
00000000
00000000
00000000
00000000
00000000
00000000
00000000
00000000
00000000
ENDCHAR

STARTCHAR A1BC
ENCODING 41404
SWIDTH 960 0
DWIDTH 32 0
BBX 32 32 0 -8
BITMAP
00000000
00000000
01806010
01C0701C
01804018
0100C030
0300C030
03008030
02018060
06010040
040300C0
0C020080
08040100
10040300
20080200
20100400
10080200
08040100
08020080
040300C0
02018060
03008020
0100C030
01806030
01C06018
00C07018
00C0300C
00E0300C
0060300C
00601004
00000000
00000000
ENDCHAR

STARTCHAR A1BD
ENCODING 41405
SWIDTH 960 0
DWIDTH 32 0
BBX 32 32 0 -8
BITMAP
00000000
00000000
00060000
000F0000
001C0000
00380000
00300000
00600400
00800600
01000F80
06000C00
0E001800
03803000
01E07000
00706000
001CC000
000F8000
00030400
00060200
000C0100
00100180
00600080
00C000C0
01800060
020001E0
0C007E30
1FFFC030
0FF80030
0C000038
0C000010
00000000
00000000
ENDCHAR

STARTCHAR A1BE
ENCODING 41406
SWIDTH 960 0
DWIDTH 32 0
BBX 32 32 0 -8
BITMAP
00000000
00020000
00018000
0000C000
00006000
04003008
0400301C
07FFFFFE
06000000
06000000
06000000
06000000
06000000
06000000
06000000
06000000
06000000
06000000
06000000
06000000
06000000
04000000
04000000
0C000000
08000000
08000000
10000000
10000000
20000000
20000000
40000000
00000000
ENDCHAR

STARTCHAR A1BF
ENCODING 41407
SWIDTH 960 0
DWIDTH 32 0
BBX 32 32 0 -8
BITMAP
00000000
00000000
00000000
00C00000
3FE00000
00C00000
00800000
01800000
01800000
01000000
03000000
03000000
02180000
07FC0000
04180000
00100000
08300000
08300000
04200000
04600000
02600000
03C00000
01C00000
01800000
03600000
063C0000
0C07C002
1800FFFC
600007F8
00000000
00000000
00000000
ENDCHAR

STARTCHAR A1C0
ENCODING 41408
SWIDTH 960 0
DWIDTH 32 0
BBX 32 32 0 -8
BITMAP
00000000
00000000
00000000
00000000
00000000
00000000
00000000
00000000
000000C0
0FFFFFE0
000000C0
000000C0
000000C0
000000C0
000000C0
000000C0
03FFFFC0
000000C0
000000C0
000000C0
000000C0
000000C8
000000CC
7FFFFFFE
00000000
00000000
00000000
00000000
00000000
00000000
00000000
00000000
ENDCHAR

STARTCHAR A1C1
ENCODING 41409
SWIDTH 960 0
DWIDTH 32 0
BBX 32 32 0 -8
BITMAP
00000000
00000000
00200000
00380000
00300000
00200000
00600000
006000C0
007FFFE0
004000C0
00C000C0
00C00080
00C00180
00800180
01800180
01800100
01800300
01000300
03000300
03000200
03FFFE00
02000600
00000600
00000400
00000C00
00000C00
00000C00
00000808
0000181C
7FFFFFFE
00000000
00000000
ENDCHAR

STARTCHAR A1C2
ENCODING 41410
SWIDTH 960 0
DWIDTH 32 0
BBX 32 32 0 -8
BITMAP
00000000
00000000
00000200
00000780
00001E00
00003800
00007000
0001C000
000F0000
00780000
07800000
000000C0
000001E0
00000700
00000E00
00003800
0000F000
0003C000
001E0000
03E00000
0C000060
000000F0
000001C0
00000780
00000E00
00003C00
0000F000
00078000
003E0000
07C00000
08000000
00000000
ENDCHAR

STARTCHAR A1C3
ENCODING 41411
SWIDTH 960 0
DWIDTH 32 0
BBX 32 32 0 -8
BITMAP
00000000
00000000
00201000
003FFC00
00303000
00303000
00306000
00304000
0030C000
00308000
00310000
00320000
00320000
00318000
0030C000
00306000
00303000
00301800
00301800
00300800
00300C00
00300C00
00300C00
00300C00
00373800
0030F800
00306000
00300000
00300000
00300000
00200000
00000000
ENDCHAR

STARTCHAR A1C4
ENCODING 41412
SWIDTH 960 0
DWIDTH 32 0
BBX 32 32 0 -8
BITMAP
00000000
00004000
00007400
00006200
00006300
00006180
00004090
00004038
3FFFFFFC
01004000
0100C000
0100C000
0080C000
0080C000
00408000
00408000
00618000
00210000
00310000
00130000
001A0000
000C0000
000E0000
001B0000
0031C000
0060E000
00C03C00
03001F80
040003FE
18000078
60000000
00000000
ENDCHAR

STARTCHAR A1C5
ENCODING 41413
SWIDTH 960 0
DWIDTH 32 0
BBX 32 32 0 -8
BITMAP
00000000
00000000
00703800
00E03000
00C03000
01803000
01803000
03003000
06003000
04003000
081C3000
30183000
70183000
18303000
0C303000
06603000
03603000
01C03000
00C03000
01843000
03043000
02043000
04063008
08023008
101F3008
20F33008
3F833008
3803300C
20033FFE
00001FFC
00000000
00000000
ENDCHAR

STARTCHAR A1C6
ENCODING 41414
SWIDTH 960 0
DWIDTH 32 0
BBX 32 32 0 -8
BITMAP
00000000
00000000
01C07000
01806000
01806000
01806000
21806000
398E6000
318C6000
318C6000
318C6000
318C6000
318C6000
318C6000
318C6000
318C6000
318C6000
318C6000
318C6000
318C6000
318C6000
318C6000
318C6000
318C6000
3FFC6008
200C6008
200C6008
0000600C
00007FFC
00003FF8
00000000
00000000
ENDCHAR

STARTCHAR A1C7
ENCODING 41415
SWIDTH 960 0
DWIDTH 32 0
BBX 32 32 0 -8
BITMAP
00000000
00080000
00060000
00038000
0001C000
0000C000
00004008
0000001C
7FFFFFFE
00600300
00600300
00600300
00600300
00600300
00600300
00600300
00600300
00600300
00600300
00400300
00C00300
00C00300
00800300
01800300
01000300
03000300
02000300
04000300
08000300
08000300
10000000
00000000
ENDCHAR

STARTCHAR A1C8
ENCODING 41416
SWIDTH 960 0
DWIDTH 32 0
BBX 32 32 0 -8
BITMAP
00000000
00038000
00030000
00030000
00030000
00030000
20030010
3FFFFFF8
30030038
30060030
30070030
3004C030
300C2030
30181030
30101830
30300C30
30600630
30C00630
31800330
32000330
34000030
30000030
30000030
30000030
30000030
30000030
30000030
30000030
300007F0
300000E0
20000040
00000000
ENDCHAR

STARTCHAR A1C9
ENCODING 41417
SWIDTH 960 0
DWIDTH 32 0
BBX 32 32 0 -8
BITMAP
00000000
00000000
01C00000
01800060
019FFFF0
03040060
03020040
030200C0
060200C0
060200C0
07020180
0E010180
0E010180
16018300
36008300
2600C200
46004600
06006400
06002C00
06003800
06001800
06003C00
06006600
0600C700
060083C0
060101E0
06060078
060C003E
0610001C
06200008
00400000
00000000
ENDCHAR

STARTCHAR A1CA
ENCODING 41418
SWIDTH 960 0
DWIDTH 32 0
BBX 32 32 0 -8
BITMAP
00000000
00400000
00601C00
00701E00
00C01800
00C01800
00801800
01801800
01003000
03003000
03803000
05C02000
05806000
09806100
11804100
2180C080
61808040
01808040
01810020
01810020
01820030
01820018
01840018
018400E8
01880F0C
019BF80C
018FE00C
018C000C
0184000E
01800004
01000000
00000000
ENDCHAR

STARTCHAR A1CB
ENCODING 41419
SWIDTH 960 0
DWIDTH 32 0
BBX 32 32 0 -8
BITMAP
00000000
00000000
00E00E00
00C00C00
00C00C00
00C00C00
00C00C00
00C00C00
00C00C00
00C00C00
00C00C00
00C00C00
00800C00
00800C00
00800C00
00C00C00
01A01A00
01901A00
01881A00
010C1B00
03043100
03063180
02062080
060360C0
0403C060
08028030
18010038
1003001C
2002000E
400C0008
00000000
00000000
ENDCHAR

STARTCHAR A1CC
ENCODING 41420
SWIDTH 960 0
DWIDTH 32 0
BBX 32 32 0 -8
BITMAP
00000000
00018000
0001C000
00030000
00030000
00068000
00064000
000C2000
00183000
00181800
00300C00
00600600
01800380
030181E0
0401C0F8
1801803C
20030000
00030000
00038000
00064000
00066000
000C2000
000C1000
00180C00
00300600
00600300
01C001C0
030000F8
0400003E
18000008
60000000
00000000
ENDCHAR

STARTCHAR A1CD
ENCODING 41421
SWIDTH 960 0
DWIDTH 32 0
BBX 32 32 0 -8
BITMAP
00000000
02000080
03FFFFC0
030000E0
030000C0
030000C0
030000C0
030000C0
030000C0
030000C8
030000DC
7FFFFFFE
030000C0
030000C0
030000C0
030000C0
030000C0
030000C8
030000DC
7FFFFFFE
030000C0
030000C0
030000C0
030000C0
030000C0
030000C0
030000C0
030000C0
03001F80
03000380
02000000
00000000
ENDCHAR

STARTCHAR A1CE
ENCODING 41422
SWIDTH 960 0
DWIDTH 32 0
BBX 32 32 0 -8
BITMAP
00000000
00000000
08000060
0FFFFFF0
0C030060
0C030060
0C030060
0C030060
0C030060
0C030060
0C030060
0C030060
0C030060
0C030060
0C030060
0C030060
0FFFFFE0
0C000060
0C000060
0C000060
0C000060
0C000060
0C000060
0C000060
0C000060
0C000060
0C000060
0C000060
0C000FE0
0C0001C0
00000000
00000000
ENDCHAR

STARTCHAR A1CF
ENCODING 41423
SWIDTH 960 0
DWIDTH 32 0
BBX 32 32 0 -8
BITMAP
00000000
00000000
08000018
0FFFFFFC
08000038
18000030
38000020
30381C40
20301840
00301800
00301800
00301800
00301800
00301800
00301800
00301800
00301800
00601800
00601800
00601800
00401800
00C01800
00801800
01801808
03001808
02001808
04001808
0800180C
10001FFE
20000FFC
00000000
00000000
ENDCHAR

STARTCHAR A1D0
ENCODING 41424
SWIDTH 960 0
DWIDTH 32 0
BBX 32 32 0 -8
BITMAP
00000000
00000008
0000001C
001FFFFE
30000600
08000600
0C000600
06000600
06400600
00800600
00800600
00800600
01000600
01000600
02000600
02000600
04000600
04000600
0C000600
78000600
18000600
18000600
08000600
08000600
08000600
1C000600
1C000600
08000600
0001FE00
00001C00
00000800
00000000
ENDCHAR

STARTCHAR A1D1
ENCODING 41425
SWIDTH 960 0
DWIDTH 32 0
BBX 32 32 0 -8
BITMAP
00000000
00000000
06000180
07FFFFC0
06000180
06000180
06000180
06000180
06003180
063FF980
06083180
06082180
06086180
06086180
060C4180
0604C180
0604C180
06068180
060380C0
060300C0
060380C0
0C0780C0
0C04C0C2
0C087062
0C103C62
18201832
10C00032
1000001A
2000000E
40000006
00000000
00000000
ENDCHAR

STARTCHAR A1D2
ENCODING 41426
SWIDTH 960 0
DWIDTH 32 0
BBX 32 32 0 -8
BITMAP
00000000
00000000
00000600
03FFFF00
000C0600
000C0600
000C0600
000C0600
000C0600
000C0600
300C0600
080C0680
0C0C0640
060C0620
07180610
03180618
0390061C
0190060C
01B0060C
0030060C
00200600
00600C00
00400C00
00400C00
00800C00
00800C00
01000C00
01039C00
02007800
04006000
00000000
00000000
ENDCHAR

STARTCHAR A1D3
ENCODING 41427
SWIDTH 960 0
DWIDTH 32 0
BBX 32 32 0 -8
BITMAP
00000000
000E0000
000C0000
000C0000
000C0000
000C0000
000C0000
000C0C00
1FFFFE00
000C0C00
000C0C00
000C0C00
000C0C80
010C0CC0
020C0C60
020C0C30
06180C30
06180C18
0C180C18
1C100C08
18301800
00301800
00601800
00401800
00801800
00801800
01041800
0203F800
0400F000
04006000
08000000
00000000
ENDCHAR

STARTCHAR A1D4
ENCODING 41428
SWIDTH 960 0
DWIDTH 32 0
BBX 32 32 0 -8
BITMAP
00000000
00000000
00000E00
00000C00
00000C00
000C0C00
1FFE0C00
000C0C00
000C0C18
0019FFFC
08180C18
04180C18
04100C18
02300C18
01201818
01E01818
00E01818
00C01818
00C01818
00E03018
01303018
01302018
02186018
04184018
0C184018
08088030
10008030
20010670
000101E0
000200C0
00000000
00000000
ENDCHAR

STARTCHAR A1D5
ENCODING 41429
SWIDTH 960 0
DWIDTH 32 0
BBX 32 32 0 -8
BITMAP
00000000
00700000
00600000
00600000
00600000
00C00000
00C00018
01FFFFFC
01000018
03000018
02060018
04030018
04030018
08030018
10070018
20078018
200C8018
000CC018
00186018
00302018
00603018
00401818
00800C18
03000718
04000618
00000018
00000030
00001870
000007E0
000001C0
00000100
00000000
ENDCHAR

STARTCHAR A1D6
ENCODING 41430
SWIDTH 960 0
DWIDTH 32 0
BBX 32 32 0 -8
BITMAP
00000000
00380000
00300000
00300000
00300000
00600000
00600030
007FFFF8
00C00030
00800030
01880030
01060030
02018030
0401C030
0400E030
08006030
10000230
00000C30
00003030
0001C030
000F0030
00FC0030
01E00060
00800060
00800060
00000060
00000060
00001060
00000FC0
00000380
00000000
00000000
ENDCHAR

STARTCHAR A1D7
ENCODING 41431
SWIDTH 960 0
DWIDTH 32 0
BBX 32 32 0 -8
BITMAP
00000000
00000000
18000180
1FFFFFC0
18000000
18000000
18000700
18000600
18000600
18C00C00
18200C00
18101800
18083000
18063000
18036000
1801C000
1800C000
18016000
18037000
18063000
180C1800
18181C00
18200C00
18400600
1B800600
18000000
18000060
1FFFFFF0
18000000
18000000
00000000
00000000
ENDCHAR

STARTCHAR A1D8
ENCODING 41432
SWIDTH 960 0
DWIDTH 32 0
BBX 32 32 0 -8
BITMAP
00000000
01C01C00
01801800
01801800
01801800
01801800
01801800
01801800
018C1818
3FFEFFFC
01801818
01801818
01801818
01803018
01803018
01803018
01803018
01803018
01803018
01806018
01806018
01804018
01804018
0180C018
01808018
01810018
01830018
01820318
018400F0
01880060
00100000
00000000
ENDCHAR

STARTCHAR A1D9
ENCODING 41433
SWIDTH 960 0
DWIDTH 32 0
BBX 32 32 0 -8
BITMAP
00000000
000C0000
000E0000
00180000
00180000
00180C00
1FFFFE00
00180C00
00180C00
00300C00
00300C00
00300C08
00600C08
00400C08
00800C0C
0101CFFE
020187FC
0C018000
00018010
00018018
3FFFFFFC
00018000
00018000
00018000
00018000
00018000
00018000
00018000
00018000
00018000
00018000
00000000
ENDCHAR

STARTCHAR A1DA
ENCODING 41434
SWIDTH 960 0
DWIDTH 32 0
BBX 32 32 0 -8
BITMAP
00000000
00000000
001C0E00
00180C00
00180C00
00180C00
00180C00
00180C00
00180C00
00180C00
00180C00
00180C00
00180C00
00180C08
00180C1C
7FF80FFE
00180C00
00180C00
00180C00
00180C00
00180C00
00180C00
00180C00
00180C00
00180C00
00180C00
00180C00
00180C00
00180C00
00180C00
00180C00
00000000
ENDCHAR

STARTCHAR A1DB
ENCODING 41435
SWIDTH 960 0
DWIDTH 32 0
BBX 32 32 0 -8
BITMAP
00000000
00000010
06000018
07FFFFFC
06000000
0601C000
06018000
06018000
06018000
06018000
06018000
06018030
067FFFF8
06018030
06018030
06018030
06018030
06030030
06030030
06030030
06030030
06060030
0C060030
0C0C0030
08080030
18180030
10101070
20200FE0
204003C0
40800000
00000000
00000000
ENDCHAR

STARTCHAR A1DC
ENCODING 41436
SWIDTH 960 0
DWIDTH 32 0
BBX 32 32 0 -8
BITMAP
00000000
000E0000
000C0000
000C0000
000C0000
00180008
0018000C
3FFFFFFE
00180000
00300000
00300000
00200000
00606000
0060F000
0040C000
00C1C000
00818000
01830000
01030000
02060800
06040400
04080200
08180180
101000C0
202001E0
40401F60
0083F030
01FF0038
01F00018
01800008
01000000
00000000
ENDCHAR

STARTCHAR A1DD
ENCODING 41437
SWIDTH 960 0
DWIDTH 32 0
BBX 32 32 0 -8
BITMAP
00000000
00020000
00038000
00078000
00060000
000C0000
00180000
00301800
00600600
00C00300
018003C0
03003C60
040FC030
1FFC0038
1F820018
08038000
08070000
00060000
000C0000
001C0000
00181000
00300C00
00600200
00C00180
008000C0
010003E0
02007C70
1FFF8038
1FE00018
08000008
08000000
00000000
ENDCHAR

STARTCHAR A1DE
ENCODING 41438
SWIDTH 960 0
DWIDTH 32 0
BBX 32 32 0 -8
BITMAP
00000000
00000000
00000000
000C0018
1FFEFFFC
000C4018
000C6018
000C2030
00182030
08182030
04182060
02101060
02301060
013010C0
01B008C0
00E00880
00C00D80
00C00500
00E00700
00E00200
01F00700
03300D00
02381980
041830C0
08186060
1018C070
20010038
4002001E
00040000
00000000
00000000
00000000
ENDCHAR

STARTCHAR A1DF
ENCODING 41439
SWIDTH 960 0
DWIDTH 32 0
BBX 32 32 0 -8
BITMAP
00000000
00000000
00000100
01FFFF80
002003C0
00100600
00080C00
00041800
00027000
0001E000
0003E000
000E3C00
00F00FF0
1F0003E0
00000020
000000C0
0FFFFFE0
00800180
00400300
00200700
00100E00
00081C00
00063800
00036000
0001C000
00037000
000E3C00
00380F80
01C003F8
1E000060
00000000
00000000
ENDCHAR

STARTCHAR A1E0
ENCODING 41440
SWIDTH 960 0
DWIDTH 32 0
BBX 32 32 0 -8
BITMAP
00000000
00200000
00380000
38300000
30300020
3031FFF0
30300038
30300030
30310020
30310060
30310060
30310060
30308040
303080C0
303080C0
30304080
30304180
30306180
30302100
30303300
30301E00
3FF01C00
30300C00
00300E00
00301700
00302380
003041C0
003080E0
00310070
0032003C
00040010
00000000
ENDCHAR

STARTCHAR A1E1
ENCODING 41441
SWIDTH 960 0
DWIDTH 32 0
BBX 32 32 0 -8
BITMAP
00000000
00000000
00000000
00018000
0001C000
00018000
00018000
00018000
00018000
00018000
000180C0
000181E0
07FFFFE0
00018000
00018000
00018000
00018000
00018800
00018600
00018300
00018300
00018180
00018180
00018080
00018000
00018000
00018010
00018018
3FFFFFFC
00000000
00000000
00000000
ENDCHAR

STARTCHAR A1E2
ENCODING 41442
SWIDTH 960 0
DWIDTH 32 0
BBX 32 32 0 -8
BITMAP
00000000
00000000
00000000
0001C000
04018000
070180E0
060180C0
060180C0
060180C0
060180C0
060180C0
060180C0
060180C0
060180C0
060180C0
060180C0
060180C0
07FFFFC0
060180C0
060180C0
00018000
00018000
00018000
00018000
00018000
00018000
00018000
00018030
00018078
1FFFFFFC
00000000
00000000
ENDCHAR

STARTCHAR A1E3
ENCODING 41443
SWIDTH 960 0
DWIDTH 32 0
BBX 32 32 0 -8
BITMAP
00000000
00000100
00000F00
0000FF80
007FE000
07818000
00018000
00018000
00018000
00018000
0C018040
0FFFFFE0
0C018060
0C018060
0C018060
0C018060
0C018060
0C018060
0C018060
0C018060
0C018060
0C018060
0C018060
0C018660
0C0181E0
08018080
00018000
00018000
00018000
00018000
00010000
00000000
ENDCHAR

STARTCHAR A1E4
ENCODING 41444
SWIDTH 960 0
DWIDTH 32 0
BBX 32 32 0 -8
BITMAP
00000000
00003800
00003200
00003180
00003180
00003090
00003018
3FFFFFFC
00003000
00003000
00003000
00001800
00001800
00001800
00001800
00001800
00000800
00020C00
00030C00
3FFF8C00
00000600
00000600
00000300
00000304
00000184
000001C4
000000C4
00000064
0000003C
0000001E
00000004
00000000
ENDCHAR

STARTCHAR A1E5
ENCODING 41445
SWIDTH 960 0
DWIDTH 32 0
BBX 32 32 0 -8
BITMAP
00000000
00020000
00018000
0000C000
00006000
01002030
01FFFFF8
01800030
01800030
01800030
01800030
01800030
01800030
01800030
01FFFFF0
01800030
01800000
01800000
01000000
01000000
01000000
03000000
03000000
02000000
02000000
06000000
04000000
08000000
08000000
10000000
00000000
00000000
ENDCHAR

STARTCHAR A1E6
ENCODING 41446
SWIDTH 960 0
DWIDTH 32 0
BBX 32 32 0 -8
BITMAP
00000000
00000020
00000070
0FFFFFF8
00000000
00000000
00000000
02000000
03000020
03FFFFF0
03000060
03000060
03000060
03000060
03000060
03000060
03FFFFE0
03000060
03000000
03000000
03000000
03000000
03000000
02000000
02000000
06000000
04000000
04000000
08000000
08000000
10000000
00000000
ENDCHAR

STARTCHAR A1E7
ENCODING 41447
SWIDTH 960 0
DWIDTH 32 0
BBX 32 32 0 -8
BITMAP
00000000
00040000
00070000
00060020
00060070
0007FFF8
00060000
00060000
00060000
00060000
00060000
00060080
1FFFFFC0
010001E0
01000180
00800300
00400600
00600600
00200C00
00101800
00083000
000C3000
0006E000
0003C000
0003C000
000EE000
00183800
00601F00
038007F0
1C0001F8
00000010
00000000
ENDCHAR

STARTCHAR A1E8
ENCODING 41448
SWIDTH 960 0
DWIDTH 32 0
BBX 32 32 0 -8
BITMAP
00000000
00200000
00380000
00700000
00600000
00600000
00C00020
00C00070
01FFFFF8
01200300
03200300
02200300
04100600
08100600
08180600
10080C00
000C0C00
00041800
00061800
00033000
00036000
0001C000
0001C000
00036000
00063800
000C1C00
00380F00
006003C0
018001F8
06000070
08000000
00000000
ENDCHAR

STARTCHAR A1E9
ENCODING 41449
SWIDTH 960 0
DWIDTH 32 0
BBX 32 32 0 -8
BITMAP
00000000
00000080
000001C0
07FFFFE0
00018000
00018000
00018000
00018000
00018000
00018000
00018000
00018010
00018038
3FFFFFFC
00033000
00033000
00033000
00063000
00063000
000C3000
000C3000
00183000
00183000
00303008
00603008
00C03008
01803008
0300300C
04003FFE
08001FFC
00000000
00000000
ENDCHAR

STARTCHAR A1EA
ENCODING 41450
SWIDTH 960 0
DWIDTH 32 0
BBX 32 32 0 -8
BITMAP
00000000
00000100
00000380
1FFFFFC0
18018000
18018000
18018000
18018000
18018000
18018000
18018000
18018020
18018070
1FFFFFF8
18018000
00018000
00018000
00318000
000F8000
0001E000
0001F800
00019E00
00018700
00018380
00018180
00018000
00018000
00318000
000F8000
00030000
00000000
00000000
ENDCHAR

STARTCHAR A1EB
ENCODING 41451
SWIDTH 960 0
DWIDTH 32 0
BBX 32 32 0 -8
BITMAP
00000000
00000000
00800000
00E00000
01C00000
01800020
01800070
01FFFFF8
03018000
02018000
02018000
06018000
04018000
08018000
08018080
100181C0
03FFFFE0
00018000
00018000
00018000
00019800
00018400
00018300
00018380
00018180
00018080
00018010
00018038
3FFFFFFC
00000000
00000000
00000000
ENDCHAR

STARTCHAR A1EC
ENCODING 41452
SWIDTH 960 0
DWIDTH 32 0
BBX 32 32 0 -8
BITMAP
00000000
00000000
00000000
00018000
0001C000
07018070
06018060
06018060
06018060
06018060
06018060
06018060
07FFFFE0
06000060
00000000
00000000
00000080
040001C0
03FFFFE0
00000000
00000000
00000000
00000000
00000000
00000000
00000000
00000010
00000038
3FFFFFFC
00000000
00000000
00000000
ENDCHAR

STARTCHAR A1ED
ENCODING 41453
SWIDTH 960 0
DWIDTH 32 0
BBX 32 32 0 -8
BITMAP
00000000
00000020
00E80070
00C7FFF8
01800C00
01800C00
01800C00
01000C00
03000C00
03800C00
07000C00
07000C00
0B000C08
0B000C1C
131FFFFE
23000C00
43000C00
03000C00
03000C00
03000C00
03000C00
03000C00
03000C00
03000C00
03000C00
03000C00
03000C00
03000C00
03000C00
03000C00
00000800
00000000
ENDCHAR

STARTCHAR A1EE
ENCODING 41454
SWIDTH 960 0
DWIDTH 32 0
BBX 32 32 0 -8
BITMAP
00000000
00803000
00E03C00
00C03000
01803000
01803000
01003000
03003000
02003010
07003038
079FFFFC
0F003000
0B003000
13003000
13003800
23002800
43002400
03006400
03006600
03004200
0300C300
03008100
03018180
030100C0
030300C0
03060060
03040030
03080038
0310001C
0320000E
02000000
00000000
ENDCHAR

STARTCHAR A1EF
ENCODING 41455
SWIDTH 960 0
DWIDTH 32 0
BBX 32 32 0 -8
BITMAP
00000000
00E00000
00C60180
00C7FFC0
01860180
01860180
01060180
03060180
03060180
03860180
07068180
07066180
0B063180
0B061980
13061980
23060D80
43060D80
03060580
03060180
03060180
03060180
03060188
03060188
030C0188
030C0188
030C0188
03080188
0318018C
031001FE
032000FC
00400000
00000000
ENDCHAR

STARTCHAR A1F0
ENCODING 41456
SWIDTH 960 0
DWIDTH 32 0
BBX 32 32 0 -8
BITMAP
00000000
00010000
0001C000
00018000
00018000
000180C0
0001FFE0
00018000
00018000
00018000
00018000
00018008
0001801C
3FFFFFFE
00010000
0003C000
00030000
00068000
00068000
000C4000
00182000
00183000
00301800
00600C00
00C00600
01800300
03000180
060000E0
0C000078
1000003C
20000010
00000000
ENDCHAR

STARTCHAR A1F1
ENCODING 41457
SWIDTH 960 0
DWIDTH 32 0
BBX 32 32 0 -8
BITMAP
00000000
00800000
00E00008
00C00018
019FFFFC
0180C300
0180C300
0300C300
0300C300
0380C300
0700C300
0700C300
0B00C300
0B00C300
1300C300
2300C300
43008300
03008300
03008300
03018300
03018300
03010300
03010300
03030304
03020304
03060304
03040304
0308030C
031003FE
032001FC
02000000
00000000
ENDCHAR

STARTCHAR A1F2
ENCODING 41458
SWIDTH 960 0
DWIDTH 32 0
BBX 32 32 0 -8
BITMAP
00000000
00001000
00E01C00
00C01800
00801800
01801800
01801800
01001800
03001800
03801800
07001800
07039800
0B031880
1B031840
13021820
23061820
43041810
43041818
0308180C
0308180C
0310180E
03101806
03201806
03401806
03001800
03001800
03001800
0301F800
03003800
03002000
02000000
00000000
ENDCHAR

STARTCHAR A1F3
ENCODING 41459
SWIDTH 960 0
DWIDTH 32 0
BBX 32 32 0 -8
BITMAP
00000000
00403000
00F03800
00C03000
00C02000
00806000
01806008
01007FFC
0100C01C
03C08018
03018018
07010010
0B020030
0B030030
1304C020
23083060
23181860
030018C0
03000CC0
03000180
03000180
03000300
03000200
03000600
03000C00
03001800
03003000
03004000
03018000
03060000
00080000
00000000
ENDCHAR

STARTCHAR A1F4
ENCODING 41460
SWIDTH 960 0
DWIDTH 32 0
BBX 32 32 0 -8
BITMAP
00000000
00002000
00E03800
00C03000
00802000
01806000
01806000
01004008
0300C01C
033FFFFE
07818040
07018040
0B0100C0
0B0300C0
130300C0
23060080
23060180
430D0180
03008300
03006300
03003600
03001E00
03000C00
03001E00
03003300
03006180
0300C0C0
03018060
03020070
030C0030
02100000
00000000
ENDCHAR

STARTCHAR A1F5
ENCODING 41461
SWIDTH 960 0
DWIDTH 32 0
BBX 32 32 0 -8
BITMAP
00000000
00000000
00010000
0003C000
00038000
00064000
000C2000
001C3000
00381800
00600E00
00C00300
0380C1C0
0601E0F0
1803A03E
6007000C
000C1000
00301800
00E03C00
0700E000
1801C000
00070000
001C0200
00600700
07801F80
18003800
0000E000
00038000
001E0000
00F00000
1F000000
00000000
00000000
ENDCHAR

STARTCHAR A1F6
ENCODING 41462
SWIDTH 960 0
DWIDTH 32 0
BBX 32 32 0 -8
BITMAP
00000000
00000000
00060000
00030000
00018000
0003C000
00066000
000C3000
00181800
00300C00
00600600
00C00300
030001C0
06000370
08FFFFBE
3001800C
40018000
00018000
00018000
00018000
00018000
00018000
00018000
00018000
00018000
00018000
00018000
00018008
00018018
3FFFFFFC
00000000
00000000
ENDCHAR

STARTCHAR A1F7
ENCODING 41463
SWIDTH 960 0
DWIDTH 32 0
BBX 32 32 0 -8
BITMAP
00000000
00000000
18000060
1FFFFFF0
18000060
18000060
18000060
18600C60
187FFE60
18600C60
18600C60
18600C60
18600C60
18600C60
18600C60
187FFC60
18600C60
18600060
18600060
18600060
18600460
18600460
18600460
18600660
187FFF60
183FFC60
18000060
18000460
180003C0
18000180
00000000
00000000
ENDCHAR

STARTCHAR A1F8
ENCODING 41464
SWIDTH 960 0
DWIDTH 32 0
BBX 32 32 0 -8
BITMAP
00000000
00000000
18000060
1FFFFFF0
18000060
18000060
18000060
18000060
18301860
183FFC60
18301860
18301860
18301860
18301860
18301860
18301860
18301860
18301860
18301860
18301860
183FF860
18301860
18000060
18000060
18000060
18000060
18000060
18000460
180003C0
18000180
00000000
00000000
ENDCHAR

STARTCHAR A1F9
ENCODING 41465
SWIDTH 960 0
DWIDTH 32 0
BBX 32 32 0 -8
BITMAP
00000000
00000000
04044020
07FE7FF0
060E6060
060C6060
060C6060
060C6060
060C6060
060C6060
060C6060
060C6060
060C6068
060C606C
7FFFFFFE
060C6060
060C6060
060C6060
060C6060
060C6060
060C6060
060C6060
060C6060
060C6060
060C6060
060C6060
060C6060
066C6760
061C61E0
060860C0
00000000
00000000
ENDCHAR

STARTCHAR A1FA
ENCODING 41466
SWIDTH 960 0
DWIDTH 32 0
BBX 32 32 0 -8
BITMAP
00000000
00000000
08000000
08000018
0FFFFFFC
1840003C
38E00020
30C00040
00C00000
00800180
01FFFFC0
01800000
01800000
01000000
03000000
03000100
03FFFF80
06000380
00000300
00000300
00000318
0000033C
3FFFFFFE
00000200
00000600
00000600
00000600
0001CC00
00003C00
00003000
00000000
00000000
ENDCHAR

STARTCHAR A1FB
ENCODING 41467
SWIDTH 960 0
DWIDTH 32 0
BBX 32 32 0 -8
BITMAP
00000000
00000000
03000030
03FFFFF8
03000030
03000030
03000030
03000030
03FFFFF0
03000030
03000000
03000000
03060600
0307FF00
03060600
03060600
03060600
03060600
06060600
06060600
06060600
040C0600
040C0608
0C080608
08180608
08100608
10200608
1060060C
20C007FE
418003FC
00000000
00000000
ENDCHAR

STARTCHAR A1FC
ENCODING 41468
SWIDTH 960 0
DWIDTH 32 0
BBX 32 32 0 -8
BITMAP
00000000
00000000
01C00000
01800018
0187FFFC
01806018
01806018
01806018
01906018
01986018
3FFC6018
01806018
01806018
01806018
01806018
01806018
01806018
01806018
01806018
0180C018
018CC018
01F08018
03C18018
3E010018
38030018
20020018
00040018
00040738
000800F0
00100060
00200000
00000000
ENDCHAR

STARTCHAR A1FD
ENCODING 41469
SWIDTH 960 0
DWIDTH 32 0
BBX 32 32 0 -8
BITMAP
00000000
00000000
0007001C
001F8018
03F00018
1E600718
00600618
00600618
00600618
00600618
00600618
00600618
00608618
0060C618
3FFFE618
00600618
00600618
00600618
00C00618
00C00618
00C00618
00800618
01800018
01800018
01000018
03000018
02000018
04000418
080003F0
100000E0
00000000
00000000
ENDCHAR

STARTCHAR A1FE
ENCODING 41470
SWIDTH 960 0
DWIDTH 32 0
BBX 32 32 0 -8
BITMAP
00000000
00000000
00600000
00780018
0063FFFC
00C03018
00803018
01803018
03003018
021C3018
04183018
18183018
18303018
3E203018
07E03018
01C03018
00803018
01803018
01406018
02306018
04186018
0C3CC018
09CCC018
3E078018
38050018
10020018
00060438
000403F0
000800E0
00100000
00000000
00000000
ENDCHAR

STARTCHAR A2A1
ENCODING 41633
SWIDTH 960 0
DWIDTH 32 0
BBX 32 32 0 -8
BITMAP
00000000
00000000
18000030
1FFFFFF8
18000030
180E0030
180C0030
180C0030
180C0030
180C0630
19FFFF30
180C0630
180C0630
180C0630
180C0630
180C0630
180C0630
18180630
18180630
18100630
18300630
18200630
18204630
18403C30
18801830
19000030
1A000030
1FFFFFF0
18000030
18000030
00000000
00000000
ENDCHAR

STARTCHAR A2A2
ENCODING 41634
SWIDTH 960 0
DWIDTH 32 0
BBX 32 32 0 -8
BITMAP
00000000
00700000
00600000
00600000
00C00000
00C00000
00C00018
01FFFFFC
01080018
03060018
02030018
06018018
04018118
08000198
17FFFFD8
60C00018
00C00018
00C00018
00C00018
00C00018
00C00018
00C00018
00FFFE18
007FFF18
00000018
00000030
00000030
00001060
00000FE0
000001C0
00000100
00000000
ENDCHAR

STARTCHAR A2A3
ENCODING 41635
SWIDTH 960 0
DWIDTH 32 0
BBX 32 32 0 -8
BITMAP
00000000
00000000
00700000
00600000
00C00000
00C00018
00FFFFFC
01800018
01007018
03006018
02006018
0400C018
05C0C018
09818018
11818018
21836018
01823018
01841818
01880C18
01900E18
01A00618
01800030
01800230
01800330
01FFFFB0
01800030
00000030
00000060
00001FE0
000003C0
00000100
00000000
ENDCHAR

STARTCHAR A2A4
ENCODING 41636
SWIDTH 960 0
DWIDTH 32 0
BBX 32 32 0 -8
BITMAP
00000000
00E00000
00C00000
00C00000
00C00000
00C00000
01800018
01FFFFFC
01000018
03070018
02060018
040C0018
0C0C0C18
081FFE18
10180C18
20300C18
00201818
00601818
00D83018
018C7018
02066018
0006C018
0003C018
00018018
00030018
00060018
00080030
00300830
006007F0
018001E0
020000C0
00000000
ENDCHAR

STARTCHAR A2A5
ENCODING 41637
SWIDTH 960 0
DWIDTH 32 0
BBX 32 32 0 -8
BITMAP
00000000
00400000
00F00000
00C00000
00C00000
01800018
01FFFFFC
03000018
02080018
060E1818
04081C18
0A181818
11181018
11103018
20B03018
40702018
00706018
00486018
00C64018
0081C018
0100F018
03019E18
060307F8
040200FE
08040018
10080018
00300038
00600070
00801FE0
010003C0
00000100
00000000
ENDCHAR

STARTCHAR A2A6
ENCODING 41638
SWIDTH 960 0
DWIDTH 32 0
BBX 32 32 0 -8
BITMAP
00000000
00000080
180000C0
1FFFFFF0
18000000
18000000
18000100
18000180
187FFFC0
1800C000
1800C000
1800C000
1800C000
1800C000
1800C000
1800C000
1800C000
1800C000
1800C000
1800C000
1800C040
1800C060
19FFFFF0
18000000
18000000
18000020
18000030
1FFFFFF8
18000000
18000000
00000000
00000000
ENDCHAR

STARTCHAR A2A7
ENCODING 41639
SWIDTH 960 0
DWIDTH 32 0
BBX 32 32 0 -8
BITMAP
00000000
00003800
00003000
00003000
00003000
18183000
1FFC3000
18183000
18183000
18183000
18183400
18183200
18183100
18183080
181830C0
18183040
18183060
18183030
18183030
18183038
1FF83018
18183000
18183000
18003000
00003000
00003000
00003000
00003000
00003000
00003000
00003000
00000000
ENDCHAR

STARTCHAR A2A8
ENCODING 41640
SWIDTH 960 0
DWIDTH 32 0
BBX 32 32 0 -8
BITMAP
00000000
00000000
0000600C
00107FFE
0018600C
3FFC600C
0180600C
0180600C
0180600C
0180600C
0180600C
0180600C
0180600C
0180600C
0180600C
0180600C
0180600C
0184600C
0198600C
01E0600C
0780600C
7E00600C
3000600C
1000610C
000060F8
00006030
00006000
00006000
00006000
00006000
00000000
00000000
ENDCHAR

STARTCHAR A2A9
ENCODING 41641
SWIDTH 960 0
DWIDTH 32 0
BBX 32 32 0 -8
BITMAP
00000000
00000008
0C00000C
0FFFFFFE
0C000000
0C000000
0C000000
0C000018
0CFFFFFC
0C018000
0C018000
0C018000
0C018000
0C018000
0C018030
0C03FFF8
0C030030
0C030030
0C030030
0C020030
0C060030
0C060060
18040060
180C0060
10080060
10180060
103000C0
206021C0
20C01F80
41000700
00000000
00000000
ENDCHAR

STARTCHAR A2AA
ENCODING 41642
SWIDTH 960 0
DWIDTH 32 0
BBX 32 32 0 -8
BITMAP
00000000
00038000
00030000
00030020
00030030
3FFFFFF8
000C2000
000C2000
00181000
00300800
00600400
00C00200
01800380
030001C0
0C000070
1003803E
60030018
00060000
00060000
000C0000
00180000
00100800
00200400
00400300
00800180
010007C0
02007CE0
1FFFC060
0FF00070
0E000030
04000000
00000000
ENDCHAR

STARTCHAR A2AB
ENCODING 41643
SWIDTH 960 0
DWIDTH 32 0
BBX 32 32 0 -8
BITMAP
00000000
00000040
000001F0
00000F80
0001FC00
1FFF8000
000C0000
000C0000
000C0020
000C0030
1FFFFFF8
00180000
00180000
00180000
00180000
003000C0
003FFFE0
002800C0
00680180
00640300
00C20700
00C10600
01808C00
03005800
06003000
0C00DC00
18018700
300601C0
40180078
0060001E
01800004
00000000
ENDCHAR

STARTCHAR A2AC
ENCODING 41644
SWIDTH 960 0
DWIDTH 32 0
BBX 32 32 0 -8
BITMAP
00000000
00001C00
00001800
00001800
00001800
30601800
3FF01800
30601800
30601800
30601800
30601800
30601800
30603800
30603400
30603400
30603400
30606400
30606200
30606200
30604300
3FE0C100
30608180
30618180
300100C0
000200E0
00040060
000C0070
00080038
0010001E
00600000
00000000
00000000
ENDCHAR

STARTCHAR A2AD
ENCODING 41645
SWIDTH 960 0
DWIDTH 32 0
BBX 32 32 0 -8
BITMAP
00000000
00000E00
00000C00
00000C00
00000C00
30600C00
3FF00C00
30600C00
30600C00
30600C00
30600C00
30600C08
30600C1C
3067FFFE
30600C00
30600C00
30600C00
30600C00
30600C00
30600C00
3FE00C00
30600C00
30600C00
30000C00
00000C00
00000C00
00000C00
00000C00
00000C00
00000C00
00000C00
00000000
ENDCHAR

STARTCHAR A2AE
ENCODING 41646
SWIDTH 960 0
DWIDTH 32 0
BBX 32 32 0 -8
BITMAP
00000000
00000000
030000C0
03FFFFE0
030000C0
030000C0
030000C0
030000C0
030000C0
030000C0
03FFFFC0
030000C0
00000010
00000018
7FFFFFFE
00C00000
00C00000
00C00000
01800000
01800060
03FFFFF0
00000060
00000060
00000060
000000C0
000000C0
000000C0
00002180
00001F80
00000700
00000000
00000000
ENDCHAR

STARTCHAR A2AF
ENCODING 41647
SWIDTH 960 0
DWIDTH 32 0
BBX 32 32 0 -8
BITMAP
00000000
00000000
00000030
000FFFF8
00220070
20710060
3FF10060
30610060
30610040
306100C0
306080C0
306080C0
30608080
30604180
30604180
30604300
30602300
30602600
30603600
30601C00
3FE01800
30601C00
30603600
30006600
0000C300
000101C0
000200E0
00040070
0008003C
00300018
00000000
00000000
ENDCHAR

STARTCHAR A2B0
ENCODING 41648
SWIDTH 960 0
DWIDTH 32 0
BBX 32 32 0 -8
BITMAP
00000000
0000E000
0000C000
0000C000
0000C000
3060C000
3FF0C000
3060C180
306FFFC0
3060C180
3060C180
3060C180
3060C180
3060C180
3060C180
3060C180
3060C180
3060C180
3060C180
3060C180
3FE18180
30618180
30630180
00030180
00060188
00040188
00080188
00100188
002001FE
004000FC
01800000
00000000
ENDCHAR

STARTCHAR A2B1
ENCODING 41649
SWIDTH 960 0
DWIDTH 32 0
BBX 32 32 0 -8
BITMAP
00000000
001C0000
00180000
00180000
00180600
1FFFFF00
00300600
00300600
00600608
00600608
00C00608
00800608
01800608
0300060C
040007FE
180003FC
20000000
40000000
060000C0
07FFFFE0
060000C0
060000C0
060000C0
060000C0
060000C0
060000C0
060000C0
060000C0
07FFFFC0
060000C0
06000000
00000000
ENDCHAR

STARTCHAR A2B2
ENCODING 41650
SWIDTH 960 0
DWIDTH 32 0
BBX 32 32 0 -8
BITMAP
00000000
00000000
10000010
1FFFFFF8
18000030
18000030
18000030
18000230
1BFFFF30
18400730
18400630
18200C30
18200C30
18101830
18101830
18083030
180C6030
1806C030
18038030
18038030
1806C030
180C7030
18303C30
18601FF0
19800730
1A000030
18000030
18000030
1FFFFFF0
10000030
00000000
00000000
ENDCHAR

STARTCHAR A2B3
ENCODING 41651
SWIDTH 960 0
DWIDTH 32 0
BBX 32 32 0 -8
BITMAP
00000000
01C01C00
01801800
01801800
01801800
01801800
0180180C
0183FFFE
0180180C
0198180C
3FFC180C
0180180C
0180300C
0180300C
01803018
01803018
01803018
01802018
01806018
01886018
01B06018
01C0C018
3F00C018
38018018
10030030
00020030
00040870
000807E0
003001C0
00400000
00800000
00000000
ENDCHAR

STARTCHAR A2B4
ENCODING 41652
SWIDTH 960 0
DWIDTH 32 0
BBX 32 32 0 -8
BITMAP
00000000
00001000
01801C00
01C01800
01801800
01801800
01801800
01801800
01801800
018C1800
3FFE1800
01801A00
01801900
018018C0
01801860
01801830
01801818
01801818
0180180C
018C180C
01B01800
01C01800
07801800
3E001800
10001800
10001800
00001800
00001800
00001800
00001800
00001000
00000000
ENDCHAR

STARTCHAR A2B5
ENCODING 41653
SWIDTH 960 0
DWIDTH 32 0
BBX 32 32 0 -8
BITMAP
00000000
00000000
01C003C0
01800300
01800300
01000300
03010300
03FF8300
03038200
02030600
06030700
04030480
0C020CC0
08060860
1C061830
12061030
23042018
210C600C
408CC00C
00D8800E
00790004
00300000
00380000
006E0000
00C78000
0181E000
02007E02
04001FFC
180000F8
60000000
00000000
00000000
ENDCHAR

STARTCHAR A2B6
ENCODING 41654
SWIDTH 960 0
DWIDTH 32 0
BBX 32 32 0 -8
BITMAP
00000000
01000000
01C03000
01803FFC
0180300C
0300300C
0302300C
03FF300C
0603B00C
0603300C
0406300C
0806300C
0806300C
1606300C
2304300C
418C300C
00CC300C
0078300C
0070300C
0030300C
0020300C
0040300C
00C0300C
0180318C
0100307C
02003038
04003000
18003000
20003000
40003000
00003000
00000000
ENDCHAR

STARTCHAR A2B7
ENCODING 41655
SWIDTH 960 0
DWIDTH 32 0
BBX 32 32 0 -8
BITMAP
00000000
00018000
0001C000
00018000
00018000
00018018
3FFFFFFC
00038000
00034000
00064000
00062000
000C3000
000C1000
00190800
0031CC00
00218600
00418300
00818180
010180C0
06018070
0C01833C
13FFFF9E
60018008
00018000
00018000
00018000
00018000
00018000
00018000
00018000
00018000
00000000
ENDCHAR

STARTCHAR A2B8
ENCODING 41656
SWIDTH 960 0
DWIDTH 32 0
BBX 32 32 0 -8
BITMAP
00000000
0001C000
00018000
00018010
00018018
3FFFFFFE
00034000
00062000
000E2000
000C1000
00180800
00300C00
00600700
00C00380
018001E0
020000F8
0C38073E
30300608
40300600
00300600
00300600
00300600
00600600
00600600
00400600
00C00600
00800600
01000600
02000600
04000600
08000600
00000000
ENDCHAR

STARTCHAR A2B9
ENCODING 41657
SWIDTH 960 0
DWIDTH 32 0
BBX 32 32 0 -8
BITMAP
00000000
0001C000
01018000
00818000
00618000
00318000
00318000
10018000
0C018000
06018000
03018000
01818000
01818000
00018000
00030010
00030018
7FFFFFFC
00038000
00064000
00064000
000C2000
00081000
00181800
00300C00
00600600
00C00380
010001C0
060000F8
0C00003E
30000008
40000000
00000000
ENDCHAR

STARTCHAR A2BA
ENCODING 41658
SWIDTH 960 0
DWIDTH 32 0
BBX 32 32 0 -8
BITMAP
00000000
0001C000
00018000
00018000
00030020
00030030
1FFFFFF8
00062000
000C1000
00181800
00300C00
00600600
00C00300
018001C0
020000F0
0C00007E
10000018
638000E0
030000C0
030000C0
030000C0
030000C0
030000C0
030000C0
030000C0
030000C0
030000C0
03FFFFC0
030000C0
030000C0
00000000
00000000
ENDCHAR

STARTCHAR A2BB
ENCODING 41659
SWIDTH 960 0
DWIDTH 32 0
BBX 32 32 0 -8
BITMAP
00000000
00000000
07000008
0600000C
060FFFFE
06000C00
06000C00
06000C00
06300C00
3FF80C00
06300C00
0C300C00
0C300C00
0C300C00
0C300C00
0C600C00
18600C00
18600C00
18600C00
18600C00
3CC00C00
03C00C00
01800C00
01C00C00
01600C00
03300C00
06300C00
0C010C00
1800F800
20003000
40000000
00000000
ENDCHAR

STARTCHAR A2BC
ENCODING 41660
SWIDTH 960 0
DWIDTH 32 0
BBX 32 32 0 -8
BITMAP
00000000
00000000
00080000
00040000
00030000
00018000
00018000
04008010
07FFFFF8
0800003C
08000020
18000040
30000040
30000100
07FFFF80
008001C0
00400300
00400300
00200600
00100C00
00100C00
00081800
00043000
00066000
0003C000
0003C000
00067000
00183E00
00600FC0
038003FE
0C00007C
00000000
ENDCHAR

STARTCHAR A2BD
ENCODING 41661
SWIDTH 960 0
DWIDTH 32 0
BBX 32 32 0 -8
BITMAP
00000000
00100000
000C0000
00060000
00030000
08030000
08000060
0FFFFFF0
18000060
100000C0
30000080
60000100
00703800
00603000
00603000
00603000
00603000
00603000
00603000
00C03000
00C03000
00C03010
01803010
01803010
03003010
02003010
04003018
08003FFC
30001FF8
40000000
00000000
00000000
ENDCHAR

STARTCHAR A2BE
ENCODING 41662
SWIDTH 960 0
DWIDTH 32 0
BBX 32 32 0 -8
BITMAP
00000000
000000E0
000000C0
000000C0
000000C0
000000C8
001800CC
3FFDFFFE
001800C0
001800C0
001800C0
001800C0
101800C0
0C3080C0
033040C0
01B020C0
00E030C0
006018C0
00F018C0
01B80CC0
01180CC0
030C00C0
060C00C0
080000C0
100000C0
200000C0
400000C0
000008C0
00000780
00000300
00000000
00000000
ENDCHAR

STARTCHAR A2BF
ENCODING 41663
SWIDTH 960 0
DWIDTH 32 0
BBX 32 32 0 -8
BITMAP
00000000
00800000
00F00000
00C00000
00C00000
01800008
01FFFFFE
0300001C
03000030
06000020
0401C040
08018040
10018000
20018000
40618800
00718400
00C18200
00C18300
01818180
018180C0
030180C0
02018060
06018070
0C018030
08018030
10018030
20018000
00018000
003F8000
00078000
00020000
00000000
ENDCHAR

STARTCHAR A2C0
ENCODING 41664
SWIDTH 960 0
DWIDTH 32 0
BBX 32 32 0 -8
BITMAP
00000000
00000000
0C000060
0FFFFFF0
0C000060
0C000060
0C000060
0C000060
0FFFFFE0
0C000060
0C000000
0C000000
0C000180
0DFFFFC0
0C000180
0C100380
0C100300
0C080300
0C080600
0C040C00
18020C00
18011800
1801B000
1000E000
3000F000
30039C00
30060F00
201803C0
406000FE
47800038
00000000
00000000
ENDCHAR

STARTCHAR A2C1
ENCODING 41665
SWIDTH 960 0
DWIDTH 32 0
BBX 32 32 0 -8
BITMAP
00000000
03800000
03018180
0301FFC0
03018180
03018180
73398180
63318180
63318180
63318180
63318180
63318180
63318180
63318180
63318180
63318180
63318180
63318180
63318180
63318180
63330180
63330180
63330180
7FF60188
60360188
00040188
00080188
0010018C
002001FE
004000FC
00800000
00000000
ENDCHAR

STARTCHAR A2C2
ENCODING 41666
SWIDTH 960 0
DWIDTH 32 0
BBX 32 32 0 -8
BITMAP
00000000
00010000
0001C000
08018040
0F018070
0C018060
0C018060
0C018060
0C018060
0C018060
0C018060
0FFFFFE0
0C000060
00000000
0001C000
00038000
00030000
00038000
00028000
00064000
00046000
000C2000
00181000
00181800
00300C00
00600700
01800380
030001E0
0C00007E
1800001C
60000000
00000000
ENDCHAR

STARTCHAR A2C3
ENCODING 41667
SWIDTH 960 0
DWIDTH 32 0
BBX 32 32 0 -8
BITMAP
00000000
00010000
0001C000
00018000
07018070
06018060
06018060
06018060
06018060
06018060
06018060
07FFFFE0
06000060
00020040
00020000
00010000
00010000
00038000
0003C000
00064000
00066000
000C3000
00181800
00300C00
00600600
00C00380
018001C0
020000F0
0C00003C
3000001E
40000004
00000000
ENDCHAR

STARTCHAR A2C4
ENCODING 41668
SWIDTH 960 0
DWIDTH 32 0
BBX 32 32 0 -8
BITMAP
00000000
00018000
0001E000
00018000
07018038
06018030
06018030
06018030
07FFFFF0
06000030
00000000
00000000
00000100
0FFFFF80
00600300
00600200
00600600
00600608
00400FFC
00C00C1C
00C00018
00800018
01800010
01800030
03000030
02000030
04000060
08003060
18000FC0
30000380
20000000
00000000
ENDCHAR

STARTCHAR A2C5
ENCODING 41669
SWIDTH 960 0
DWIDTH 32 0
BBX 32 32 0 -8
BITMAP
00000000
00000000
00000018
3FFFFFFC
00000018
00000018
00000018
00000018
00000018
00000018
00000018
18000018
1FFFFFF8
18000018
18000000
18000000
18000018
1FFFFFFC
18000018
18000018
18000018
18000018
18000018
18000018
18000018
18000018
18000018
18000018
1FFFFFF8
18000018
00000000
00000000
ENDCHAR

STARTCHAR A2C6
ENCODING 41670
SWIDTH 960 0
DWIDTH 32 0
BBX 32 32 0 -8
BITMAP
00000000
00000000
01C07000
01806000
01806000
01806000
31866000
3FFF6030
31866038
31866060
318660C0
31866380
31866600
31866800
31867000
31866000
31866000
31866000
31866000
31866000
31866000
31A66000
319E6008
318C6008
31806008
01806008
01806008
0180600C
01807FFE
01803FF8
01800000
00000000
ENDCHAR

STARTCHAR A2C7
ENCODING 41671
SWIDTH 960 0
DWIDTH 32 0
BBX 32 32 0 -8
BITMAP
00000000
00020000
00018000
0000C000
00006010
0C006018
0FFFFFFE
0C000000
0C000000
0C000000
0C000010
0C000018
0CFFFFFC
0C006000
0C006000
0C006000
0C006000
0C006000
0C006000
0C006000
0C006000
0C006000
0C006000
18006000
18006000
18006000
10006000
30046000
2003E000
2000C000
40000000
00000000
ENDCHAR

STARTCHAR A2C8
ENCODING 41672
SWIDTH 960 0
DWIDTH 32 0
BBX 32 32 0 -8
BITMAP
00000000
00000000
00018000
00006000
00006010
0C002018
0FFFFFFE
0C000000
0C000000
0C000000
0C000000
0C00C000
0C00E000
0C00C000
0C018000
0C018000
0C030000
0C030000
0C060000
0C060200
0C0C0100
0C080080
08180040
08100020
18200030
104003D8
1080FC18
21FFC00C
21F8000C
40800004
00000000
00000000
ENDCHAR

STARTCHAR A2C9
ENCODING 41673
SWIDTH 960 0
DWIDTH 32 0
BBX 32 32 0 -8
BITMAP
00000000
00000E00
00000C00
00000C80
00000C40
00000C60
00000C60
00000C28
00000C0C
7FFFFFFE
00000C00
00000C00
00000C00
00000C00
00020C00
00030C00
1FFF8C00
00000400
00000600
00000600
00000600
00000200
00000300
00010300
00018184
7FFFE0C4
000000E4
0000007C
0000003C
0000000E
00000004
00000000
ENDCHAR

STARTCHAR A2CA
ENCODING 41674
SWIDTH 960 0
DWIDTH 32 0
BBX 32 32 0 -8
BITMAP
00000000
00000000
00700000
00600000
00600018
006FFFFC
00600018
00600018
00600018
08600018
08600018
08600018
18600018
18600018
18600018
306FFFF8
30600018
00600018
00400018
00C00018
00C00018
00C00018
00800018
01800018
01000018
030FFFF8
02000018
04000018
08000018
10000000
20000000
00000000
ENDCHAR

STARTCHAR A2CB
ENCODING 41675
SWIDTH 960 0
DWIDTH 32 0
BBX 32 32 0 -8
BITMAP
00000000
00800010
01C00018
018FFFFE
03000C00
06000C00
0C000C00
18000C00
30800C00
41C00C00
01800C00
01800C00
03000C00
03000C00
07000C00
0F000C00
0B000C00
13000C00
23000C00
43000C00
03000C00
03000C00
03000C00
03000C00
03000C00
03000C00
03000C00
03008C00
03007C00
03001800
00000000
00000000
ENDCHAR

STARTCHAR A2CC
ENCODING 41676
SWIDTH 960 0
DWIDTH 32 0
BBX 32 32 0 -8
BITMAP
00000000
03800008
0300000C
030FFFFE
03000C00
03000C00
03400C00
03200C00
13300C00
13300C00
13300C00
33000C00
33000C00
63000C00
23000C00
03000C00
03000C00
03000C00
03000C00
03000C00
03000C00
03000C00
03000C00
03000C00
03000C00
03000C00
03000C00
03008C00
03007C00
03001800
03000000
00000000
ENDCHAR

STARTCHAR A2CD
ENCODING 41677
SWIDTH 960 0
DWIDTH 32 0
BBX 32 32 0 -8
BITMAP
00000000
01C01C00
01801800
01801800
01801800
01801800
01801800
11A01818
1193FFFC
11981818
11981818
11981818
31801818
31801818
21801818
01803018
01803018
01803018
01802018
01806018
01806018
0180C018
0180C018
01818018
01810030
01820030
01841060
01880FE0
019003C0
01A00000
00000000
00000000
ENDCHAR

STARTCHAR A2CE
ENCODING 41678
SWIDTH 960 0
DWIDTH 32 0
BBX 32 32 0 -8
BITMAP
00000000
000000C0
000007E0
0600FE00
07FF8000
06000000
06000060
07FFFFF0
06000060
06000060
06000060
06000060
07FFFFE0
06000060
06000200
067FFF00
06000F80
06001C00
06007000
0600E000
06018000
06030000
06060008
0C0C0008
0C180008
0C300008
08300008
1830000C
103FFFFE
201FFFFC
40000000
00000000
ENDCHAR

STARTCHAR A2CF
ENCODING 41679
SWIDTH 960 0
DWIDTH 32 0
BBX 32 32 0 -8
BITMAP
00000000
00000000
01C00000
01800018
0187FFFC
01803018
01803018
01883018
018C3018
3FFE3018
01803018
01803018
01803018
01803018
01803018
01983018
01E03018
0F803018
3D806018
31806018
11806018
0180C030
0180C030
01808030
01818030
01810030
01820060
118408E0
0F9807C0
07000180
00000000
00000000
ENDCHAR

STARTCHAR A2D0
ENCODING 41680
SWIDTH 960 0
DWIDTH 32 0
BBX 32 32 0 -8
BITMAP
00000000
0380E000
0300C000
0300C000
0300C000
0300C000
0300C180
036FFFC0
7FF0C180
0300C180
0300C180
0300C180
0300C180
0310C180
0360C180
0380C180
0F018180
7F018180
33018180
23010180
03030180
03030180
03020188
03060188
03040188
030C0188
0308018C
231001FE
1F2000FC
06400000
00800000
00000000
ENDCHAR

STARTCHAR A2D1
ENCODING 41681
SWIDTH 960 0
DWIDTH 32 0
BBX 32 32 0 -8
BITMAP
00000000
00000000
1C180030
181FFFF8
18180030
18180030
18180030
18180030
18180030
18180030
18180030
18180030
18180030
18180030
18180030
181FFFF0
18180030
18180030
18180030
18180030
18180030
18180030
18180030
18180030
18180030
181FFFF0
18180030
18180030
18180000
18000000
00000000
00000000
ENDCHAR

STARTCHAR A2D2
ENCODING 41682
SWIDTH 960 0
DWIDTH 32 0
BBX 32 32 0 -8
BITMAP
00000000
0001C000
00018000
00018400
00018200
00018300
00018320
00018030
3FFFFFFC
00078000
0007C000
0005C000
000DE000
000DA000
0019B000
00199000
00319800
00318800
00618C00
00C18600
00818300
01818380
030181C0
060180E0
08018070
10018038
2001801E
40018008
00018000
00018000
00018000
00000000
ENDCHAR

STARTCHAR A2D3
ENCODING 41683
SWIDTH 960 0
DWIDTH 32 0
BBX 32 32 0 -8
BITMAP
00000000
0000E000
0000C000
0000C010
0000C018
0000FFFC
0000C000
0020C000
0070C000
0060C000
0060C0C0
00FFFFE0
00C000C0
008000C0
01A00180
01180180
030E0300
06070300
04038600
08018C00
10011800
00003000
00006000
0000C000
00030000
00060000
00180000
00600000
01800000
0E000000
30000000
00000000
ENDCHAR

STARTCHAR A2D4
ENCODING 41684
SWIDTH 960 0
DWIDTH 32 0
BBX 32 32 0 -8
BITMAP
00000000
00000E00
00000C00
000C0C00
3FFE0C00
000C0C00
00180C00
00180C00
00300C30
00600C38
0060CC60
00CFEC80
0080CD80
01808C40
03018C60
03018C20
06010C10
06030C18
0C060C18
0C040C0C
0C080C0C
18108C00
18007C00
10001808
30000008
30000008
60000008
6000000C
7FFFFFFE
3FFFFFFC
00000000
00000000
ENDCHAR

STARTCHAR A2D5
ENCODING 41685
SWIDTH 960 0
DWIDTH 32 0
BBX 32 32 0 -8
BITMAP
00000000
00000000
0201C000
01818000
01C18000
00C18000
00418000
00018060
001180F0
20218180
10218300
18418600
0C418800
0C81B000
0081C000
00818000
01018000
01018000
03018000
02018000
06018000
0E018008
3E018008
06018008
06018008
06018008
06018008
0601800C
0601FFFE
0700FFFC
02000000
00000000
ENDCHAR

STARTCHAR A2D6
ENCODING 41686
SWIDTH 960 0
DWIDTH 32 0
BBX 32 32 0 -8
BITMAP
00000000
04000000
03060300
0187FF80
01C60300
00C60300
00060300
00060300
40460300
30460300
18460300
0C860300
0C860300
01060300
01060300
03060300
02060300
02060300
06060300
04060300
0C0C0300
7C0C0300
0C080308
0C080308
0C180308
0C100308
0C100308
0C20030C
0C4003FE
0E8001FC
04000000
00000000
ENDCHAR

STARTCHAR A2D7
ENCODING 41687
SWIDTH 960 0
DWIDTH 32 0
BBX 32 32 0 -8
BITMAP
00000000
0000E000
0000C000
0000C000
0200C000
0180C000
0060C000
0030C040
0010C0F0
0000C180
0000C300
0030C600
3FF8DC00
0030C400
0060C400
0060C200
0060C200
00C0C200
00C0C100
0080C100
0180C180
0100C0C0
0200C060
0400C070
0800C038
1000C01C
2000C00E
4010C000
000FC000
00038000
00020000
00000000
ENDCHAR

STARTCHAR A2D8
ENCODING 41688
SWIDTH 960 0
DWIDTH 32 0
BBX 32 32 0 -8
BITMAP
00000000
00000000
03003800
01803000
00C03000
00C03000
00003000
00003000
00203000
20203000
18403800
0C403800
0C402800
00806800
00806400
01006400
01004400
0300C600
0200C200
06008200
04018300
3C010100
0C010180
0C0200C0
0C0600C0
0C040060
0C080070
0C100038
0C20001E
0E400018
04800000
00000000
ENDCHAR

STARTCHAR A2D9
ENCODING 41689
SWIDTH 960 0
DWIDTH 32 0
BBX 32 32 0 -8
BITMAP
00000000
00000010
18000018
061FFFFC
03018000
03018000
00018000
00218000
00218000
20418000
18418000
0C818000
0E830030
0483FFF8
01030030
01000030
02000030
02000030
06000030
04000030
0C000030
2C000030
1C000030
0C000060
0C000060
0C000060
0C000060
0C0010C0
0C000FC0
0E000380
04000000
00000000
ENDCHAR

STARTCHAR A2DA
ENCODING 41690
SWIDTH 960 0
DWIDTH 32 0
BBX 32 32 0 -8
BITMAP
00000000
00000000
0000E000
0010C000
0018C000
7FFCC000
0180C000
0180C000
0180C000
0180C000
0180C000
0180C000
0190C000
0198C000
3FFCC000
0180C000
0180C000
0180C000
0180C000
0180C000
0180C000
0186C008
0198C008
01E0C008
0780C008
3E00C008
3800C008
1000C00C
0000FFFE
00007FFC
00000000
00000000
ENDCHAR

STARTCHAR A2DB
ENCODING 41691
SWIDTH 960 0
DWIDTH 32 0
BBX 32 32 0 -8
BITMAP
00000000
00018000
0000C000
00007010
01003018
01FFFFFE
01800000
01800000
21800000
11800000
19800000
09800000
0D800000
09800000
01800000
01800000
03800000
05800000
7B000000
33000000
23000000
03000000
02000000
06000000
06000000
04000000
04000000
0C000000
08000000
10000000
20000000
00000000
ENDCHAR

STARTCHAR A2DC
ENCODING 41692
SWIDTH 960 0
DWIDTH 32 0
BBX 32 32 0 -8
BITMAP
00000000
00010200
07FFC780
00038600
08074C20
06067870
030C30C0
01981980
01B00E00
00600700
00C00380
018001E0
0300007C
04000018
18000008
00000000
00000000
00000000
00000000
00000000
00000000
00000000
00000000
00000000
00000000
00000000
00000000
00000000
00000000
00000000
00000000
00000000
ENDCHAR

STARTCHAR A2DD
ENCODING 41693
SWIDTH 960 0
DWIDTH 32 0
BBX 32 32 0 -8
BITMAP
00000000
00000000
0000180C
00031FFE
3FFF9818
08031818
08031830
08061830
04061820
04061860
04041840
020C1840
020C1880
01081840
01981820
00901810
00F01818
00601808
0060180C
00F0180C
0198180C
030C180C
020E180C
0407989C
1801F878
20009830
00001800
00001800
00001800
00001800
00001800
00000000
ENDCHAR

STARTCHAR A2DE
ENCODING 41694
SWIDTH 960 0
DWIDTH 32 0
BBX 32 32 0 -8
BITMAP
00000000
00010000
00019818
3FFFDFFC
00601818
00601818
00601810
00601830
00601820
00601860
00601840
00601840
00601880
00601880
00601840
00601820
00601830
00601818
0060180C
0060180C
0060180C
0060180C
0060180C
0060188C
0060187C
00601838
00601810
08601800
07C01800
03801800
00000000
00000000
ENDCHAR

STARTCHAR A2DF
ENCODING 41695
SWIDTH 960 0
DWIDTH 32 0
BBX 32 32 0 -8
BITMAP
00000000
00000000
06060C18
07FF0FFC
06060C18
06060C18
06060C18
06060C30
06060C30
06060C20
06060C60
06060C40
06060CC0
06060C40
06060C20
06060C10
06060C08
06060C08
06060C0C
06060C04
0C060C04
0C060C06
08060C06
18060C8E
10060C7C
1007CC18
2003EC00
40000C00
00000C00
00000C00
00000000
00000000
ENDCHAR

STARTCHAR A2E0
ENCODING 41696
SWIDTH 960 0
DWIDTH 32 0
BBX 32 32 0 -8
BITMAP
00000000
00000010
30300018
3FFBFFFC
30300600
30200600
30600600
30600600
30400600
30400600
30C00600
30800600
30800600
30400600
30600600
30200600
30300600
30300600
30100600
30100600
30300600
32700600
31E00600
30400600
30000600
30000600
30000600
30008600
30007E00
30001C00
30001000
00000000
ENDCHAR

STARTCHAR A2E1
ENCODING 41697
SWIDTH 960 0
DWIDTH 32 0
BBX 32 32 0 -8
BITMAP
00000000
00000020
00000030
3FFFFFF8
00018000
00018000
00018000
00018000
0C018030
0FFFFFF8
0C018030
0C018030
0C018030
0C018030
0C718730
0C618630
0C618630
0C618630
0C618630
0C618630
0C618630
0C7FFE30
0C600630
0C600630
0C000030
0C000030
0C000030
0C000430
0C0003F0
0C0000E0
00000040
00000000
ENDCHAR

STARTCHAR A2E2
ENCODING 41698
SWIDTH 960 0
DWIDTH 32 0
BBX 32 32 0 -8
BITMAP
00000000
00000000
001C1C00
00181800
00181800
00181800
00181800
00181810
00181838
3FF81870
001819C0
00181F00
00181800
00181800
00181800
00181800
00181800
00181800
00381800
00D81800
07181800
3C181FFC
30180FFE
10180000
00000000
00000000
00000000
00000008
0000000C
7FFFFFFE
00000000
00000000
ENDCHAR

STARTCHAR A2E3
ENCODING 41699
SWIDTH 960 0
DWIDTH 32 0
BBX 32 32 0 -8
BITMAP
00000000
00000040
000007E0
00007F80
03FFE000
0E018000
00018000
00018000
00018080
000180C0
0FFFFFE0
00018000
00018000
00018000
00018010
00018018
3FFFFFFC
00018000
00030000
00060000
000C0000
00181800
00300600
00600300
00C001C0
010007E0
06007C70
0C7FC038
1FF8001C
0C00000C
08000004
00000000
ENDCHAR

STARTCHAR A2E4
ENCODING 41700
SWIDTH 960 0
DWIDTH 32 0
BBX 32 32 0 -8
BITMAP
00000000
00801C00
00E01800
01C01800
01801800
01001800
03081800
06041800
04021800
08031800
101F9800
33F19800
3E00D800
3000D800
00001800
00001800
18031800
1FFF9800
18031800
18031800
18031800
18031800
18031808
18031808
18031808
18031808
18031808
1FFF180C
18031FFE
18030FFC
18000000
00000000
ENDCHAR

STARTCHAR A2E5
ENCODING 41701
SWIDTH 960 0
DWIDTH 32 0
BBX 32 32 0 -8
BITMAP
00000000
00200000
00700000
00C00000
01800C00
03FFFE00
06001C00
0C003000
18006000
00008060
07FFFFF0
00018060
00018060
00018060
00018064
3FFFFFFE
00018060
00018060
00018060
07FFFFE0
00018060
00018000
00018000
00018000
00018000
00018000
00018000
00218000
001F8000
00070000
00020000
00000000
ENDCHAR

STARTCHAR A2E6
ENCODING 41702
SWIDTH 960 0
DWIDTH 32 0
BBX 32 32 0 -8
BITMAP
00000000
00000000
00000020
00000030
1FFFFFF8
00000000
00000000
00000000
00000000
06000060
07FFFFF0
06000060
06000060
06000060
06000060
06000060
07FFFFE0
06000060
06000060
06000060
06000060
06000060
06000060
07FFFFE0
06000060
00000000
00000000
00000008
0000000C
3FFFFFFE
00000000
00000000
ENDCHAR

STARTCHAR A2E7
ENCODING 41703
SWIDTH 960 0
DWIDTH 32 0
BBX 32 32 0 -8
BITMAP
00000000
00801C00
00E01800
00C01800
00C01820
01801878
01801FC0
0180F800
031F9800
03801800
07001800
07001820
0F001830
0B1FFFF8
13001800
13001800
23001800
43001800
03001808
0300180C
033FFFFE
03001800
03001800
03001800
03001800
03001800
03001800
03001800
03001800
03001800
03001800
00000000
ENDCHAR

STARTCHAR A2E8
ENCODING 41704
SWIDTH 960 0
DWIDTH 32 0
BBX 32 32 0 -8
BITMAP
00000000
00000000
00C01C00
00E01800
01801800
01801800
01801800
01861900
03071880
03861840
07041820
070C1830
0B081818
0B18181C
1310180C
2330180C
23201804
03401860
030018F0
030019C0
03000380
03000300
03000600
03000C00
03003800
03006000
0300C000
03030000
030C0000
03300000
00400000
00000000
ENDCHAR

STARTCHAR A2E9
ENCODING 41705
SWIDTH 960 0
DWIDTH 32 0
BBX 32 32 0 -8
BITMAP
00000000
01000000
01C06000
01803000
01801800
03001800
03001800
03001800
060C180C
070FFFFE
060C0C0C
0E0C0C0C
0E0C0C0C
160C0C0C
260C1C0C
260C1C0C
460C360C
060C260C
060C630C
060C430C
060C818C
060D00CC
060E007C
060C000C
060C000C
060C000C
060C000C
060C010C
060C00FC
060C0038
060C0010
00000000
ENDCHAR

STARTCHAR A2EA
ENCODING 41706
SWIDTH 960 0
DWIDTH 32 0
BBX 32 32 0 -8
BITMAP
00000000
008001C0
01C01180
0180F980
018F0180
01B30180
03030180
03030180
03030180
07830180
07030180
07030180
0B030188
1B03018C
137FFFFE
23030180
43030180
03030180
03030180
03030180
03030180
03060180
03060180
03040180
030C0180
03080180
03080180
03100180
03200180
03400180
03000180
00000000
ENDCHAR

STARTCHAR A2EB
ENCODING 41707
SWIDTH 960 0
DWIDTH 32 0
BBX 32 32 0 -8
BITMAP
00000000
00800000
00E003F0
00C01F80
0181F800
01BE3000
01803000
03003000
03003000
03803000
07003000
07003008
0B00300C
0B3FFFFE
13003000
23003800
63002800
03006800
03006C00
03004400
0300C600
03008200
03018300
03030180
03020180
030400C0
03080070
03180038
0330001E
03200008
03400000
00000000
ENDCHAR

STARTCHAR A2EC
ENCODING 41708
SWIDTH 960 0
DWIDTH 32 0
BBX 32 32 0 -8
BITMAP
00000000
00410000
00E1C000
00C18000
00C18000
00818000
01830000
01830018
0307FFFC
03843198
030C3198
07083198
0F103198
0B106198
13206198
13406318
23004318
0300C218
03008618
03018418
03010C18
03020818
03061818
03041018
03082018
03104018
03204018
03008430
030103F0
030000E0
00000040
00000000
ENDCHAR

STARTCHAR A2ED
ENCODING 41709
SWIDTH 960 0
DWIDTH 32 0
BBX 32 32 0 -8
BITMAP
00000000
00800000
00E000C0
00C7FFE0
00C000C0
01800180
01800100
01810200
0300C400
03003800
03801800
07000C00
0F000C18
0B3FFFFC
13001818
23001830
23001820
43001840
03001800
03001800
03001800
03001800
03001800
03001800
03001800
03001800
03001800
03021800
0301F800
03007000
03002000
00000000
ENDCHAR

STARTCHAR A2EE
ENCODING 41710
SWIDTH 960 0
DWIDTH 32 0
BBX 32 32 0 -8
BITMAP
00000000
00600010
00C00018
00CFFFFC
00C01800
01801800
01801800
01801800
01801800
03C01800
03001800
07001800
07001800
0B001820
13001830
130FFFF8
23001800
43001800
03001800
03001800
03001800
03001800
03001800
03001800
03001800
03001800
03001808
0300180C
031FFFFE
03000000
03000000
00000000
ENDCHAR

STARTCHAR A2EF
ENCODING 41711
SWIDTH 960 0
DWIDTH 32 0
BBX 32 32 0 -8
BITMAP
00000000
00800030
00E000F8
00CC0F80
018FF000
018C0000
010C0000
030C0000
020C0000
038C0000
070C001C
070FFFFC
0B0D0038
1B0C8030
130C8030
230C8060
430C4060
030C60C0
030C20C0
03183180
03181100
03181B00
03180E00
03100E00
03100B80
031011C0
031060F0
0320C07C
0321001E
03460008
03080000
00000000
ENDCHAR

STARTCHAR A2F0
ENCODING 41712
SWIDTH 960 0
DWIDTH 32 0
BBX 32 32 0 -8
BITMAP
00000000
00800000
00E1C000
00C18000
00C18000
01818008
0181800C
013FFFFE
03018000
03818000
07018000
07018000
0B030000
0B030030
1303FFF8
23030030
23028060
430680C0
030640C0
03044180
030C2300
03083300
03081E00
03100E00
03101F00
03203380
034041C0
030180F0
0302003E
030C0018
03300000
00000000
ENDCHAR

STARTCHAR A2F1
ENCODING 41713
SWIDTH 960 0
DWIDTH 32 0
BBX 32 32 0 -8
BITMAP
00000000
00410000
00E38000
00C30040
00830060
0187FFF0
01860000
01040100
03080180
039FFFC0
07100000
07200000
0B000000
0B000180
133FFFC0
23000180
23000180
43000180
03000180
03000180
03000180
030000C0
030000C0
030000C4
03000064
03000064
03000074
03000034
0300001C
0300000E
03000004
00000000
ENDCHAR

STARTCHAR A2F2
ENCODING 41714
SWIDTH 960 0
DWIDTH 32 0
BBX 32 32 0 -8
BITMAP
00000000
00810000
00E38000
01C30000
01830000
01830000
01060018
0307FFFC
02060018
07040018
078C0018
07080018
0B180618
0B17FF18
13200018
23400018
23000018
03000018
03000018
03000318
030FFF98
03000018
03000018
03000018
03000018
03000030
03000030
03000830
030007E0
030001C0
03000000
00000000
ENDCHAR

STARTCHAR A2F3
ENCODING 41715
SWIDTH 960 0
DWIDTH 32 0
BBX 32 32 0 -8
BITMAP
00000000
00804000
00707000
00C04000
00C0C000
00C0C180
018FFFC0
0180C180
01008180
03C08080
03018080
070100C4
070300C4
0B020064
0B04003C
13081C1C
2310180C
43201810
03001818
033FFFFE
03001800
03001800
03001800
03001800
03001800
03001800
03001800
03001800
03001800
03001800
03001000
00000000
ENDCHAR

STARTCHAR A2F4
ENCODING 41716
SWIDTH 960 0
DWIDTH 32 0
BBX 32 32 0 -8
BITMAP
00000000
00800000
00F20080
00C3FFC0
008301C0
01830180
01030180
03020180
03060180
03860180
07040180
070C0180
0B0801FC
0B10007E
13000000
23000030
431FFFF8
03020060
03020060
030100C0
03018180
0300C300
03006600
03003C00
03001800
03003E00
0300C780
030101F0
0306007E
03180018
03200000
00000000
ENDCHAR

STARTCHAR A2F5
ENCODING 41717
SWIDTH 960 0
DWIDTH 32 0
BBX 32 32 0 -8
BITMAP
00000000
00010000
0001C000
00038000
00064000
00062000
000C3000
00181800
00300C00
00600600
00800380
030008E0
04000C7E
187FFE18
60000000
00000000
00000020
00000030
3FFFFFFC
001C0000
00180000
00381000
00300C00
00600200
00C00180
008003C0
01007F60
060FC070
0FFE0030
07000018
04000000
00000000
ENDCHAR

STARTCHAR A2F6
ENCODING 41718
SWIDTH 960 0
DWIDTH 32 0
BBX 32 32 0 -8
BITMAP
00000000
0003C000
00078000
00068000
000C4000
00183000
00301800
00600C00
01C00700
030003C0
040000F8
1800017E
62000198
03FFFFC0
03000000
03000000
03000000
03000000
03000100
03000380
03FFFFC0
03000000
03000000
03000000
03000000
03000020
03000070
03FFFFF8
03000000
03000000
00000000
00000000
ENDCHAR

STARTCHAR A2F7
ENCODING 41719
SWIDTH 960 0
DWIDTH 32 0
BBX 32 32 0 -8
BITMAP
00000000
00018000
0003C000
00038000
00064000
000E6000
000C3000
00181800
00300C00
00600700
00C003C0
018000F8
02000070
0C000000
00000000
00E00380
00C00600
00800600
00800600
01800600
01800400
01000C00
03C00E00
03200980
021818C0
060C1030
04063018
0806200C
1003400E
20018006
40010000
00000000
ENDCHAR

STARTCHAR A2F8
ENCODING 41720
SWIDTH 960 0
DWIDTH 32 0
BBX 32 32 0 -8
BITMAP
00000000
00004000
00002000
00381000
00601000
00600800
00C00C00
01800700
030703C0
060780F0
080C007E
10180018
20101000
00200C00
00400200
00800700
01007980
021FB0C0
07F030E0
03303040
02303000
00303000
00603008
00603008
00403008
00C03008
01803008
0300300C
06003FFE
18001FFC
20000000
00000000
ENDCHAR

STARTCHAR A2F9
ENCODING 41721
SWIDTH 960 0
DWIDTH 32 0
BBX 32 32 0 -8
BITMAP
00000000
00040000
00020000
00010000
00038000
0007C000
00066000
001C3000
00381800
00600600
00C00380
030001E0
0C00007E
30000018
42000040
03FFFFE0
030000E0
030000C0
030000C0
030000C0
030000C0
030000C0
03FFFFC0
030000C0
030000C0
030000C0
030000C0
030000C0
03FFFFC0
030000C0
02000080
00000000
ENDCHAR

STARTCHAR A2FA
ENCODING 41722
SWIDTH 960 0
DWIDTH 32 0
BBX 32 32 0 -8
BITMAP
00000000
00000080
000000C0
3FFFFFE0
00030000
00030000
00030000
00030100
08030380
07FFFFC0
00030000
00030000
00030000
00030030
3FFFFFFC
00000000
00002000
00402000
00701000
00E01000
00C01000
00C00800
01800C00
01800400
03000600
06000300
040001C0
080000E0
1000007C
30000030
00000000
00000000
ENDCHAR

STARTCHAR A2FB
ENCODING 41723
SWIDTH 960 0
DWIDTH 32 0
BBX 32 32 0 -8
BITMAP
00000000
00000020
00000030
1FFFFFF8
00018000
00018000
00018000
00018000
030180C0
03FFFFE0
030180C0
030180C0
030180C0
030180C0
030180D8
3FFFFFFC
030180C0
030180C0
030180C0
030180C8
030180CC
7FFFFFFE
030000C0
030000C0
030000C0
030000C0
030000C0
030010C0
03000FC0
03000380
03000100
00000000
ENDCHAR

STARTCHAR A2FC
ENCODING 41724
SWIDTH 960 0
DWIDTH 32 0
BBX 32 32 0 -8
BITMAP
00000000
00000020
00060030
0007FFF8
10060180
0C060180
06060180
06060180
02260180
00460180
00460180
008C0188
008C018C
010FFFFE
010C0380
020C0780
06000F80
04000D80
0C001980
1C003980
7C007180
0C00E180
0C018180
0C030180
0C060180
0C080180
0C300180
0C401180
0C000F80
0E000300
04000200
00000000
ENDCHAR

STARTCHAR A2FD
ENCODING 41725
SWIDTH 960 0
DWIDTH 32 0
BBX 32 32 0 -8
BITMAP
00000000
00000000
00007000
40006000
30006000
18006000
0C0060C0
0C9FFFE0
048060C0
010060C0
010060C0
010060C0
020060C0
020060C0
0400C0C0
0400C0C8
0C7FFFFE
0800C000
18008000
78018000
18018800
18030400
18030300
18060180
180400C0
18080060
18100070
18200030
18400018
1C800018
08000000
00000000
ENDCHAR

STARTCHAR A2FE
ENCODING 41726
SWIDTH 960 0
DWIDTH 32 0
BBX 32 32 0 -8
BITMAP
00000000
00000E00
00000C00
00000C00
10000C00
0C000C00
06000C00
060C0C18
032FFFFC
004C0C18
004C0C18
008C0C18
008C0C18
010C0C18
010C0C18
030C0C18
020C0C18
060C0C18
040FFFF8
0C0C0C18
7C000C00
0C000C00
0C000C00
0C000C00
0C000C00
0C000C00
0C000C00
0C000C00
0C000C00
0E000C00
04000C00
00000000
ENDCHAR

STARTCHAR A3A1
ENCODING 41889
SWIDTH 960 0
DWIDTH 32 0
BBX 32 32 0 -8
BITMAP
00000000
00000000
00000060
20000FF0
1001FC00
0C7F6000
0E006000
06006000
06006000
00406000
00806000
00806000
01006010
01006018
023FFFFC
02006000
06005000
0400D000
0C00D800
78008800
18018800
18010400
18030600
18060200
18040300
18080180
181000C0
18200070
1840003E
1C800018
09000000
00000000
ENDCHAR

STARTCHAR A3A2
ENCODING 41890
SWIDTH 960 0
DWIDTH 32 0
BBX 32 32 0 -8
BITMAP
00000000
00000000
060000C0
07FFFFE0
060000C0
060000C0
060000C0
060030C0
063FF8C0
060000C0
060000C0
060000C0
060000C0
06000CC0
06FFFEC0
060600C0
060400C0
060C00C0
060880C0
061860C0
0C103060
0C301860
0C203C64
0847C664
18FE0664
18600264
10400066
2000007E
2000003C
40000000
00000000
00000000
ENDCHAR

STARTCHAR A3A3
ENCODING 41891
SWIDTH 960 0
DWIDTH 32 0
BBX 32 32 0 -8
BITMAP
00000000
00080000
00060000
00030000
00018000
00018010
00008018
3FFFFFFC
00000000
00000000
00000700
00800600
1C600C1C
18181818
180C3018
18036018
1801C018
1801C018
18037018
180E3818
18181C18
18300E18
18C00618
1B000318
1C000018
18000018
18000018
18000018
1FFFFFF8
18000018
00000000
00000000
ENDCHAR

STARTCHAR A3A4
ENCODING 41892
SWIDTH 960 0
DWIDTH 32 0
BBX 32 32 0 -8
BITMAP
00000000
0000001C
00700018
00600018
00600398
00600318
00600318
00630318
1FFF8318
00630318
00630318
00630318
00630318
00630318
00630318
00C32318
00C33318
3FFFFB18
00C00318
00C00318
00C00318
00880318
01860018
01830018
01018018
0200C018
0600C018
04006118
080060F8
10002030
20000020
00000000
ENDCHAR

STARTCHAR A3A5
ENCODING 41893
SWIDTH 960 0
DWIDTH 32 0
BBX 32 32 0 -8
BITMAP
00000000
02000000
0780000E
0600000C
0600838C
0C00C30C
0FFFE30C
0C00030C
1800030C
1002030C
2003030C
4FFF830C
0000030C
0000030C
0000030C
0003030C
1FFF830C
000E030C
0018030C
0030030C
0060030C
00C0030C
0180030C
0300000C
0600400C
0C00400C
1800400C
1800600C
1FFFF08C
0FFFE07C
00000018
00000000
ENDCHAR

STARTCHAR A3A6
ENCODING 41894
SWIDTH 960 0
DWIDTH 32 0
BBX 32 32 0 -8
BITMAP
00000000
00000000
00000060
03FFFFF0
00060060
000C0060
000C0060
000C0060
00180060
003000C0
002000C0
004010C0
00800F80
03000300
04000000
00060018
1FFF7FFC
03060618
03060618
03060618
03060618
03060618
02060C18
06060C18
04060818
040C1818
080C1018
110C2218
10F841F0
20308060
00000000
00000000
ENDCHAR

STARTCHAR A3A7
ENCODING 41895
SWIDTH 960 0
DWIDTH 32 0
BBX 32 32 0 -8
BITMAP
00000000
02000010
0180001C
00C00418
00600718
00300618
00204618
3FFFF618
08030618
08030618
04030618
04030618
06020618
02060618
02060618
01060618
010C0618
018C0618
00C80618
00580618
00700618
00300618
00780018
00DC0018
018E0018
03070018
0601C018
0800F018
100061F8
20000078
00000020
00000000
ENDCHAR

STARTCHAR A3A8
ENCODING 41896
SWIDTH 960 0
DWIDTH 32 0
BBX 32 32 0 -8
BITMAP
00000000
00100E00
00180C00
1FFC0C00
00000C00
00000C00
00000C00
00000C00
00000C0C
0000FFFE
00040C0C
00060C0C
7FFF0C0C
01800C0C
01800C0C
01800C0C
03000C0C
0300080C
0240180C
0220180C
0620180C
0410100C
04083018
080C3018
08362018
11C66018
27034018
3C038430
300103F0
100100E0
00020040
00000000
ENDCHAR

STARTCHAR A3A9
ENCODING 41897
SWIDTH 960 0
DWIDTH 32 0
BBX 32 32 0 -8
BITMAP
00000000
0001C000
00018000
00018000
00018020
00018030
1FFFFFF8
00018000
00018000
00018000
00018000
00E18380
00C00300
00C00300
00C00300
00C40308
00C6030C
3FFF7FFE
00C00300
00C00300
00C00300
01800300
01800300
01000300
03000300
02000300
06000300
04000300
08000300
10000300
60000300
00000000
ENDCHAR

STARTCHAR A3AA
ENCODING 41898
SWIDTH 960 0
DWIDTH 32 0
BBX 32 32 0 -8
BITMAP
00000000
00018000
0001C000
00018000
00018000
00018000
00018020
00018070
0FFFFFF8
00018000
00018000
00018000
00E18380
00C18300
00C18300
00C00308
40C0031C
3FFFFFFE
00C00300
00C00300
00C00300
00C00300
00C00300
00C00300
00C00300
00C00300
00C00300
00FFFF00
00C00300
00800300
00000300
00000000
ENDCHAR

STARTCHAR A3AB
ENCODING 41899
SWIDTH 960 0
DWIDTH 32 0
BBX 32 32 0 -8
BITMAP
00000000
03801C00
03001800
03001800
03001800
03001800
03001800
03101800
03181860
7FFDFFF0
03001860
03001860
03001860
03013060
03023060
03023060
03023070
03063068
030C206C
030460C6
030060C6
030060C6
0300C0C0
0300C0C0
030180C0
030100C0
030300C0
03022180
03041F80
03080700
03000400
00000000
ENDCHAR

STARTCHAR A3AC
ENCODING 41900
SWIDTH 960 0
DWIDTH 32 0
BBX 32 32 0 -8
BITMAP
00000000
00000010
00000018
3FFFFFFC
00030000
00060000
000D8000
0019CC00
00318300
00618180
00C18060
03018030
0C018018
30018018
00018000
00018000
00000000
0001C000
00018008
00018018
7FFFFFFC
00018000
00018000
00018000
00018000
00018000
00018000
00018000
00018000
00018000
00018000
00000000
ENDCHAR

STARTCHAR A3AD
ENCODING 41901
SWIDTH 960 0
DWIDTH 32 0
BBX 32 32 0 -8
BITMAP
00000000
10000008
1C01001C
1801FFFE
18018000
18018000
18018000
18018000
18018000
18018000
18018000
18018000
18018000
18018000
18018010
18018018
1FFFFFFC
10018018
00018018
00018018
00018018
00018018
00018018
00018018
00018018
00018018
00018018
00018018
7FFF8018
00018018
00000010
00000000
ENDCHAR

STARTCHAR A3AE
ENCODING 41902
SWIDTH 960 0
DWIDTH 32 0
BBX 32 32 0 -8
BITMAP
00000000
00000008
0800001C
0FFFFFFE
0C000000
0C000000
0C000000
0D000018
0CFFFFFC
0C006000
0C00C000
0C018000
0C018000
0C030000
0C040300
0C080780
0C300600
0C3C0C00
0C071800
0803B000
0800E000
08004080
08008040
18010060
10020030
100C03D0
10107C18
207FE008
203E000C
40200008
00200000
00000000
ENDCHAR

STARTCHAR A3AF
ENCODING 41903
SWIDTH 960 0
DWIDTH 32 0
BBX 32 32 0 -8
BITMAP
00000000
00000010
0C000018
0FFFFFFC
0C000000
0C000000
0C007000
0C006000
0C006000
0C006000
0C006000
0C006000
0C006000
0C006060
0C7FFFF0
0C006000
0C006000
0C006000
0C006100
0C006080
180060C0
18006060
18006060
18006030
10006030
10006000
30006008
2000600C
21FFFFFE
40000000
00000000
00000000
ENDCHAR

STARTCHAR A3B0
ENCODING 41904
SWIDTH 960 0
DWIDTH 32 0
BBX 32 32 0 -8
BITMAP
00000000
00000010
0C000018
0FFFFFFC
0C000000
0C002000
0C003800
0C007000
0C00C800
0C018400
0C030200
0C060180
0C0C00E0
0C180078
0C20031E
0CC7FF8C
0D000000
0C000000
0C000000
0C000020
0C7FFFF0
18000070
18000060
180000C0
10000180
10000300
20000200
20000400
40000800
40001000
00000000
00000000
ENDCHAR

STARTCHAR A3B1
ENCODING 41905
SWIDTH 960 0
DWIDTH 32 0
BBX 32 32 0 -8
BITMAP
00000000
00000000
00000180
1FFFFFC0
00000180
00000180
00070180
00060180
00061180
00061980
07FFFD80
00060180
000601FC
000600FE
00060000
00060000
00060020
00060030
3FFFFFFC
00060000
000C0000
00180800
00300600
00C00300
01800180
060007C0
1803FC60
1FFE0030
0C000030
08000018
00000000
00000000
ENDCHAR

STARTCHAR A3B2
ENCODING 41906
SWIDTH 960 0
DWIDTH 32 0
BBX 32 32 0 -8
BITMAP
00000000
00000000
0001C000
00018000
0C018060
0FFFFFF0
0C018060
0C018060
0C018060
0C018060
0C018060
0FFFFFE0
0C018060
0C018000
00018000
00018000
000180C0
0FFFFFE0
010001C0
00800380
00400700
00200C00
00181800
000C7000
0007C000
0003C000
000E7800
00701E00
038007FE
3C00007C
00000000
00000000
ENDCHAR

STARTCHAR A3B3
ENCODING 41907
SWIDTH 960 0
DWIDTH 32 0
BBX 32 32 0 -8
BITMAP
00000000
00000000
00000040
07FFFFE0
008001F0
00400380
00200700
00100E00
000C3800
0003F000
0003C000
000F7E00
00780FFC
07C001F8
1C000000
00020008
1FFF3FFC
0007101C
000C1018
080C1030
06180830
01980C60
00F004C0
00600780
00F00300
019807C0
060C0CE0
0C071838
3003A01E
4001F004
00000000
00000000
ENDCHAR

STARTCHAR A3B4
ENCODING 41908
SWIDTH 960 0
DWIDTH 32 0
BBX 32 32 0 -8
BITMAP
00000000
00000010
000C001C
0002001E
00010038
60608030
7FF0C060
606060C0
60607180
60603100
60603200
60600400
60600E00
60600C00
60600C00
60600C00
60600C00
60600C00
60600C00
60600C00
7FE00C00
60600C00
60600C00
60000C00
00000C00
00000C00
00000C00
00000C00
00000C00
00000C00
00000800
00000000
ENDCHAR

STARTCHAR A3B5
ENCODING 41909
SWIDTH 960 0
DWIDTH 32 0
BBX 32 32 0 -8
BITMAP
00000000
00000000
00000000
00000020
00040030
0003FFF8
20200C00
3FF80C00
30300C00
30300C00
30300C00
30300C00
30300C00
30300C00
30300C00
30300C00
30300C00
30300C00
30300C00
30300C00
30300C00
3FF00C00
30300C00
30300C00
30000C00
00000C00
00000C10
00000C3C
0007FFFC
00000000
00000000
00000000
ENDCHAR

STARTCHAR A3B6
ENCODING 41910
SWIDTH 960 0
DWIDTH 32 0
BBX 32 32 0 -8
BITMAP
00000000
00000000
00010010
0001FFF8
20218018
3FF18018
30618018
30618018
30618018
30618018
30618018
30618018
30618018
30618018
3061FFF8
30610018
30610000
30630000
30630000
30620000
3FE20000
30660000
30640000
30040000
000C0000
00080000
00100000
00200000
00600000
00400000
00000000
00000000
ENDCHAR

STARTCHAR A3B7
ENCODING 41911
SWIDTH 960 0
DWIDTH 32 0
BBX 32 32 0 -8
BITMAP
00000000
00000000
00000070
000001F8
20000F80
2063FC00
3FF40C00
30600C00
30600C00
30600C00
30600C00
30600C00
30600C00
30600C18
306FFFFC
30600C00
30600C00
30600C00
30600C00
30600C00
3FE00C00
30600C00
30600C00
30000C00
20000C00
00000C00
00000C00
00000C00
00000C00
00000C00
00000000
00000000
ENDCHAR

STARTCHAR A3B8
ENCODING 41912
SWIDTH 960 0
DWIDTH 32 0
BBX 32 32 0 -8
BITMAP
00000000
00000000
06000060
07FFFFF0
06000060
06000060
06000060
06000060
06000060
06000060
06000060
07FFFFE0
06000060
00038000
00030000
00030010
00030018
3FFFFFFC
00038000
00034000
00064000
00062000
000C1000
000C0800
00180C00
00300700
00600380
018000F0
0600007E
78000018
00000000
00000000
ENDCHAR

STARTCHAR A3B9
ENCODING 41913
SWIDTH 960 0
DWIDTH 32 0
BBX 32 32 0 -8
BITMAP
00000000
00000000
180C6030
1FFE7FF8
180C6030
180C6030
180C6030
180C6030
180C6030
180C6030
180C6030
180C6030
180C6030
180C6030
180C6030
180C6030
180C6030
180C6030
180C6030
180C6030
180C6030
180C6030
180C6030
180C6030
180C6030
180C6030
180C6030
1FFC7FF0
180C6030
180C6030
00000000
00000000
ENDCHAR

STARTCHAR A3BA
ENCODING 41914
SWIDTH 960 0
DWIDTH 32 0
BBX 32 32 0 -8
BITMAP
00000000
00000008
0000001C
2007FFFE
30301800
3FF81800
30301800
30301800
30301800
30301800
30301800
30301E00
30301980
303018C0
30301860
30301830
30301818
30301818
30301808
30301800
3FF01800
30301800
30301800
30001800
00001800
00001800
00001800
00001800
00001800
00001800
00000000
00000000
ENDCHAR

STARTCHAR A3BB
ENCODING 41915
SWIDTH 960 0
DWIDTH 32 0
BBX 32 32 0 -8
BITMAP
00000000
00000000
060000C0
07FFFFE0
060000C0
060000C0
060000C0
060000C0
060000C0
060000C0
060000C0
060000C0
07FFFFC0
060000C0
00000000
00000000
18000030
1FFFFFF8
18000030
18000030
18000030
18000030
18000030
18000030
18000030
18000030
18000030
18000030
1FFFFFF0
18000030
00000000
00000000
ENDCHAR

STARTCHAR A3BC
ENCODING 41916
SWIDTH 960 0
DWIDTH 32 0
BBX 32 32 0 -8
BITMAP
00000000
00001000
00000E00
00001800
00001800
20601800
3FF01000
30603000
30603000
30602080
306061E0
30604180
3060C180
30608300
30618300
30610600
30620600
30620C00
30641800
30681100
3FE83180
306060C0
30604060
30008030
00010030
000201D8
00043E18
000FF00C
000F800C
00080008
00080000
00000000
ENDCHAR

STARTCHAR A3BD
ENCODING 41917
SWIDTH 960 0
DWIDTH 32 0
BBX 32 32 0 -8
BITMAP
00000000
00000000
18000030
1FFFFFF8
18000030
181C3830
18183030
18183030
18183030
18183030
18183030
18183230
18183330
1BFFFFB0
18183030
18183030
18183030
18183030
18303030
18303030
18303030
18603030
18403030
18803030
1B003030
18003030
18000030
18000030
1FFFFFF0
18000030
00000000
00000000
ENDCHAR

STARTCHAR A3BE
ENCODING 41918
SWIDTH 960 0
DWIDTH 32 0
BBX 32 32 0 -8
BITMAP
00000000
00000000
18000030
1FFFFFF8
18000030
18001C30
18001830
18001830
18001830
18001930
180019B0
19FFFFF0
18001830
18001830
18201830
18101830
18181830
180C1830
180C1830
18041830
18001830
18001830
18001830
18011830
1800F830
18003030
18000030
18000030
1FFFFFF0
18000030
00000000
00000000
ENDCHAR

STARTCHAR A3BF
ENCODING 41919
SWIDTH 960 0
DWIDTH 32 0
BBX 32 32 0 -8
BITMAP
00000000
00000000
00001C00
01801800
01C01800
01801800
01801800
01801800
01801800
01801800
01881810
018C1818
3FFE1FFC
01801800
01801800
01801800
01801800
01801800
01801800
01801800
01801800
01841800
01B81800
03C01800
7E001800
38001800
20001800
00001808
0000180C
000FFFFE
00000000
00000000
ENDCHAR

STARTCHAR A3C0
ENCODING 41920
SWIDTH 960 0
DWIDTH 32 0
BBX 32 32 0 -8
BITMAP
00000000
00000000
00010000
0003C000
00030000
00030010
00030038
3FFFFFFC
00068000
000C4000
001C2000
00181800
00700C00
00C00780
038101F0
0601C0FE
3801801C
40018000
00018200
02018700
01FFFF80
00018000
00018000
00018000
00018000
00018000
00018000
00018010
40018018
3FFFFFFC
00000000
00000000
ENDCHAR

STARTCHAR A3C1
ENCODING 41921
SWIDTH 960 0
DWIDTH 32 0
BBX 32 32 0 -8
BITMAP
00000000
00000000
00300E00
01F80C00
07C00C00
7D800C00
01800C00
01800C00
01800C00
01800C00
01800C10
01800C18
0191FFFC
01980C00
3FFC0C00
01800C00
01800C00
01800C00
01800C00
01800C00
01800C00
03000C00
03000C00
03000C00
06000C00
06000C00
0C000C08
08000C0C
1007FFFE
20000000
40000000
00000000
ENDCHAR

STARTCHAR A3C2
ENCODING 41922
SWIDTH 960 0
DWIDTH 32 0
BBX 32 32 0 -8
BITMAP
00000000
00000020
03800070
030001E8
03000F00
0300F600
03030600
03000600
03000600
03300600
7FF80600
03000600
03000600
0300060C
0307FFFE
03000600
03000600
03000600
03000600
03000600
03180600
03E00600
0F000600
7C000600
30000600
20000600
00000600
00000600
00000600
00000600
00000400
00000000
ENDCHAR

STARTCHAR A3C3
ENCODING 41923
SWIDTH 960 0
DWIDTH 32 0
BBX 32 32 0 -8
BITMAP
00000000
00400C00
00700E00
00600C00
00600C00
00600C00
20600C00
10600C00
08600C00
0C600C00
04600C08
066FFFFE
06600C00
02600C00
00600C00
00600C00
01E00C00
03600C00
06600C00
1C600C00
78600C00
30600C00
10600C00
00600C00
00600C00
00600C10
00600C38
0063FFFC
00600000
00600000
00600000
00000000
ENDCHAR

STARTCHAR A3C4
ENCODING 41924
SWIDTH 960 0
DWIDTH 32 0
BBX 32 32 0 -8
BITMAP
00000000
00180000
003C0000
003000C0
007FFFC0
00C00380
01A00700
03100E00
020C1C00
0C023000
1801E000
2003F000
000E1F00
007087FE
0780E07E
7800C004
0200C180
03FFFFC0
0300C000
0300C000
0300C000
0300C000
0300C010
0300C018
07FFFFFC
0200C000
0000C000
0000C000
0000C000
0000C000
0000C000
00000000
ENDCHAR

STARTCHAR A3C5
ENCODING 41925
SWIDTH 960 0
DWIDTH 32 0
BBX 32 32 0 -8
BITMAP
00000000
00000100
000003C0
00003F00
0003F800
1FFF0000
00030000
00030010
00060018
3FFFFFFC
000C8000
000C4000
00183000
00701C00
00C007C0
038001FE
1C700E3C
60600C00
00600C00
00600C00
00600C00
00600C00
00600C00
00600C00
00600C00
00C00C00
00C00C00
01800C00
03000C00
04000C00
08000000
00000000
ENDCHAR

STARTCHAR A3C6
ENCODING 41926
SWIDTH 960 0
DWIDTH 32 0
BBX 32 32 0 -8
BITMAP
00000000
00010000
0001C000
00018000
00030008
2003001C
1FFFFFFE
00068000
00064000
000C2000
00181800
00300E00
00600780
01C001F0
0740007E
7C70061C
00600700
00600600
00600608
2060061C
3FFFFFFE
00600600
00600600
00600600
00C00600
00C00600
00800600
01800600
03000600
04000600
08000600
00000000
ENDCHAR

STARTCHAR A3C7
ENCODING 41927
SWIDTH 960 0
DWIDTH 32 0
BBX 32 32 0 -8
BITMAP
00000000
01000200
01C00380
01800300
01800300
01800300
01800308
0184830C
7FFF7FFE
01800300
01C00300
01C00300
01C00380
01C00380
01C00280
01400280
01200280
03200680
03200640
03200440
02300440
06100C60
06180C20
04180830
0C0C1830
080C1018
100E3018
3007200C
2002400E
40008004
00008000
00000000
ENDCHAR

STARTCHAR A3C8
ENCODING 41928
SWIDTH 960 0
DWIDTH 32 0
BBX 32 32 0 -8
BITMAP
00000000
00000000
00018000
00030000
00030010
00030038
3FFFFFFC
00068000
00048000
000C6000
00183000
00301C00
00600F00
018003E0
060000FE
7801C038
00010000
00030000
40030018
3FFFFFFC
00030000
00068000
000C4000
000C6000
00183000
00301C00
00E00F00
018003C0
0E0000FE
7000003C
00000000
00000000
ENDCHAR

STARTCHAR A3C9
ENCODING 41929
SWIDTH 960 0
DWIDTH 32 0
BBX 32 32 0 -8
BITMAP
00000000
02000000
03800000
030000C0
0303FFE0
030000C0
060000C0
061870C0
7FFC60C0
061860C0
061860C0
061860C0
0C1860C0
0C3064C0
0C37FEC0
0C3060C0
183060C0
183060C0
186060C0
1C6060C0
376060C8
00C060C8
00E060C8
01B060C8
013860C8
021860C8
060860CC
0C0060FE
1800607C
20006000
40000000
00000000
ENDCHAR

STARTCHAR A3CA
ENCODING 41930
SWIDTH 960 0
DWIDTH 32 0
BBX 32 32 0 -8
BITMAP
00000000
00003800
03803000
03003100
03003080
030030C0
060030C0
060C30C8
7FFE300C
060DFFFE
060C1800
0C181800
0C181800
0C181800
0C181800
18100C00
18300C00
18300C00
18300600
3E600600
33E00300
00E00304
00F00184
01B80184
011800C4
020C00C4
040C0064
08000076
1000003E
2000001C
40000000
00000000
ENDCHAR

STARTCHAR A3CB
ENCODING 41931
SWIDTH 960 0
DWIDTH 32 0
BBX 32 32 0 -8
BITMAP
00000000
00000000
01C01800
01803800
01803000
01803000
03006060
030C7FF0
3FFE6060
030C4060
030CC060
060C80C0
060C80C0
061900C0
04180080
0C180180
0C180180
18180300
18300300
18300600
37300700
01E00C80
00700840
00F81820
009C3030
010C6018
0200C018
0401800C
0803000C
30040004
00000000
00000000
ENDCHAR

STARTCHAR A3CC
ENCODING 41932
SWIDTH 960 0
DWIDTH 32 0
BBX 32 32 0 -8
BITMAP
00000000
00040000
00070000
000E0010
200C0038
1FFFFFFC
00300600
00300600
00600C00
00C01800
01FFF000
0000F800
00018F00
000E03C0
007800F0
3F820030
00070000
00060008
000C001C
3FFFFFFE
00300600
00600C00
00600C00
00FC1800
0083F000
0000FC00
00038F00
000F03C0
007800F0
07800078
7C000010
00000000
ENDCHAR

STARTCHAR A3CD
ENCODING 41933
SWIDTH 960 0
DWIDTH 32 0
BBX 32 32 0 -8
BITMAP
00000000
00400000
00701C00
00601800
00601800
20601000
10603000
08603008
0C70201C
066FFFFE
03606060
03604060
0260C060
0060C0C0
006080C0
006180C0
00E18180
03610180
0663C180
0C603300
78600F00
30600600
20600780
00600DC0
006018E0
00603070
00604038
0060801C
0063000E
006C0004
00600000
00000000
ENDCHAR

STARTCHAR A3CE
ENCODING 41934
SWIDTH 960 0
DWIDTH 32 0
BBX 32 32 0 -8
BITMAP
00000000
02008020
0781E038
06018060
0C0300C0
10040180
20080200
18040100
0C0300C0
06018060
02018030
03008030
000000C0
1FFFFFE0
000001E0
00000700
00000C00
00007000
0001C008
4001801C
3FFFFFFE
00018000
00018000
00018000
00018000
00018000
00018000
00018000
00118000
000F8000
00020000
00000000
ENDCHAR

STARTCHAR A3CF
ENCODING 41935
SWIDTH 960 0
DWIDTH 32 0
BBX 32 32 0 -8
BITMAP
00000000
00040000
00030000
00008000
0200C000
02004018
03FFFFFC
06080030
0C0E0020
0C0C0040
18180200
001FFF00
00300700
00200600
00400C00
00800C00
00801800
01001800
02003000
00006000
0000F000
00018800
00030600
00060380
000C01C0
001800E0
00300070
00400038
00800018
03000008
00000000
00000000
ENDCHAR

STARTCHAR A3D0
ENCODING 41936
SWIDTH 960 0
DWIDTH 32 0
BBX 32 32 0 -8
BITMAP
00000000
00180000
00060000
00038000
04018018
07FFFFFC
04000018
0C000030
180000E0
39FFFFE0
300000C0
000000C0
000000C0
000000C0
018000C0
01FFFFC0
01800000
01800000
03000000
03000000
03000030
03FFFFF8
06000030
00000030
00000060
00000060
00000060
000010C0
00000FC0
00000380
00000100
00000000
ENDCHAR

STARTCHAR A3D1
ENCODING 41937
SWIDTH 960 0
DWIDTH 32 0
BBX 32 32 0 -8
BITMAP
00000000
00008000
0400E000
0200C000
0100C030
0080C060
00C0C040
0060C080
0060C180
0030C100
0000C200
0000C410
1FFFFFF8
00000038
00000030
00000030
00000030
00000030
00000030
00000030
03FFFFF0
00000030
00000030
00000030
00000030
00000030
00000030
20000030
1FFFFFF0
00000030
00000030
00000000
ENDCHAR

STARTCHAR A3D2
ENCODING 41938
SWIDTH 960 0
DWIDTH 32 0
BBX 32 32 0 -8
BITMAP
00000000
0001C000
00018000
00018000
00818000
00E18C00
00C18300
01818180
010180C0
03018060
06018030
04118038
080F8018
10030010
20000000
00000000
0001C000
00018000
00018000
00018080
000180C0
07FFFFE0
00018000
00018000
00018000
00018000
00018000
00018008
0001800C
7FFFFFFE
00000000
00000000
ENDCHAR

STARTCHAR A3D3
ENCODING 41939
SWIDTH 960 0
DWIDTH 32 0
BBX 32 32 0 -8
BITMAP
00000000
00000000
0C000060
0FFFFFF0
0C000060
0C000060
0C000060
0C000060
0FFFFFE0
0C000060
0C000000
0C000060
0CFFFFF0
0C0000E0
0C000180
0C000300
0C000C00
0C007000
0C006008
0C00600C
19FFFFFE
18006000
18006000
18006000
10006000
10006000
10006000
20046000
2003E000
4000C000
00000000
00000000
ENDCHAR

STARTCHAR A3D4
ENCODING 41940
SWIDTH 960 0
DWIDTH 32 0
BBX 32 32 0 -8
BITMAP
00000000
00000000
01000080
01FFFFC0
018000E0
018000C0
018000C0
018000C0
018000C0
018000C0
018000C0
01FFFFC0
010008C0
01000800
03000400
02000200
06000300
040C0180
0C0380C0
0801C060
10006038
2000201E
4000000C
00000000
00380000
00070000
0003C000
0000E000
00007000
00003000
00000000
00000000
ENDCHAR

STARTCHAR A3D5
ENCODING 41941
SWIDTH 960 0
DWIDTH 32 0
BBX 32 32 0 -8
BITMAP
00000000
03800010
03000038
0301FFFC
03000600
43180600
731C0600
63180600
63180600
63180600
63180600
63180600
63180600
63180600
63180600
63180600
63180600
63180600
63180600
63180600
63180600
63180600
7FF80600
60180600
60100600
00000618
0000063C
0001FFFE
00000000
00000000
00000000
00000000
ENDCHAR

STARTCHAR A3D6
ENCODING 41942
SWIDTH 960 0
DWIDTH 32 0
BBX 32 32 0 -8
BITMAP
00000000
03800000
03000010
0301FFF8
0300003C
03000030
731C0060
631800C0
63180080
63180100
63180600
63180E00
63180C10
63180C18
631BFFFC
63180C00
63180C00
63180C00
63180C00
63180C00
63180C00
63180C00
63180C00
7FF80C00
60180C00
60000C00
00000C00
00010C00
0000F800
00003000
00000000
00000000
ENDCHAR

STARTCHAR A3D7
ENCODING 41943
SWIDTH 960 0
DWIDTH 32 0
BBX 32 32 0 -8
BITMAP
00000000
00010000
0001C000
00030000
00030010
40030038
3FFFFFFC
00068000
00064000
000C4000
000C3000
00181800
00300C00
00600700
018003C0
0701C0F0
1C01807E
6001801C
08018040
0E018070
0C018060
0C018060
0C018060
0C018060
0C018060
0C018060
0C018060
0C018060
0FFFFFE0
0C000060
0C000000
00000000
ENDCHAR

STARTCHAR A3D8
ENCODING 41944
SWIDTH 960 0
DWIDTH 32 0
BBX 32 32 0 -8
BITMAP
00000000
00000000
00000180
0FFFFFC0
00000180
00000180
00000180
00000180
18000180
1FFFFF80
18000190
18000010
18000010
18000010
18000018
1FFFFFFC
0FFFFFF8
00000000
00000000
00038000
00030000
0E0300E0
0C0300C0
0C0300C0
0C0300C0
0C0300C0
0C0300C0
0C0300C0
0FFFFFC0
0C0000C0
00000000
00000000
ENDCHAR

STARTCHAR A3D9
ENCODING 41945
SWIDTH 960 0
DWIDTH 32 0
BBX 32 32 0 -8
BITMAP
00000000
00000000
01C00000
01818030
0181FFF8
01818030
21918030
399D8030
31998030
31998030
31998030
31998030
31998030
31998030
31998030
3199FFF0
31998030
31998020
31998000
31998000
31998000
31998000
31998008
3FF98008
30198008
20198008
00018008
00018018
0001FFFC
00007FF8
00000000
00000000
ENDCHAR

STARTCHAR A3DA
ENCODING 41946
SWIDTH 960 0
DWIDTH 32 0
BBX 32 32 0 -8
BITMAP
00000000
00030000
00038000
00030000
0E030060
0C030070
0C030060
0C030060
0C030060
0C030060
0C030060
0C030060
0C030060
0C030060
0FFFFFE0
0C030060
00030000
00030000
1C030038
18030030
18030030
18030030
18030030
18030030
18030030
18030030
18030030
18030030
1FFFFFF0
18000030
00000030
00000000
ENDCHAR

STARTCHAR A3DB
ENCODING 41947
SWIDTH 960 0
DWIDTH 32 0
BBX 32 32 0 -8
BITMAP
00000000
00000000
0E007000
0C006000
0C00C000
0C00C000
0C01B800
0C030700
0C0601C0
0C0C00E0
0C300030
0CC00018
0D000018
0FFFFFFE
0C000000
0071C1C0
00618180
00618180
00618180
00618180
00C18180
00C18180
00C18180
01818188
01818188
03018188
02018188
0601818C
080181FE
300000FC
40000000
00000000
ENDCHAR

STARTCHAR A3DC
ENCODING 41948
SWIDTH 960 0
DWIDTH 32 0
BBX 32 32 0 -8
BITMAP
00000000
00400010
00740018
0063FFFC
00600600
00600600
00600600
00600608
04620618
0463FFFC
0C630618
08630618
18630618
18630618
00630618
00630618
00630618
00630618
00430618
00C30618
00C30618
00C307F8
00830638
01830600
01000600
03000600
06000600
0C000600
18000600
20000600
00000400
00000000
ENDCHAR

STARTCHAR A3DD
ENCODING 41949
SWIDTH 960 0
DWIDTH 32 0
BBX 32 32 0 -8
BITMAP
00000000
00000000
03801C00
03001800
03001800
03001000
0301A180
6319FFC0
7FFD8180
63198180
63198180
63198180
63198180
63198180
63198180
63198180
63198180
63198180
63198180
63198180
63198180
631B0180
637B0180
63330188
63020188
03060188
03040188
030C018C
030801FE
031000FC
00200000
00000000
ENDCHAR

STARTCHAR A3DE
ENCODING 41950
SWIDTH 960 0
DWIDTH 32 0
BBX 32 32 0 -8
BITMAP
00000000
00020000
00018000
0000C000
0000E010
0C006018
0FFFFFFE
0C000000
0C038000
0C030000
0C030000
0C060300
0C07FF00
0C040600
0C080600
0C080600
0C100C00
0C200C00
0C201800
0C001800
0C003000
0C003000
0C006C00
0C00C300
18018180
180300E0
10060030
10080018
2030000C
20C00004
40000000
00000000
ENDCHAR

STARTCHAR A3DF
ENCODING 41951
SWIDTH 960 0
DWIDTH 32 0
BBX 32 32 0 -8
BITMAP
00000000
00030000
00018000
0000C020
1800C030
1FFFFFF8
18000000
18000000
18000080
180000C0
18FFFFE0
1800C000
1800C000
1800C000
1800C000
1800C000
1800C010
1800C018
1BFFFFFC
1800C000
1800C000
1800C000
3000C000
3000C000
3000C000
2000C000
2000C000
4010C000
400FC000
40038000
00010000
00000000
ENDCHAR

STARTCHAR A3E0
ENCODING 41952
SWIDTH 960 0
DWIDTH 32 0
BBX 32 32 0 -8
BITMAP
00000000
00010000
00018000
0000C000
00006008
0C00200C
0FFFFFFE
0C000000
0C000080
0C0000C0
0C0007E0
0C00FC00
0C7FE000
0C006000
0C006000
0C006000
0C006010
0C006018
0C0067FC
0C0FF800
0DF06000
0C006000
08006008
18006008
18006008
18006008
10006008
3000600C
20007FFE
20003FFC
40000000
00000000
ENDCHAR

STARTCHAR A3E1
ENCODING 41953
SWIDTH 960 0
DWIDTH 32 0
BBX 32 32 0 -8
BITMAP
00000000
00000000
0002061C
01038718
7F860C18
03860C30
03060830
06041820
060C1060
06081040
0C082040
0C102080
18104080
18104100
10904080
3FE82040
30E41040
00C41820
01820830
09820C10
09030418
07010618
0301860C
0301830C
0581830C
04C08304
08700000
181C0000
1007FFFE
2000FFFC
00000000
00000000
ENDCHAR

STARTCHAR A3E2
ENCODING 41954
SWIDTH 960 0
DWIDTH 32 0
BBX 32 32 0 -8
BITMAP
00000000
00001000
00001D00
000018C0
00001860
00001830
00001818
7FFFFFFE
00001800
00001800
00001800
00021800
20071800
1FFF9800
00001800
00000800
00000800
00000C00
00040C00
00060400
0FFF0600
00000600
00000302
00000302
00000184
000081C4
0001C0E4
3FFFE074
0000003C
0000001E
00000004
00000000
ENDCHAR

STARTCHAR A3E3
ENCODING 41955
SWIDTH 960 0
DWIDTH 32 0
BBX 32 32 0 -8
BITMAP
00000000
00004000
00187000
3FFC6000
00186000
0018C000
0018C00C
0018FFFE
0019800C
3019800C
3FF9000C
3019000C
3002000C
3002000C
3004400C
3000300C
3030180C
3FF80C0C
30300C0C
0030060C
0030060C
0030000C
0030000C
0030000C
0030000C
00600018
00600018
10600418
0FC003F0
038000E0
02000040
00000000
ENDCHAR

STARTCHAR A3E4
ENCODING 41956
SWIDTH 960 0
DWIDTH 32 0
BBX 32 32 0 -8
BITMAP
00000000
00000020
00300030
3FF9FFF8
00300000
00300000
00300000
00300000
00300000
30300010
3FF00018
3037FFFE
30006000
30006000
30006000
3030C000
3FF8C000
3030C030
0031FFF8
00300030
00300030
00300030
00300030
00300030
00600060
00600060
00600060
106000C0
0FC021C0
03801F80
00000700
00000000
ENDCHAR

STARTCHAR A3E5
ENCODING 41957
SWIDTH 960 0
DWIDTH 32 0
BBX 32 32 0 -8
BITMAP
00000000
00000000
000000C0
000001E0
01000380
00E00700
00180E00
00061800
0001F000
0000E000
0003B000
00061C00
00180600
00600380
03800180
0C000080
10000000
00020000
00718000
0060C080
04606040
04603030
04601018
0C600218
0860020C
0860020C
18600200
38600300
307FFF80
003FFF00
00000000
00000000
ENDCHAR

STARTCHAR A3E6
ENCODING 41958
SWIDTH 960 0
DWIDTH 32 0
BBX 32 32 0 -8
BITMAP
00000000
03000010
03840038
0303FFF8
03000C00
03000C00
03000C00
03400C00
13200C00
13300C00
33100C00
33000C00
63000C08
63100C1C
030FFFFE
03000C00
03000C00
03000C00
03000C00
03000C00
03000C00
03000C00
03000C00
03000C00
03000C00
03000C00
03000C00
03000C00
03000C00
03000C00
02000C00
00000000
ENDCHAR

STARTCHAR A3E7
ENCODING 41959
SWIDTH 960 0
DWIDTH 32 0
BBX 32 32 0 -8
BITMAP
00000000
00000000
03800E00
03000C00
03038C00
03030C00
03030C18
03030C7C
13430D98
13230E18
13633C18
3363CC18
23070C18
631B0C18
63030C18
03030C18
03030C30
03030C20
03030C40
03030C00
03030C00
03030C00
03030C00
03030000
03030008
03030008
03030008
0303000C
0303FFFE
0301FFFC
03000000
00000000
ENDCHAR

STARTCHAR A3E8
ENCODING 41960
SWIDTH 960 0
DWIDTH 32 0
BBX 32 32 0 -8
BITMAP
00000000
03800000
03000018
0303FFFC
03003018
03003018
03003018
13403018
13303018
131A3018
13193018
3300F018
33007018
63003818
23003C18
03003618
03003718
03003318
03003118
03003018
03003018
03006018
03006018
03004018
0300C018
0300C018
03018018
03010830
030207F0
030401E0
030800C0
00000000
ENDCHAR

STARTCHAR A3E9
ENCODING 41961
SWIDTH 960 0
DWIDTH 32 0
BBX 32 32 0 -8
BITMAP
00000000
03800000
030180C0
0301FFE0
030180C0
030180C0
038180C0
134180C0
133180C0
131980C0
331180C0
2301C0C0
6301A0C0
630198C0
03018CC0
03018EC0
030186C0
030182C0
030180C0
030300C0
030300C0
030300C0
030300C8
030200C8
030200C8
030600C8
030C00C8
030800CC
031000FE
0320007C
03400000
00000000
ENDCHAR

STARTCHAR A3EA
ENCODING 41962
SWIDTH 960 0
DWIDTH 32 0
BBX 32 32 0 -8
BITMAP
00000000
00072000
00061800
00060C00
00060640
00060260
3FFFFFF0
00060000
00060000
00060200
00060300
0FFFFF80
00060000
00060000
00060010
00060018
7FFFFFFC
00030000
00030100
00018380
00018700
0000DC00
0000F800
0000E008
0003B008
001E1808
01F00C08
1F000708
600003CC
000000FC
00000038
00000000
ENDCHAR

STARTCHAR A3EB
ENCODING 41963
SWIDTH 960 0
DWIDTH 32 0
BBX 32 32 0 -8
BITMAP
00000000
00001C00
00001800
00001880
00001840
00301838
3FF8181C
0030180C
00301800
0030180C
0037FFFE
10301800
18601800
04601800
02601810
03601838
01C01830
00C01860
01E00CC0
01E00CC0
03300D80
02300F00
06180600
04180E04
08081B04
10003184
200061C4
200180E4
400E003C
0000001E
00000004
00000000
ENDCHAR

STARTCHAR A3EC
ENCODING 41964
SWIDTH 960 0
DWIDTH 32 0
BBX 32 32 0 -8
BITMAP
00000000
02000000
03800030
0303FFF8
03000000
03000000
03000000
03100000
43380000
3FFC0000
03000008
0300001C
0307FFFE
03002000
03186000
03604000
0380C000
0F00C010
7F01FFF8
33018018
13000030
03000030
03000030
03000020
03000060
03000060
03000040
330000C0
0F007F80
06000700
00000000
00000000
ENDCHAR

STARTCHAR A3ED
ENCODING 41965
SWIDTH 960 0
DWIDTH 32 0
BBX 32 32 0 -8
BITMAP
00000000
00000000
038000C0
030FFFE0
030060C0
030060C0
031060C0
031860C0
7FFC60C0
030060C0
030060C0
030060C0
030060C0
030060C0
031060C0
0367FFC0
038060C0
0F0060C0
7F0060C0
330060C0
23006060
03006060
03006030
03006032
03006032
03006032
0300601A
2300601A
1F00600E
06006006
00006000
00000000
ENDCHAR

STARTCHAR A3EE
ENCODING 41966
SWIDTH 960 0
DWIDTH 32 0
BBX 32 32 0 -8
BITMAP
00000000
03807000
03006000
03006000
03006000
03006000
03006000
032060C0
0333FFE0
3FF860C0
030060C0
030060C0
030360C0
0300E0C0
031860C0
036070C0
0380D8C0
1F00D8C0
7B00CCC0
2300CCC0
230184C0
030180C0
030180C0
030300C8
030300C8
030200C8
030600C8
230400CC
1F0800FE
0610007C
04200000
00000000
ENDCHAR

STARTCHAR A3EF
ENCODING 41967
SWIDTH 960 0
DWIDTH 32 0
BBX 32 32 0 -8
BITMAP
00000000
00000000
03800E00
03000C00
03000C00
03000C00
03000C00
03100C00
03180C00
7FFC0C00
03000C00
03000C10
03000C18
0303FFFC
03180C00
03200C00
03C00C00
07000C00
3F000C00
7B000C00
23000C00
23000C00
03000C00
03000C00
03000C00
03000C00
03000C08
23000C0C
1E0FFFFE
0C000000
00000000
00000000
ENDCHAR

STARTCHAR A3F0
ENCODING 41968
SWIDTH 960 0
DWIDTH 32 0
BBX 32 32 0 -8
BITMAP
00000000
00040000
00030000
00018000
0000C0C0
1FFFFFE0
008000C0
00C00180
00600300
00300600
00180C00
000E3800
0003F000
0001C000
0007F000
001C3E00
00E007FE
1F000078
60700300
00600380
00600300
00C00300
00C00300
00C00300
00C00300
01800300
01800300
03000300
02000300
04000300
08000300
00000000
ENDCHAR

STARTCHAR A3F1
ENCODING 41969
SWIDTH 960 0
DWIDTH 32 0
BBX 32 32 0 -8
BITMAP
00000000
04000000
02000E00
03000C00
01800C00
01800C00
00880C00
7FFE0C00
06000C00
06000E00
06000E00
06000E00
060C0E00
07FE0A00
060C1900
060C1900
060C1900
0C0C1900
0C0C1180
0C0C1080
0C0C3080
0C1820C0
0C186040
08184060
1818C060
18188030
10190038
22320018
41F2000C
4064000E
00000000
00000000
ENDCHAR

STARTCHAR A3F2
ENCODING 41970
SWIDTH 960 0
DWIDTH 32 0
BBX 32 32 0 -8
BITMAP
00000000
00000000
00000030
0007FFF8
30306030
3FF86030
30306030
30306030
30306030
30306030
30306030
30306030
30306030
30306030
3FF06030
30306030
30306030
30306030
30306030
30306030
30306030
3030C030
3030C030
3FF0C030
30318030
30018030
00030030
00060870
000407E0
001801C0
00000000
00000000
ENDCHAR

STARTCHAR A3F3
ENCODING 41971
SWIDTH 960 0
DWIDTH 32 0
BBX 32 32 0 -8
BITMAP
00000000
00000800
00000E00
00000C00
20400C00
3FE00C00
30600C00
30600C00
30600C00
30600C00
30600C10
30600C18
306FFFFC
30600C00
3FE00C00
30600C00
30600C00
30600C00
30600C00
30600C00
30600C00
30600C00
30600C00
3FE00C00
30600C00
30600C00
30000C00
00000C00
00000C00
00000C00
00000C00
00000000
ENDCHAR

STARTCHAR A3F4
ENCODING 41972
SWIDTH 960 0
DWIDTH 32 0
BBX 32 32 0 -8
BITMAP
00000000
0001C000
00018000
00018000
00018000
0C018030
0FFFFFF8
0C018030
0C018030
0C018030
0C018030
0FFFFFF0
0C018030
0C018030
0C018030
0C030030
0C030030
0FFFFFF0
0C064030
00064000
00062000
000C2000
00081000
00180800
00300C00
00600600
00C00380
010001E0
06000078
1800003E
60000008
00000000
ENDCHAR

STARTCHAR A3F5
ENCODING 41973
SWIDTH 960 0
DWIDTH 32 0
BBX 32 32 0 -8
BITMAP
00000000
01C00000
0180000C
0181FFFE
0180180C
0180180C
0188180C
018C180C
3FFE180C
0180180C
0180180C
0180180C
0380180C
07E0180C
0798180C
058C180C
0D86180C
0986180C
1180180C
1180380C
2180380C
4180300C
01803018
01807018
01806018
0180C018
0180C018
01818430
018303F0
018C00E0
01800000
00000000
ENDCHAR

STARTCHAR A3F6
ENCODING 41974
SWIDTH 960 0
DWIDTH 32 0
BBX 32 32 0 -8
BITMAP
00000000
03800000
03000060
0307FFF0
0300C060
0300C060
0300C060
0308C0C0
030CC0C0
3FFEC0C0
0300C180
0300C180
03C0C180
0720C30C
0718C3FE
070CC30C
0B0CC00C
0B00C00C
1300C00C
1300C00C
2300C00C
4301800C
0301800C
0301800C
0303000C
03020018
03060018
03040438
030C03F0
030800E0
03100040
00000000
ENDCHAR

STARTCHAR A3F7
ENCODING 41975
SWIDTH 960 0
DWIDTH 32 0
BBX 32 32 0 -8
BITMAP
00000000
01C00700
01800600
01800600
01800600
01800600
01800600
01840600
01860600
7FFF0E00
01800E00
01800D00
03C00D00
07A00D00
07980D00
059C0900
0D8C0980
19801880
11801080
218010C0
218030C0
41802040
01806060
01804060
0180C030
01808038
01810018
0182001C
0182000E
01840006
01880000
00000000
ENDCHAR

STARTCHAR A3F8
ENCODING 41976
SWIDTH 960 0
DWIDTH 32 0
BBX 32 32 0 -8
BITMAP
00000000
00000000
00000600
07FFFF00
00C00C00
00C01800
00C0300C
00807FFE
0180600C
0100000C
03000018
02000030
04001060
08000FC0
1001C380
20018110
00018018
7FFFFFFC
00018000
00218000
00398C00
00618200
00C18180
018180C0
01018060
02018030
0C018018
10018018
20018000
00018000
00018000
00000000
ENDCHAR

STARTCHAR A3F9
ENCODING 41977
SWIDTH 960 0
DWIDTH 32 0
BBX 32 32 0 -8
BITMAP
00000000
00004000
00007000
00006000
00004000
0010C000
3FFCC000
00188018
0031FFFE
0031001C
00310710
10220610
08620620
04640600
02480E00
01D00E00
00C00A00
00C00900
01E01900
01601900
02301100
06303180
04182080
081860C0
101840C0
1000C060
20008060
40010030
00020018
000C000E
00100008
00000000
ENDCHAR

STARTCHAR A3FA
ENCODING 41978
SWIDTH 960 0
DWIDTH 32 0
BBX 32 32 0 -8
BITMAP
00000000
01800000
01C00000
01800000
03000008
0300000C
07FFFFFE
06000000
0C000000
08000000
11800060
21FFFFF0
4180C060
0180C060
0180C060
0180C060
0180C060
0180C06C
7FFFFFFE
030180C0
030180C0
030180C0
030180C0
030180C0
030180C8
030180CC
03FFFFFE
030000C0
000010C0
00000FC0
00000380
00000000
ENDCHAR

STARTCHAR A3FB
ENCODING 41979
SWIDTH 960 0
DWIDTH 32 0
BBX 32 32 0 -8
BITMAP
00000000
00000000
00080000
003C0060
0071FFF0
03803060
7D803060
018030C0
018030C0
018030C0
018230CC
018730FE
03F830CC
3D80300C
0180600C
0180600C
01806018
01844018
018EC018
03F08018
7D808018
01810018
01820430
018203E0
018400C8
01880008
01800008
0180000C
01FFFFFE
00FFFFFC
00000000
00000000
ENDCHAR

STARTCHAR A3FC
ENCODING 41980
SWIDTH 960 0
DWIDTH 32 0
BBX 32 32 0 -8
BITMAP
00000000
00000020
060000F0
03000FD8
0180FC00
008F9800
00001800
00001800
00401800
20401800
18801800
0C801800
0C801800
00801800
01001818
013FFFFC
01001800
03001800
02001800
02001800
06001800
1E001800
06001800
06001800
06001800
06001800
06001800
06001800
06001800
06001800
00001800
00000000
ENDCHAR

STARTCHAR A3FD
ENCODING 41981
SWIDTH 960 0
DWIDTH 32 0
BBX 32 32 0 -8
BITMAP
00000000
00000000
04000060
030007F0
01803E00
019FF000
00003000
00003000
00403000
20403000
10803000
1C803000
0C803010
04803018
0100307C
0100FF80
013F3000
03003000
03003000
06003000
06003000
3E003000
06003008
06003008
06003008
06003008
06003008
0600300C
06003FFE
07001FFC
02000000
00000000
ENDCHAR

STARTCHAR A3FE
ENCODING 41982
SWIDTH 960 0
DWIDTH 32 0
BBX 32 32 0 -8
BITMAP
00000000
08020000
06038000
03030000
01860000
01860000
00060010
000C0038
404FFFFC
208A0060
10920060
18910060
0D2100C0
094080C0
01408080
01008180
02004100
02006300
06002600
04003600
04001C00
2C001800
1C003C00
0C006600
0C00C300
04018380
040301C0
040400E0
06180078
0660001C
0080000E
00000000
ENDCHAR

STARTCHAR A4A1
ENCODING 42145
SWIDTH 960 0
DWIDTH 32 0
BBX 32 32 0 -8
BITMAP
00000000
00018000
0001C000
00018080
002181C0
3FF983E0
00718E00
0061B800
00C1C400
01818300
03018180
040180E0
1801803E
60018008
007F8000
00070000
00000000
0003C000
00038000
00038000
00064000
00062000
000C2000
000C1000
00180C00
00300600
00600380
01C001E0
0300007E
0C00003C
30000004
00000000
ENDCHAR

STARTCHAR A4A2
ENCODING 42146
SWIDTH 960 0
DWIDTH 32 0
BBX 32 32 0 -8
BITMAP
00000000
00801000
00E01E00
00C01800
01801800
01801800
03001810
03009818
02219834
071FD860
07819840
0F019880
0B011900
13011E80
23031880
23031880
430218C0
03061840
03041840
030C1860
03081830
03101830
03201818
0320181C
0340180E
03801800
03001800
03001800
03019800
03007800
02002000
00000000
ENDCHAR

STARTCHAR A4A3
ENCODING 42147
SWIDTH 960 0
DWIDTH 32 0
BBX 32 32 0 -8
BITMAP
00000000
08000040
06000060
030FFFF0
01803000
01803000
00006000
00406000
00406000
2080C008
1080C00C
18BFFFFE
0C80C000
01018000
01018000
01018000
03030000
03030060
0603FFF0
06030060
3E000060
06000060
06000060
06000060
06000060
060000C0
060000C0
060040C0
06003F80
07000F00
02000400
00000000
ENDCHAR

STARTCHAR A4A4
ENCODING 42148
SWIDTH 960 0
DWIDTH 32 0
BBX 32 32 0 -8
BITMAP
00000000
00000000
06000030
031FFFF8
01800030
00800030
00000030
00000030
00400030
60400030
18800030
1C800030
0C800030
00980030
011FFFF0
01180030
01180000
03180000
02180000
02180000
06180000
1E180000
06180008
06180008
06180008
06180008
06180008
0618000C
061FFFFE
070FFFFC
02000000
00000000
ENDCHAR

STARTCHAR A4A5
ENCODING 42149
SWIDTH 960 0
DWIDTH 32 0
BBX 32 32 0 -8
BITMAP
00000000
0C000000
02000008
038FFFFC
0180001E
00800030
00200060
004000C0
40400180
30400200
18400C00
0C800E00
04800C00
00800C08
01800C1C
013FFFFE
01000C00
01000C00
02000C00
02000C00
02000C00
1E000C00
06000C00
06000C00
06000C00
06000C00
06000C00
06000C00
07038C00
06007C00
00003800
00000000
ENDCHAR

STARTCHAR A4A6
ENCODING 42150
SWIDTH 960 0
DWIDTH 32 0
BBX 32 32 0 -8
BITMAP
00000000
00000000
01C00008
0180000C
0183FFFE
01800600
018C0600
018E0600
01980600
11A00600
11C00600
11800600
31800600
31800600
61800600
01800600
01800600
03000600
03000600
03800600
02600600
02300600
06180600
04180600
04180600
08000600
18000600
10008600
20007E00
40001C00
00000800
00000000
ENDCHAR

STARTCHAR A4A7
ENCODING 42151
SWIDTH 960 0
DWIDTH 32 0
BBX 32 32 0 -8
BITMAP
00000000
0000001C
00E00018
00C00018
00C01C18
00C01818
00C31818
00C79818
08C61818
08C81818
08D01818
18E01818
18C01818
30C01818
30C01818
00C01818
01801818
01801818
01801818
01C01818
03201818
03181818
020C0018
060C0018
04060018
0C040018
08000018
10000218
200001F0
40000060
00000000
00000000
ENDCHAR

STARTCHAR A4A8
ENCODING 42152
SWIDTH 960 0
DWIDTH 32 0
BBX 32 32 0 -8
BITMAP
00000000
00038000
00030040
040300E0
040301C0
04030300
0C070600
18069800
380C4000
101C6000
00183000
00700C00
00C00780
038001FE
0C00003C
70701C00
00601800
00601800
00601800
00601800
00601800
00601800
00C01808
00C01808
00801808
01801808
01001808
0300180C
02001FFE
04000FFC
18000000
00000000
ENDCHAR

STARTCHAR A4A9
ENCODING 42153
SWIDTH 960 0
DWIDTH 32 0
BBX 32 32 0 -8
BITMAP
00000000
00000008
0C00001C
0FFFFFFE
0C000000
0C000000
0C007000
0C006000
0C006000
0C006030
0C106038
0C106070
0C106060
0C2060C0
0C20D080
0C60D100
0C60D200
0CC09800
0C018800
0C018C00
18010C00
18030600
18060600
10040300
100C0380
301801C0
203000E0
20400070
41800038
4200001E
00000000
00000000
ENDCHAR

STARTCHAR A4AA
ENCODING 42154
SWIDTH 960 0
DWIDTH 32 0
BBX 32 32 0 -8
BITMAP
00000000
00000000
040000C0
07FFFFE0
060000C0
060000C0
0601C0C0
060180C0
060180C0
060180C0
062184C0
06218EC0
062188C0
066188C0
066190C0
066190C0
0643A0C0
060380C0
060280C0
0C0640C0
0C0660C0
0C0C2060
0C083060
18181864
18300C64
18400734
118003B6
3200003E
2000003E
4000001C
00000000
00000000
ENDCHAR

STARTCHAR A4AB
ENCODING 42155
SWIDTH 960 0
DWIDTH 32 0
BBX 32 32 0 -8
BITMAP
00000000
00200000
00700000
00600000
00C0000C
01FFFFFE
0300000C
0600000C
0C03800C
3803000C
0003000C
0103020C
0103038C
0103060C
0103060C
01070C0C
0307091C
030730F8
02048030
040C8000
000CC000
00184000
00106000
00302000
00603000
00C01800
01800C00
03000700
0C0003C0
100001E0
60000040
00000000
ENDCHAR

STARTCHAR A4AC
ENCODING 42156
SWIDTH 960 0
DWIDTH 32 0
BBX 32 32 0 -8
BITMAP
00000000
00007000
00206000
10786000
08C06000
04C06000
03806000
030060C0
0707FFE0
088060C0
108060C0
60C060C0
00C260C0
00C160C0
01C0E0C0
016060C0
036070C0
0660D8C0
0C60DCC0
0860CCC0
106180C0
606180C8
006180C8
00C300C8
00C300C8
00C200C8
00C600C8
21CC00CC
1F8800FE
0710007C
02000000
00000000
ENDCHAR

STARTCHAR A4AD
ENCODING 42157
SWIDTH 960 0
DWIDTH 32 0
BBX 32 32 0 -8
BITMAP
00000000
000000C0
183000E0
047800C0
026000C0
02C000C0
018000C8
038000DC
0683FFFE
0CC001C0
104001C0
604003C0
006003C0
00E006C0
00A004C0
01A00CC0
033018C0
063010C0
083020C0
103040C0
603080C0
003100C0
002200C0
002400C0
006800C0
006000C0
006000C0
18C000C0
07803DC0
030003C0
00000100
00000000
ENDCHAR

STARTCHAR A4AE
ENCODING 42158
SWIDTH 960 0
DWIDTH 32 0
BBX 32 32 0 -8
BITMAP
00000000
00000000
00000700
00080600
000C0600
7FFE0C00
01800C00
01800C00
01800C00
01800800
01800800
01801800
01881800
01981000
3FFC1000
01803000
01803000
01802000
01802000
01804100
01844080
01984040
01E08020
03808030
1E010038
780101C8
20020F0C
0005F80C
0007C006
00020006
00000000
00000000
ENDCHAR

STARTCHAR A4AF
ENCODING 42159
SWIDTH 960 0
DWIDTH 32 0
BBX 32 32 0 -8
BITMAP
00000000
00003800
00003000
00083000
000C3000
3FFE3000
01803000
01803018
0181FFFC
01803018
01803018
01903018
01983018
3FFC3018
01803018
01803018
01803018
01803018
01803018
01803018
01803018
018E2018
01B06018
01C04018
7F004018
38008018
20008018
00010218
000201F0
00040060
00080000
00000000
ENDCHAR

STARTCHAR A4B0
ENCODING 42160
SWIDTH 960 0
DWIDTH 32 0
BBX 32 32 0 -8
BITMAP
00000000
00001800
00001C00
00061800
3FFF1800
01801800
01801800
01801800
01801800
01801800
01801800
01801E00
018C1980
3FFE18C0
01801870
01801838
0180181C
0180180C
01801804
01801800
01831800
018C1800
01F01800
03C01800
3F001800
38001800
30001800
00001800
00001800
00001800
00001800
00000000
ENDCHAR

STARTCHAR A4B1
ENCODING 42161
SWIDTH 960 0
DWIDTH 32 0
BBX 32 32 0 -8
BITMAP
00000000
00000018
0004001C
00060018
200F0818
1FFF8E18
00C00C18
00C00C18
00C00C18
00C00C18
00C00C18
00C00C18
20CC0C18
1FFF0C18
00C00C18
00C00C18
00C00C18
00C00C18
00C00C18
00C00C18
00C10C18
00C60C18
00F80818
03C00018
7E000018
30000018
20000018
00000018
000003F8
00000078
00000020
00000000
ENDCHAR

STARTCHAR A4B2
ENCODING 42162
SWIDTH 960 0
DWIDTH 32 0
BBX 32 32 0 -8
BITMAP
00000000
00000008
40000018
3FFFFFFC
00060000
000C0000
000C1000
00080C00
00180600
00100180
003001C0
002000C0
00400000
00FFFFF8
01C0001C
03C00018
02C00018
0CC00018
10C00018
20C00018
00C00018
00C00018
00C00018
00C00018
00C00018
00C00018
00C00018
00FFFFF8
00C00018
00C00018
00C00000
00000000
ENDCHAR

STARTCHAR A4B3
ENCODING 42163
SWIDTH 960 0
DWIDTH 32 0
BBX 32 32 0 -8
BITMAP
00000000
10000000
0C001C00
03001800
01801800
01801800
00081800
3FFC1800
00181800
00301800
00301800
00601800
00C01800
00C01800
01801800
03801800
07401800
0B301800
13181800
230C1800
430C1800
03001808
03001808
03001808
03001808
03001808
03001808
0300180C
03001FFE
03000FFC
03000000
00000000
ENDCHAR

STARTCHAR A4B4
ENCODING 42164
SWIDTH 960 0
DWIDTH 32 0
BBX 32 32 0 -8
BITMAP
00000000
00000000
000C0000
00030000
00010010
00018038
1FFFFFFC
00000000
00800380
00400600
00300600
00180C00
00180800
000C1800
000C1000
0000200C
7FFFFFFE
00018000
00018000
00018000
00018000
00018000
00018000
00018000
00018000
00018000
00018000
00018000
00018000
00018000
00010000
00000000
ENDCHAR

STARTCHAR A4B5
ENCODING 42165
SWIDTH 960 0
DWIDTH 32 0
BBX 32 32 0 -8
BITMAP
00000000
00000000
00007000
18606000
1FF06000
18606000
18606000
18606180
1A67FFC0
1A606180
19606180
19E06180
19E06180
18606180
18606180
18606180
18E06180
19606180
1B60C180
3660C180
3460C180
32618180
30618180
30610188
30630188
20630188
20620188
2464018C
43C801FE
418800FC
00000000
00000000
ENDCHAR

STARTCHAR A4B6
ENCODING 42166
SWIDTH 960 0
DWIDTH 32 0
BBX 32 32 0 -8
BITMAP
00000000
00000000
0200000C
03FFFFFE
0600001C
06000010
0C000020
0C000000
1CC000C0
00FFFFE0
00C000C0
00C000C0
00C000C0
00CF00C0
00C1C0C0
00C070C0
00C018C0
00C004C0
00C018C0
00C0E0C0
00CF80C0
019E00C0
019000C0
010000C0
010000C0
020000C0
020020C0
04001FC0
08000780
10000100
00000000
00000000
ENDCHAR

STARTCHAR A4B7
ENCODING 42167
SWIDTH 960 0
DWIDTH 32 0
BBX 32 32 0 -8
BITMAP
00000000
00380E00
00300C00
00300C00
00360C18
3FFF7FFE
00300C00
00300C00
00300C00
00000000
00000020
00000030
1FFFFFF8
00C00000
00C00000
01800000
01800000
03000020
03FFFFF0
03000060
00000060
00000060
000000C0
000000C0
00000080
00000180
00000180
00010300
0000FF00
00001E00
00001000
00000000
ENDCHAR

STARTCHAR A4B8
ENCODING 42168
SWIDTH 960 0
DWIDTH 32 0
BBX 32 32 0 -8
BITMAP
00000000
00380700
00300600
00300600
00330618
7FFFBFFC
00300600
00300600
00300600
0001C000
00018000
00018000
00018030
0FFFFFF8
00018030
00018030
00018030
00030030
00030030
00060030
00060030
000C0030
00080060
00180060
00300060
006000C0
008000C0
03003380
04000F00
18000600
20000000
00000000
ENDCHAR

STARTCHAR A4B9
ENCODING 42169
SWIDTH 960 0
DWIDTH 32 0
BBX 32 32 0 -8
BITMAP
00000000
00380E00
00300C00
00300C00
00300C00
00330C18
3FFF7FFC
00300C00
00300C00
00300C00
00000000
00000000
00000800
00100800
00180800
00300800
00300C00
00300400
00600400
00600600
00400200
00C00300
00800100
01800180
030000C0
020000E0
04000060
08000038
1000003C
2000001E
40000008
00000000
ENDCHAR

STARTCHAR A4BA
ENCODING 42170
SWIDTH 960 0
DWIDTH 32 0
BBX 32 32 0 -8
BITMAP
00000000
00000000
00018000
0001C000
00018010
00018038
3FFFFFFC
00018000
00018000
00018000
00018008
00018018
7FFFFFFE
00000180
00000380
00800300
00600600
00380C00
001C1C00
000C3800
00007000
0000C000
00018000
08060000
04180000
03600000
01C00000
007C0002
000FFFFC
00007FF8
00000000
00000000
ENDCHAR

STARTCHAR A4BB
ENCODING 42171
SWIDTH 960 0
DWIDTH 32 0
BBX 32 32 0 -8
BITMAP
00000000
00000000
18003800
06003000
03003000
03803000
01803018
008FFFFC
00003018
00003018
01803018
3FC03018
01003018
03003018
06002018
06006018
0C406018
1FE04018
1870C018
00C08018
00C18030
00810030
01820830
010407E0
020C01C0
07880000
04E00000
083F0000
1007FE02
20001FFC
40000000
00000000
ENDCHAR

STARTCHAR A4BC
ENCODING 42172
SWIDTH 960 0
DWIDTH 32 0
BBX 32 32 0 -8
BITMAP
00000000
01000000
01C02008
01803FFC
0180301E
01803018
718E3030
618C3030
618C3020
618C3060
618C3040
618C3080
618C3080
618C3080
618C3060
618C3030
618C3010
618C3008
618C3008
618C300C
618C300C
618C300C
618C300C
7FFC300C
600C33FC
00003078
00003020
00003000
00003000
00003000
00002000
00000000
ENDCHAR

STARTCHAR A4BD
ENCODING 42173
SWIDTH 960 0
DWIDTH 32 0
BBX 32 32 0 -8
BITMAP
00000000
01000000
01C02008
03003FFC
0300300E
03003018
03023018
03073010
7FFFB030
06063020
06063040
060C3040
060C3080
040C3040
0C0C3020
0C083010
0C183018
1818300C
1810300C
1E303004
11B03006
00E03006
00703006
00DC310C
018E30FC
03063038
06023000
0C003000
10003000
20003000
40003000
00000000
ENDCHAR

STARTCHAR A4BE
ENCODING 42174
SWIDTH 960 0
DWIDTH 32 0
BBX 32 32 0 -8
BITMAP
00000000
00000000
20100030
3FF9FFF8
30300078
30300060
302000C0
30600080
30400100
30400200
30400C00
30800E00
30800C00
30400C10
30200C18
30200C3C
3017FFFE
30100C00
30180C00
30180C00
30180C00
32380C00
31F00C00
30600C00
30000C00
30000C00
30000C00
30010C00
3000FC00
30001800
20000000
00000000
ENDCHAR

STARTCHAR A4BF
ENCODING 42175
SWIDTH 960 0
DWIDTH 32 0
BBX 32 32 0 -8
BITMAP
00000000
00000008
0000000C
7FFFFFFE
001C1C00
00181800
00181800
00181800
18181818
1FFFFFFC
18181818
18181818
18181818
18303018
18303018
186C2818
18464618
18434318
18838198
190101D8
190200D8
1E000058
18000018
18000018
18000018
18000018
18000018
18000218
180001F8
18000070
18000020
00000000
ENDCHAR

STARTCHAR A4C0
ENCODING 42176
SWIDTH 960 0
DWIDTH 32 0
BBX 32 32 0 -8
BITMAP
00000000
00000000
00070700
007F8700
3FF00600
00600600
00600600
00600600
00620600
00630600
7FFFC600
00600600
00600600
00600600
00600600
10600600
10610600
1FFF8600
18030600
18030600
18030600
18030600
18030604
18030604
18030604
18030604
18030604
1FFF0604
180307FE
180003FC
10000000
00000000
ENDCHAR

STARTCHAR A4C1
ENCODING 42177
SWIDTH 960 0
DWIDTH 32 0
BBX 32 32 0 -8
BITMAP
00000000
00000000
00000000
00030030
0003FFF8
00030030
00030030
00030030
00430030
00630030
7FF30030
00030030
00030030
00030030
00030030
0003FFF0
00036330
00006300
00006300
00206300
00306300
7FF8C300
0000C300
00018308
00018308
00030308
00020308
0006030C
000C03FE
001001FC
00E00000
00000000
ENDCHAR

STARTCHAR A4C2
ENCODING 42178
SWIDTH 960 0
DWIDTH 32 0
BBX 32 32 0 -8
BITMAP
00000000
00000000
00000010
00000018
3FFFFFFC
000C1800
000C1800
000C1800
000C1800
000C1800
000C1800
0C0C1830
0FFFFFF8
0C0C1830
0C0C1830
0C0C1830
0C0C1830
0C0C1830
0C0C1830
0C0C1830
0C0C1830
0FFFFFF0
0C0C1830
000C1800
000C1800
000C1800
000C1800
000C1808
000C180C
7FFFFFFE
00000000
00000000
ENDCHAR

STARTCHAR A4C3
ENCODING 42179
SWIDTH 960 0
DWIDTH 32 0
BBX 32 32 0 -8
BITMAP
00000000
00C01800
00E01C00
00C01800
01801820
01801830
018FFFF8
03001800
03001800
03801800
07001800
07001800
0B001808
1B00181C
133FFFFE
23003800
43007C00
03007C00
0300DA00
0300DB00
03019980
03011880
030318C0
03061860
030C1830
0308181C
0310180E
03601804
03001800
03001800
02001800
00000000
ENDCHAR

STARTCHAR A4C4
ENCODING 42180
SWIDTH 960 0
DWIDTH 32 0
BBX 32 32 0 -8
BITMAP
00000000
00801C00
00E01800
00C01800
01801800
018C1804
018FFFFE
030C180C
030C1818
070C1830
070C1800
0F0C1800
0B0C1800
1B0C1820
130C1830
230FFFF8
430D0060
030C8060
030C8060
030C40C0
030C40C0
030C2180
03183300
03181B00
03180E00
03100E00
03303780
032061E0
0341807E
03860018
03080000
00000000
ENDCHAR

STARTCHAR A4C5
ENCODING 42181
SWIDTH 960 0
DWIDTH 32 0
BBX 32 32 0 -8
BITMAP
00000000
00800000
01E40020
0187FFF0
01860030
01860030
03060030
03060030
02860030
07060030
06060030
0E07FFF0
0E060030
16060030
36060030
26060030
46060030
06060030
06060030
06060030
0607FFF0
06060030
06060030
06060030
06060030
06060030
06060030
06260036
061FFFFE
06000000
06000000
00000000
ENDCHAR

STARTCHAR A4C6
ENCODING 42182
SWIDTH 960 0
DWIDTH 32 0
BBX 32 32 0 -8
BITMAP
00000000
00800C00
00E00E00
00C00C00
00C00C00
01800C00
01800C00
01000C00
03080C08
038FFFFC
070C0C0E
070C0C0C
0B0C0C0C
1B0C0C0C
130C0C0C
230C0C0C
430C0C0C
030C0C0C
030FFFFC
030C0C0C
030C0C0C
030C0C0C
030C0C0C
030C0C0C
030C0C0C
030C0C0C
030C0C0C
030FFFFC
030C000C
030C000C
030C0000
00000000
ENDCHAR

STARTCHAR A4C7
ENCODING 42183
SWIDTH 960 0
DWIDTH 32 0
BBX 32 32 0 -8
BITMAP
00000000
01000000
01C00380
01820300
01838300
03030300
03060300
030C030C
06087FFE
0710030C
0660830C
0E70C30C
0E19830C
160D830C
160F030C
2606070C
4606060C
0605060C
060C8618
0608C618
0611CC18
062E6C18
06786C18
06202818
06001018
06001018
06002018
06004218
060041F0
06008060
06000000
00000000
ENDCHAR

STARTCHAR A4C8
ENCODING 42184
SWIDTH 960 0
DWIDTH 32 0
BBX 32 32 0 -8
BITMAP
00000000
00800000
01CC0030
018FFFF8
018C0030
018C0030
030C0030
030C0030
060C0030
070FFFF0
060C0030
0E0C0030
0E0C0000
160C0000
160C7000
260C6040
460C60E0
060C61C0
060C6300
060C6600
060C7800
060C6000
06186008
06186008
06106008
06306008
06306008
0620600C
06407FFE
06803FF8
06000000
00000000
ENDCHAR

STARTCHAR A4C9
ENCODING 42185
SWIDTH 960 0
DWIDTH 32 0
BBX 32 32 0 -8
BITMAP
00000000
00800010
00E00038
00CFFFFC
01800600
01800600
01000600
03000600
03000600
07840600
07070600
0F060600
0B060620
13060670
130607F8
23060600
43060600
03060600
03060600
03060600
03060600
03060600
03060600
03060600
03060600
03060600
03060608
0326061C
031FFFFE
03000000
02000000
00000000
ENDCHAR

STARTCHAR A4CA
ENCODING 42186
SWIDTH 960 0
DWIDTH 32 0
BBX 32 32 0 -8
BITMAP
00000000
01000008
01E0001C
019FFFFE
01801800
03001800
03001800
02001800
06101810
07181818
061FFFFC
0E181018
0E183018
16183018
26182818
26182618
46186318
06184198
061880D8
061980D8
061B0078
061C0018
06180018
06180018
06180018
06180018
06180018
06180018
061803F8
06180078
06180020
00000000
ENDCHAR

STARTCHAR A4CB
ENCODING 42187
SWIDTH 960 0
DWIDTH 32 0
BBX 32 32 0 -8
BITMAP
00000000
00810020
00E1C038
00C18030
01818030
01818030
01018034
031FFFFE
03018030
03818030
07018030
07018030
0B018030
1B018030
13018030
23018030
43018030
0301FFF0
03018030
03018030
03018030
03018030
03018030
03018030
03018030
03018030
03018030
0301FFF0
03018030
03018030
03000000
00000000
ENDCHAR

STARTCHAR A4CC
ENCODING 42188
SWIDTH 960 0
DWIDTH 32 0
BBX 32 32 0 -8
BITMAP
00000000
00800000
00F00008
00C3FFFC
00C0180E
00C0180C
0180180C
0180301C
01003018
03806018
03806038
0700C030
0F0187F0
0B0200E0
13040000
23080000
63020018
0303FFFC
0303001C
03030018
03030018
03030018
03030018
03030018
03030018
03030018
03030018
03030018
0303FFF8
03030018
02020000
00000000
ENDCHAR

STARTCHAR A4CD
ENCODING 42189
SWIDTH 960 0
DWIDTH 32 0
BBX 32 32 0 -8
BITMAP
00000000
00800000
01E60018
0187FFFC
01860018
01860018
03064018
03063018
03061818
06060C18
06060C18
0F060418
0E06001C
167FFFFE
360C0030
260C0030
460C4030
060C3030
060C1830
060C0C30
060C0C30
060C0430
060C0034
060FFFFE
060C0030
06000030
06000030
06000870
060007E0
060001C0
06000000
00000000
ENDCHAR

STARTCHAR A4CE
ENCODING 42190
SWIDTH 960 0
DWIDTH 32 0
BBX 32 32 0 -8
BITMAP
00000000
00840000
00E40030
01C7FFF8
01860030
01860030
03060030
03060030
02060030
07860030
07060030
0F07FFF0
0B060030
13060020
23060000
23060000
43060008
0307FFFE
0306000C
0306000C
0306000C
0306000C
0306000C
0306000C
0306000C
0306000C
0306000C
0306000C
0307FFFC
0306000C
03000000
00000000
ENDCHAR

STARTCHAR A4CF
ENCODING 42191
SWIDTH 960 0
DWIDTH 32 0
BBX 32 32 0 -8
BITMAP
00000000
00800000
01C00000
018C000C
018FFFFE
018C630C
018C630C
030C630C
030C630C
078C630C
070C630C
0F0C630C
0B0C630C
130C630C
230C630C
230CC30C
430CC3EC
030C81FC
030D000C
030E000C
030C000C
030C000C
030C000C
030C000C
030C000C
030C000C
030FFFFC
030C000C
030C000C
030C0000
03000000
00000000
ENDCHAR

STARTCHAR A4D0
ENCODING 42192
SWIDTH 960 0
DWIDTH 32 0
BBX 32 32 0 -8
BITMAP
00000000
00000800
00E01E00
00C01800
01801C00
01803200
01806200
01006100
0300C080
038180C0
07030070
0702003C
0F040E1E
0B180C08
13000C00
2301CC80
43010C80
03030C40
03030C20
03030C30
03020C30
03020C18
03060C18
03040C0C
03040C0C
03080C0C
03080C0C
03100C04
0301FC00
03003800
02002000
00000000
ENDCHAR

STARTCHAR A4D1
ENCODING 42193
SWIDTH 960 0
DWIDTH 32 0
BBX 32 32 0 -8
BITMAP
00000000
00000400
00400F00
00200C00
00101800
00181000
000C2000
030840C0
03FFFFE0
030000C0
030000C0
030000C0
030000C0
030000C0
030000C0
030000C0
030000C0
03FFFFC0
031830C0
00183000
00183000
00183000
00303000
00303000
00603010
00C03010
01803010
03003018
06003FFC
18001FF8
20000000
00000000
ENDCHAR

STARTCHAR A4D2
ENCODING 42194
SWIDTH 960 0
DWIDTH 32 0
BBX 32 32 0 -8
BITMAP
00000000
00000000
00000060
0FFFFFF0
00060060
000C0060
00180060
003800C0
00601FC0
01C00380
07000000
3C000060
0FFFFFF0
0C018060
0C010060
0C010060
0C030060
0C030060
0FFFFFE0
0C026060
00066000
00046000
000C6000
00186008
00306008
00606008
00C0600C
03007FFC
0C003FF8
30000000
00000000
00000000
ENDCHAR

STARTCHAR A4D3
ENCODING 42195
SWIDTH 960 0
DWIDTH 32 0
BBX 32 32 0 -8
BITMAP
00000000
0E000000
0C0C0030
0C0FFFF8
0C0C0030
0C0C0030
0C0C0030
0C0C0030
0C0FFFF0
0C0C0030
0C0C0030
0C0C0030
0C0C0030
0C0FFFF0
0C0C0030
0C0C0030
00000000
00380E00
00300C00
00300C00
00300C00
00300C00
00600C08
00600C08
00400C08
00C00C08
01800C08
03000C0C
06000FFE
180007FC
60000000
00000000
ENDCHAR

STARTCHAR A4D4
ENCODING 42196
SWIDTH 960 0
DWIDTH 32 0
BBX 32 32 0 -8
BITMAP
00000000
00000180
000007E0
0001FE00
0FFF8000
00018000
00018000
00018000
0C018060
0FFFFFF0
0C018060
0C018060
0C018060
0C018060
0C018060
0C030060
0C030060
0FFFFFE0
0C066060
00066000
00066200
000C6100
000C6180
001860C8
003060C8
00606008
00C06008
0300600C
04007FFE
18003FFC
20000000
00000000
ENDCHAR

STARTCHAR A4D5
ENCODING 42197
SWIDTH 960 0
DWIDTH 32 0
BBX 32 32 0 -8
BITMAP
00000000
00000000
30000030
3FFFFFF8
30030030
30830830
30830830
30830830
30830830
30C30830
30C30C30
30C30C30
30E30E30
31A30E30
31B31B30
31331B30
331B11B0
321F21F0
340F60F0
3C0740F0
30038030
30030030
30030030
30030030
30030030
30030030
30030030
30030330
300300F0
30000060
20000000
00000000
ENDCHAR

STARTCHAR A4D6
ENCODING 42198
SWIDTH 960 0
DWIDTH 32 0
BBX 32 32 0 -8
BITMAP
00000000
08000000
08000020
0FFFFFF0
0C000060
0C010060
0C01C060
0C010060
0C030060
0C030060
0C06C060
0C062060
0C0C1860
0C180C60
0C300660
0C600760
0C800360
0C000064
4C00006E
7FFFFFFE
00000000
00000000
00200000
00780C00
00E00300
018000C0
03000060
0C000030
18000018
60000018
00000000
00000000
ENDCHAR

STARTCHAR A4D7
ENCODING 42199
SWIDTH 960 0
DWIDTH 32 0
BBX 32 32 0 -8
BITMAP
00000000
00000000
04000000
04000018
07FFFFFC
0400003C
0C000020
18000040
18000140
11000180
01FFFFC0
01800180
01800180
01800180
01800180
01800180
01FFFF80
01800180
01800180
01800180
01800180
01800180
01FFFF80
01800180
01800180
01800180
01800180
01800188
4180019C
3FFFFFFE
00000000
00000000
ENDCHAR

STARTCHAR A4D8
ENCODING 42200
SWIDTH 960 0
DWIDTH 32 0
BBX 32 32 0 -8
BITMAP
00000000
00000010
00000038
003FFFFC
10006000
0C006000
06006000
0600C000
0200C000
00808000
00818000
00818000
01030000
01020000
03060030
0207FFF8
060E0030
04160030
0C260030
78460030
18860030
08060030
08060030
08060030
0C060030
0C060030
0C060030
0807FFF0
00060030
00060030
00040000
00000000
ENDCHAR

STARTCHAR A4D9
ENCODING 42201
SWIDTH 960 0
DWIDTH 32 0
BBX 32 32 0 -8
BITMAP
00000000
00000000
000C0060
000FFFF0
100C0060
0C0C0060
060C0060
060C0060
020C0060
008C0060
008C0060
010C0060
010C0060
010FFFE0
020CC660
0200C600
0400C600
0400C600
0C00C600
6C00C600
1C018600
0C018600
0C030608
0C020608
0C060608
0C0C0608
0C180608
0C10060C
0C2007FE
0EC003FC
04000000
00000000
ENDCHAR

STARTCHAR A4DA
ENCODING 42202
SWIDTH 960 0
DWIDTH 32 0
BBX 32 32 0 -8
BITMAP
00000000
00002000
00003C00
20033000
1007B080
0C063040
06043060
060C3030
03483030
00503018
00B03018
00A03000
01003030
013FFFF8
02003000
02003000
06003000
04003000
0C003008
7800301C
187FFFFE
08003000
08003000
0C003000
0C003000
0C003000
0C003000
00003000
00003000
00003000
00003000
00000000
ENDCHAR

STARTCHAR A4DB
ENCODING 42203
SWIDTH 960 0
DWIDTH 32 0
BBX 32 32 0 -8
BITMAP
00000000
00000000
0C0000C0
0FFFFFE0
0C0000C0
0C0000C0
0C0010C0
0C0018C0
0DFFFCC0
0C0000C0
0C0000C0
0C0000C0
0CC018C0
0CFFFCC0
0CC018C0
0CC018C0
0CC018C0
0CC018C0
0CFFF8C0
0CC018C0
0CC018C0
0CC018C0
18C018C4
18FFF8C4
18C018C4
300000E4
30000076
2000003E
2000001E
4000000C
00000000
00000000
ENDCHAR

STARTCHAR A4DC
ENCODING 42204
SWIDTH 960 0
DWIDTH 32 0
BBX 32 32 0 -8
BITMAP
00000000
00000010
0060001C
00E00018
00C00418
01800718
01000618
03040618
06020618
0C010618
18078618
3FF8C618
3E004618
10004618
00000618
00000618
08010618
0FFF8618
0C018618
0C018618
0C018618
0C018618
0C018418
0C018018
0C018018
0C018018
0C018018
0FFF8018
0C0181F8
0C000038
00000020
00000000
ENDCHAR

STARTCHAR A4DD
ENCODING 42205
SWIDTH 960 0
DWIDTH 32 0
BBX 32 32 0 -8
BITMAP
00000000
00000000
00E00000
00C0000C
00C4FFFE
00C6180C
3FFF180C
00C0180C
00C0180C
00C0180C
00C0180C
00C0180C
00C2180C
00C3180C
7FFF980C
0180180C
0180180C
03001818
02101818
06081818
040C3018
08063018
10072018
31FB6018
3F034018
30018018
20018870
000307E0
000200C0
000C0000
00000000
00000000
ENDCHAR

STARTCHAR A4DE
ENCODING 42206
SWIDTH 960 0
DWIDTH 32 0
BBX 32 32 0 -8
BITMAP
00000000
0000001C
00E00018
00C00018
00C40718
00C60618
3FFF0618
00C00618
00C00618
00C00618
00C00618
00C00618
00C00618
00C20618
00C30618
3FFF8618
01800618
01800618
03000618
030C0618
06040618
04020618
08030018
180F8018
10F18018
3F81C018
3800C018
10000218
000001F8
00000070
00000020
00000000
ENDCHAR

STARTCHAR A4DF
ENCODING 42207
SWIDTH 960 0
DWIDTH 32 0
BBX 32 32 0 -8
BITMAP
00000000
0000000E
0000000C
0001800C
1FFFC70C
0081860C
0181860C
0181860C
0181860C
0301860C
0301860C
0603060C
0443060C
083E060C
100C060C
2000060C
5801860C
1FFFC60C
1801860C
1801860C
1801860C
1801860C
1801860C
1801800C
1801800C
1801800C
1801800C
1FFF820C
180181FC
18000038
00000010
00000000
ENDCHAR

STARTCHAR A4E0
ENCODING 42208
SWIDTH 960 0
DWIDTH 32 0
BBX 32 32 0 -8
BITMAP
00000000
0000001C
18030018
1FFF8018
18030018
18030718
18030618
18030618
18030618
18030618
18030618
1FFF0618
18C30618
00C00618
00C00618
00C18618
7FFFC618
00C18618
00C18618
01818618
01818618
01818618
01018618
03018018
02018018
06018018
04430018
083F0118
100E00F8
20040030
40000000
00000000
ENDCHAR

STARTCHAR A4E1
ENCODING 42209
SWIDTH 960 0
DWIDTH 32 0
BBX 32 32 0 -8
BITMAP
00000000
0000001C
18CC6018
1FEFF018
18CC61D8
18CC6198
18CC6198
18CC6198
18CC6198
18CC6198
18CC6198
18CC6198
18CC6198
18CC6198
18CC6998
7FFFFD98
18CC6198
18CC6198
18CC6198
18CC6198
18CC6198
18CC6198
18CC6198
18CC6018
18CC6018
18CC6018
18CC6018
18CC6118
1BCDE0F0
198CC060
00000000
00000000
ENDCHAR

STARTCHAR A4E2
ENCODING 42210
SWIDTH 960 0
DWIDTH 32 0
BBX 32 32 0 -8
BITMAP
00000000
00080100
040401C0
03030180
01818300
00C18600
00408C00
0440100C
07FFFFFE
0400000C
04000018
0C01C030
0C018020
18018000
10018030
01FFFFF8
00030030
00030030
00030030
00060030
00060030
000C0030
00180060
00180060
00300060
00600060
01800060
030010C0
0C000F80
30000300
40000000
00000000
ENDCHAR

STARTCHAR A4E3
ENCODING 42211
SWIDTH 960 0
DWIDTH 32 0
BBX 32 32 0 -8
BITMAP
00000000
00700E00
00600C00
00600C00
00660C0C
7FFF7FFE
00600C00
00600C00
00600C00
08000000
0800000C
0FFFFFFE
0800000C
18000018
38038010
30030000
00030060
07FFFFF0
00030060
00030060
00060060
00060060
000C0060
000C00C0
001800C0
003000C0
006000C0
01804180
07003F80
18000F00
60000400
00000000
ENDCHAR

STARTCHAR A4E4
ENCODING 42212
SWIDTH 960 0
DWIDTH 32 0
BBX 32 32 0 -8
BITMAP
00000000
00000000
00E00700
00C00600
00C00600
1CC70600
18C60600
18C60618
18C6FFFC
18C60618
18C60618
18C60618
18C60618
1FFE0618
18C60618
00C00C18
00C00C18
38C70C18
30C60C18
30C60C18
30C60C18
30C61818
30C61818
30C61018
30C63018
30C62018
30C66018
3FFE4430
300683E0
300680C0
00000000
00000000
ENDCHAR

STARTCHAR A4E5
ENCODING 42213
SWIDTH 960 0
DWIDTH 32 0
BBX 32 32 0 -8
BITMAP
00000000
00000020
30000070
3FFFFFF8
30020000
30078000
30060C00
300C0200
30180100
302003C0
30C1FEE0
30FFC060
30800030
300E0720
300C0600
300C0620
300C0670
37FFFFF8
300C0600
300C0600
30180600
30180600
30100600
30200600
30400600
31800600
30000010
30000038
3FFFFFFC
30000000
00000000
00000000
ENDCHAR

STARTCHAR A4E6
ENCODING 42214
SWIDTH 960 0
DWIDTH 32 0
BBX 32 32 0 -8
BITMAP
00000000
00000020
30000070
3FFFFFF8
30000000
30380000
30300000
30600040
306000E0
30FFFFF0
3080C000
3100C000
3300C000
3600C000
3400C020
3000C070
33FFFFF8
30018000
30013000
30030C00
30060700
300C0380
301801C0
303000E0
30C00060
33000000
30000010
30000038
3FFFFFFC
30000000
00000000
00000000
ENDCHAR

STARTCHAR A4E7
ENCODING 42215
SWIDTH 960 0
DWIDTH 32 0
BBX 32 32 0 -8
BITMAP
00000000
00700000
00601818
00601FFC
00601818
00621818
00631818
3FFF9818
00601818
00601818
00601818
00601818
00601818
00611818
00619818
7FFFD818
01C01818
01801818
01901818
03081818
02041818
06061818
04021818
08031918
100F98F8
3FF99830
3C019800
10001800
00001800
00001800
00001800
00000000
ENDCHAR

STARTCHAR A4E8
ENCODING 42216
SWIDTH 960 0
DWIDTH 32 0
BBX 32 32 0 -8
BITMAP
00000000
00000008
0400001C
07FFFFFE
06000000
06000000
06018000
06006000
06003000
06003800
06001810
06000038
067FFFFC
06000000
06000000
061000E0
06080080
060C0080
04040180
04060180
04020100
04030300
08030200
08010200
08010400
10000400
10000808
2100081C
20FFFFFE
40000000
00000000
00000000
ENDCHAR

STARTCHAR A4E9
ENCODING 42217
SWIDTH 960 0
DWIDTH 32 0
BBX 32 32 0 -8
BITMAP
00000000
00000008
0C00000C
0FFFFFFE
0C000000
0C003800
0C003000
0C003000
0C003008
0C00300C
0DFFFFFE
0C003000
0C003000
0C003000
0C003000
0C003000
0C303030
0C3FFFF8
0C300030
0C300030
0C300030
0C300030
18300030
18300030
18300030
10300030
103FFFF0
20300030
20300030
40000000
40000000
00000000
ENDCHAR

STARTCHAR A4EA
ENCODING 42218
SWIDTH 960 0
DWIDTH 32 0
BBX 32 32 0 -8
BITMAP
00000000
00000008
0800000C
0FFFFFFE
0C000000
0C000000
0C200010
0C3FFFF8
0C30301C
0C303018
0C303018
0C303018
0C303018
0C3FFFF8
0C303018
0C303018
0C303018
0C303018
0C303018
0C3FFFF8
0C203018
0C003000
08003000
08003000
18003000
10003000
10003000
20003000
20003000
40003000
00002000
00000000
ENDCHAR

STARTCHAR A4EB
ENCODING 42219
SWIDTH 960 0
DWIDTH 32 0
BBX 32 32 0 -8
BITMAP
00000000
00000000
00003000
00000800
00000C00
30300610
3FF80238
3037FFFC
30306000
30306000
30306000
30306000
30306000
30306030
30307FF8
30306030
30306030
30306030
3030C030
3030C030
3FF08030
30308030
30018030
00010060
00030060
00020060
00040060
000810C0
00080FC0
00100380
00000000
00000000
ENDCHAR

STARTCHAR A4EC
ENCODING 42220
SWIDTH 960 0
DWIDTH 32 0
BBX 32 32 0 -8
BITMAP
00000000
00000800
00000E00
00000C00
00000C00
20600C10
3FF00C38
3067FFFC
30600C00
30600C00
30600C00
30600C00
30600C20
30600C70
3063FFF8
30600C00
30600C00
30600C00
30600C00
30600C10
3FE00C38
306FFFFC
30600C00
20000C00
00000C00
00000C00
00000C00
00000C00
00000C00
00000C00
00000800
00000000
ENDCHAR

STARTCHAR A4ED
ENCODING 42221
SWIDTH 960 0
DWIDTH 32 0
BBX 32 32 0 -8
BITMAP
00000000
00000000
00000020
00000070
0007FFF8
20600000
3FF00000
30600000
30600000
30600000
30600000
30600000
30600008
3060001C
306FFFFE
30602000
30602000
30606000
30604100
30604080
3FE0C0C0
30608040
30610020
30610020
20020030
00040070
00081F98
000FF818
00070018
00040008
00000000
00000000
ENDCHAR

STARTCHAR A4EE
ENCODING 42222
SWIDTH 960 0
DWIDTH 32 0
BBX 32 32 0 -8
BITMAP
00000000
00000800
00000E00
00000C00
40000C00
60600C00
7FE00C00
60600C18
606FFFFC
60601C00
60601C00
60601E00
60603E00
60603D00
60602D00
60606D00
60606D00
6060CC80
60608CC0
60618C40
7FE10C60
60620C30
60640C38
60080C1C
00100C0C
00200C08
00000C00
00000C00
00000C00
00000C00
00000800
00000000
ENDCHAR

STARTCHAR A4EF
ENCODING 42223
SWIDTH 960 0
DWIDTH 32 0
BBX 32 32 0 -8
BITMAP
00000000
00000000
00003A00
00003100
00003080
306030C0
3FF03050
30603018
306FFFFC
30603000
30603000
30603000
30603000
30606700
30606600
30606600
30606600
30606600
3060C600
3060C600
3FE08600
30618600
30610608
30030608
00020608
00040608
00080608
0008060C
001007FE
002003FC
00000000
00000000
ENDCHAR

STARTCHAR A4F0
ENCODING 42224
SWIDTH 960 0
DWIDTH 32 0
BBX 32 32 0 -8
BITMAP
00000000
00000000
00018180
0001FFC0
00018180
30C18180
3FE18180
30C18180
30C18180
30C18180
30C301FC
30C200FE
30C20000
30C40060
30CBFFF0
30C08060
30C080C0
30C080C0
30C04180
30C04180
3FC02300
30C03200
30C01600
30000C00
00001E00
00003700
000061C0
00008070
0003003E
000C0018
00100000
00000000
ENDCHAR

STARTCHAR A4F1
ENCODING 42225
SWIDTH 960 0
DWIDTH 32 0
BBX 32 32 0 -8
BITMAP
00000000
00000000
00008100
00007100
4000C100
6040C100
7FC0C080
60E08080
60C18080
60C100C0
60C10040
60C20060
60C21830
60C41E38
60C8181C
60C8301C
60D03008
60C06000
60C06100
60C04080
60C080C0
7FC18040
60C10060
60C20020
60020030
000407F0
000FFC18
000F8018
00040018
00040000
00000000
00000000
ENDCHAR

STARTCHAR A4F2
ENCODING 42226
SWIDTH 960 0
DWIDTH 32 0
BBX 32 32 0 -8
BITMAP
00000000
00020000
00020000
00020000
00020000
10010010
1FFFFFF8
18018030
18038030
18034030
18066030
180C3830
18181C30
18300F30
184003F0
19C005B0
1A7FFE30
18600C30
18600C30
18600C30
18600C30
18600C30
18600C30
18600C30
187FFC30
18600C30
18600C30
18400030
18000730
180000F0
18000060
00000000
ENDCHAR

STARTCHAR A4F3
ENCODING 42227
SWIDTH 960 0
DWIDTH 32 0
BBX 32 32 0 -8
BITMAP
00000000
00000000
10000300
0FFFFF80
00600600
00600600
00400C08
00C00FFE
0180180C
01000008
03000018
06000018
08010730
3001C0E0
400180C8
0001800C
7FFFFFFE
00018000
00018000
00018000
02018060
03FFFFE0
030000C0
030000C0
030000C0
030000C0
030000C0
030000C0
03FFFFC0
03000000
00000000
00000000
ENDCHAR

STARTCHAR A4F4
ENCODING 42228
SWIDTH 960 0
DWIDTH 32 0
BBX 32 32 0 -8
BITMAP
00000000
00000180
000001C0
00000180
40C10180
7FE0C180
60C07180
60C03180
60C01180
60C00180
60C00180
60C20180
60C10180
60C18180
60C0C180
60C0C198
60C0419C
60C001E0
60C00F80
60C07180
7FC78180
60D80180
60C00180
60000180
00000180
00000180
00000180
00000180
00000180
00000180
00000180
00000000
ENDCHAR

STARTCHAR A4F5
ENCODING 42229
SWIDTH 960 0
DWIDTH 32 0
BBX 32 32 0 -8
BITMAP
00000000
00000000
00003000
00000E00
00000700
20600380
3FF00100
30600000
30602000
30603800
30603000
30603000
30613000
30613020
30613010
30633010
30623018
30623008
3066300C
306E300C
306C300C
3FE83008
30603040
30403040
30003040
00003040
00003040
000030C0
00003FE0
00001FC0
00000000
00000000
ENDCHAR

STARTCHAR A4F6
ENCODING 42230
SWIDTH 960 0
DWIDTH 32 0
BBX 32 32 0 -8
BITMAP
00000000
00000000
00000060
0007FFF0
60C06060
7FE06060
60C06060
60C06060
60C06068
60C0606C
60DFFFFE
60C06060
60C06060
60C06060
60C0C060
60C0C060
60C0C060
60CFFFE0
60C0C060
7FC18000
60C10000
60C30000
60030000
60020000
00060000
000C0000
00080000
00100000
00200000
00400000
00000000
00000000
ENDCHAR

STARTCHAR A4F7
ENCODING 42231
SWIDTH 960 0
DWIDTH 32 0
BBX 32 32 0 -8
BITMAP
00000000
0000001C
00000618
000FFF18
00000618
30C00618
3FE00618
30C00618
30C00618
30C60618
30C7FE18
30C60618
30C60018
30C60018
30C60018
30C60018
30CC0618
30CFFF18
30CC0618
30C00618
3FC00618
30C00618
30C00618
30000618
00000618
00000C18
00000C18
00041C18
0003F818
00007018
00000018
00000000
ENDCHAR

STARTCHAR A4F8
ENCODING 42232
SWIDTH 960 0
DWIDTH 32 0
BBX 32 32 0 -8
BITMAP
00000000
00000E00
00000C00
00000C00
00000C00
30600C20
3FF00C30
3067FFF8
30600C00
30600C00
30600C00
30600C00
30600C00
30600C10
30600C18
307FFFFC
30601C00
30601C00
30601A00
30601200
3FE03200
30602300
30606180
3000C180
000080C0
000180E0
00030070
00060038
000C001E
00100008
00200000
00000000
ENDCHAR

STARTCHAR A4F9
ENCODING 42233
SWIDTH 960 0
DWIDTH 32 0
BBX 32 32 0 -8
BITMAP
00000000
00000000
000E0E00
000C0C00
000C0C00
30CC0C10
3FEC0C1C
30CC0C18
30CC0C30
30CC6C20
30CFFC60
30CC0CC0
30CC0D80
30CC0F00
30CC0C00
30CC0C00
30CC0C00
30CC0C00
30CC0C00
30CC0C00
3FCC0C00
30CC0C08
30CC0C08
300C0C08
000C0C08
000C1C08
000CEC08
000F0C0C
001C0FFE
000C07FC
00000000
00000000
ENDCHAR

STARTCHAR A4FA
ENCODING 42234
SWIDTH 960 0
DWIDTH 32 0
BBX 32 32 0 -8
BITMAP
00000000
00000000
00074110
000641DC
20064118
3FC64118
30E62318
30C62318
30C62318
30C62218
30C61618
30C61618
30C61C18
30C60C18
30C60C18
30C60C18
30C61618
30C63318
30C62398
30C641D8
3FC68098
30C70018
30C60018
30060018
00060018
00060018
0007FFF8
00060018
00060018
00060018
00000000
00000000
ENDCHAR

STARTCHAR A4FB
ENCODING 42235
SWIDTH 960 0
DWIDTH 32 0
BBX 32 32 0 -8
BITMAP
00000000
00000000
030000C0
03FFFFE0
030000C0
030000C0
030000C0
030000C0
03FFFFC0
030000C0
00000000
00000040
00000060
07FFFFF0
00018000
00018000
00018000
00018008
0001800C
7FFFFFFE
00024000
00062000
000C2000
00181800
00300C00
00600700
00C001C0
018000F0
0600003E
78000008
00000000
00000000
ENDCHAR

STARTCHAR A4FC
ENCODING 42236
SWIDTH 960 0
DWIDTH 32 0
BBX 32 32 0 -8
BITMAP
00000000
00000000
020000C0
03FFFFE0
030000C0
030000C0
030000C0
030000C0
030000C0
03FFFFC0
031800C0
03300000
00300000
00600080
007FFFC0
00C001C0
00000180
00000300
00000308
0000061C
7FFFFFFE
00000000
003C2000
00301800
00600600
00C00380
018001C0
030000E0
06000060
18000020
00000000
00000000
ENDCHAR

STARTCHAR A4FD
ENCODING 42237
SWIDTH 960 0
DWIDTH 32 0
BBX 32 32 0 -8
BITMAP
00000000
00000000
00000E00
00000C00
00000C00
20600C00
3FF20C18
3063FFFC
30630C18
30630C18
30630C18
30630C18
30630C18
30630A18
30631A18
30631118
30631198
306320D8
306320D8
306340D8
3FE38018
30630018
30630018
20030018
00030018
00030018
00030018
00030018
000301F8
00030070
00000000
00000000
ENDCHAR

STARTCHAR A4FE
ENCODING 42238
SWIDTH 960 0
DWIDTH 32 0
BBX 32 32 0 -8
BITMAP
00000000
00040000
00030000
0000C000
041C6000
04182040
04180020
08180210
08180218
1818020C
3818020C
30180204
00180300
001FFF80
000FFF00
00000000
00000000
060000C0
07FFFFE0
060000C0
060000C0
060000C0
060000C0
060000C0
060000C0
060000C0
060000C0
07FFFFC0
060000C0
060000C0
00000000
00000000
ENDCHAR

STARTCHAR A5A1
ENCODING 42401
SWIDTH 960 0
DWIDTH 32 0
BBX 32 32 0 -8
BITMAP
00000000
0001C000
03818000
03018000
03018040
060180E0
07FFFFF0
0C018000
18018000
10018000
20018000
40018008
0001801C
3FFFFFFE
00018000
00018000
00018000
00018000
02018040
03FFFFE0
030000C0
030000C0
030000C0
030000C0
030000C0
030000C0
030000C0
030000C0
03FFFFC0
030000C0
02000000
00000000
ENDCHAR

STARTCHAR A5A2
ENCODING 42402
SWIDTH 960 0
DWIDTH 32 0
BBX 32 32 0 -8
BITMAP
00000000
00000000
00000300
00001FC0
0000F800
00FF8000
07030000
00060000
00060000
00060000
000C0030
3FFFFFF8
00181000
00301000
00600800
00400400
01800300
03000180
07FFFFE0
0B0003FE
3300031C
43000308
03000300
03000300
03000300
03000300
03000300
03000300
03FFFF00
03000300
02000200
00000000
ENDCHAR

STARTCHAR A5A3
ENCODING 42403
SWIDTH 960 0
DWIDTH 32 0
BBX 32 32 0 -8
BITMAP
00000000
00008000
0000E000
0000C000
0000C000
20608010
3FF18038
3061FFFC
30610060
30630060
30630040
306700C0
306480C0
306880C0
30688080
30704180
30604180
30606300
30602300
30603600
3FE01E00
30600C00
30600C00
30001600
00002380
000041C0
000080E0
00010078
0006001C
00080008
00300000
00000000
ENDCHAR

STARTCHAR A5A4
ENCODING 42404
SWIDTH 960 0
DWIDTH 32 0
BBX 32 32 0 -8
BITMAP
00000000
000000C0
000007F0
0300FE00
03FF0000
03000000
03000018
03FFFFFC
03000018
03000018
03000018
03000018
03000018
03FFFFF8
03000018
03000000
03000000
03300060
033FFFF0
03300060
03300060
06300060
06300060
06300060
06300060
0C300060
0C300060
083FFFE0
10300060
10300000
60000000
00000000
ENDCHAR

STARTCHAR A5A5
ENCODING 42405
SWIDTH 960 0
DWIDTH 32 0
BBX 32 32 0 -8
BITMAP
00000000
00000000
00000010
00000018
0007FFFC
00003000
60603000
7FF03000
60603000
60603000
60603000
60603000
60603060
6067FFF0
60606060
60606060
60606060
60606060
60606060
60606060
60606060
7FE0C060
6060C060
6060C060
0000C060
0000C060
00018060
00018068
0001806C
001FFFFE
00000000
00000000
ENDCHAR

STARTCHAR A5A6
ENCODING 42406
SWIDTH 960 0
DWIDTH 32 0
BBX 32 32 0 -8
BITMAP
00000000
00000000
18000030
1FFFFFF8
18000030
18000030
18000830
18000C30
18FFFE30
18000030
18000030
18000030
18000230
18000330
1BFFFFB0
18060030
180C2030
18081030
18181030
18100830
18200C30
18407E30
18FFC630
18780630
18400230
18000030
18000030
18000030
1FFFFFF0
18000030
00000000
00000000
ENDCHAR

STARTCHAR A5A7
ENCODING 42407
SWIDTH 960 0
DWIDTH 32 0
BBX 32 32 0 -8
BITMAP
00000000
20000000
30000010
3FFFFFF8
30000030
30181830
301C1C30
30181830
30181830
301819B0
33FFFFF0
30181830
30181830
30181830
30181830
30181830
301819B0
37FFFFF0
30101830
30101830
30301830
30201830
30601830
30401830
30801830
31001830
30000030
3FFFFFF0
30000030
30000030
00000000
00000000
ENDCHAR

STARTCHAR A5A8
ENCODING 42408
SWIDTH 960 0
DWIDTH 32 0
BBX 32 32 0 -8
BITMAP
00000000
30000030
3FFFFFF8
30000030
30000030
30010030
3118C230
310C63B0
30866330
30862630
30430630
30420C30
30200C30
30301830
30101830
30083030
300C6030
3006C030
30038030
3003C030
3006F030
300C3830
30301F30
30C007F0
33000130
34000030
30000030
3FFFFFF0
30000030
30000030
30000030
00000000
ENDCHAR

STARTCHAR A5A9
ENCODING 42409
SWIDTH 960 0
DWIDTH 32 0
BBX 32 32 0 -8
BITMAP
00000000
30000030
3FFFFFF8
30000030
30000030
30000230
30000330
33FFFFB0
30030030
30030030
30030030
30030030
30030030
30030830
30030C30
30FFFE30
30030030
30030030
30030030
30030030
30030030
30030230
30030330
33FFFFB0
30000030
30000030
30000030
3FFFFFF0
30000030
30000030
00000000
00000000
ENDCHAR

STARTCHAR A5AA
ENCODING 42410
SWIDTH 960 0
DWIDTH 32 0
BBX 32 32 0 -8
BITMAP
00000000
00000000
30000030
3FFFFFF8
30000030
30000030
30000430
31FFFE30
30000030
30000030
30000030
30000030
30000230
33FFFF30
30186030
30186030
30186030
30186230
30186230
30306230
30306230
30606230
30406330
30807FB0
33003F30
30000030
30000030
3FFFFFF0
30000030
30000030
30000000
00000000
ENDCHAR

STARTCHAR A5AB
ENCODING 42411
SWIDTH 960 0
DWIDTH 32 0
BBX 32 32 0 -8
BITMAP
00000000
00000000
18000030
1FFFFFF8
18301830
18301830
18301830
18301830
18301830
18301830
183FF830
18301830
18301830
18301830
18301830
18301830
18301830
18301830
18301830
18301830
183FF830
18301830
18301830
18301830
18301830
18301830
18301830
1FFFFFF0
18000030
18000030
00000000
00000000
ENDCHAR

STARTCHAR A5AC
ENCODING 42412
SWIDTH 960 0
DWIDTH 32 0
BBX 32 32 0 -8
BITMAP
00000000
00000000
18000030
1FFFFFF8
18000030
18000030
1801C030
18018030
18018030
18018430
18318730
19F98C30
18319830
1831B030
1831D030
18319030
18218830
18618830
18418C30
18818630
190183B0
1A018130
1C118030
180F8030
18030030
18000030
18000030
18000030
1FFFFFF0
18000030
18000030
00000000
ENDCHAR

STARTCHAR A5AD
ENCODING 42413
SWIDTH 960 0
DWIDTH 32 0
BBX 32 32 0 -8
BITMAP
00000000
00000000
0381000C
0301FFFE
0301000C
0303000C
03030018
03060010
03260000
0330E1C0
7FF8C180
0300C180
0300C180
0300C180
0300C180
0300C180
0300C180
0300C180
0300C180
0300C180
0330C180
03C0C180
1F018188
7C018188
20010188
20030188
0002018C
000601FE
000400FC
00180000
00000000
00000000
ENDCHAR

STARTCHAR A5AE
ENCODING 42414
SWIDTH 960 0
DWIDTH 32 0
BBX 32 32 0 -8
BITMAP
00000000
00000000
03800060
0301FFF0
03000070
030000C0
03004180
03003100
03101A00
43300C00
3FF80600
03000600
03080008
0307FFFC
03000C1E
03000C10
03000C30
03000C20
03000C20
03000C40
03100C00
03E00C00
1F000C00
3C000C00
30000C00
10000C00
00000C00
00000C00
0001FC00
00003800
00000000
00000000
ENDCHAR

STARTCHAR A5AF
ENCODING 42415
SWIDTH 960 0
DWIDTH 32 0
BBX 32 32 0 -8
BITMAP
00000000
00000000
0380C0C0
0300FFE0
0300C0C0
0300C0C0
0300C0C0
0300C0C0
0320C0C0
033180C0
7FF980FC
0301007E
03060000
03000060
0303FFF0
03008060
030080C0
030040C0
030040C0
03004180
03302180
03C02300
0E001600
78001C00
20000C00
20001E00
00006380
0000C1F0
0003007E
000C001C
00000000
00000000
ENDCHAR

STARTCHAR A5B0
ENCODING 42416
SWIDTH 960 0
DWIDTH 32 0
BBX 32 32 0 -8
BITMAP
00000000
00000E00
07000C00
06001C00
06001C00
06003200
06003100
06006180
0640C0C0
06618060
7FF10038
0602001E
060C70C4
061060E0
060060C0
060060C0
060060C0
060060C0
060060C0
061060C0
062060C0
07C060C0
1F0060C0
7800C0C0
2000C0C0
200080C0
000180C0
000100C0
000200C0
000400C0
00000000
00000000
ENDCHAR

STARTCHAR A5B1
ENCODING 42417
SWIDTH 960 0
DWIDTH 32 0
BBX 32 32 0 -8
BITMAP
00000000
00000000
00000000
02000040
03FFFFE0
03000060
03000060
03000060
03000060
03FFFFE0
03000060
03000060
03000060
03FFFFE0
03000060
03000060
0001C000
00018000
00018020
00018030
1FFFFFF8
00018000
00018000
00018000
00018000
00018000
00018000
00018008
7FFFFFFE
00000000
00000000
00000000
ENDCHAR

STARTCHAR A5B2
ENCODING 42418
SWIDTH 960 0
DWIDTH 32 0
BBX 32 32 0 -8
BITMAP
00000000
00000000
001C0700
00180600
00180640
00180660
0FFFFFF0
00180600
00180600
00180600
00300610
00300618
7FFFFFFC
00200600
00600600
00400600
00800600
0301C600
04018000
00018000
00018020
00018030
1FFFFFF8
00018000
00018000
00018000
00018000
00018008
0001800C
7FFFFFFE
00000000
00000000
ENDCHAR

STARTCHAR A5B3
ENCODING 42419
SWIDTH 960 0
DWIDTH 32 0
BBX 32 32 0 -8
BITMAP
00000000
00000000
00000080
000000C0
0FFFFFE0
00000000
00000000
00000010
00000018
7FFFFFFC
00300C00
00300C00
00300C08
00600C08
00600C08
00C00C0C
01800FFE
0301C7FC
0C018000
30018040
00018060
0FFFFFF0
00018000
00018000
00018000
00018000
00018000
00018008
0001800C
7FFFFFFE
00000000
00000000
ENDCHAR

STARTCHAR A5B4
ENCODING 42420
SWIDTH 960 0
DWIDTH 32 0
BBX 32 32 0 -8
BITMAP
00000000
00000000
038000E0
030000C0
030080C0
030060C0
030030C0
030018C0
030008C0
033000C0
7FF800C0
030100C0
030080C0
0300C0C0
030060C0
030060DC
030020DE
030000E0
030003C0
03001CC0
0330E0C0
03C700C0
0F0000C0
3C0000C0
300000C0
100000C0
000000C0
000000C0
000000C0
000000C0
00000000
00000000
ENDCHAR

STARTCHAR A5B5
ENCODING 42421
SWIDTH 960 0
DWIDTH 32 0
BBX 32 32 0 -8
BITMAP
00000000
00004000
03803000
03000800
03000C00
03000600
03000418
030FFFFE
03208060
03308060
7FF88040
030080C0
030040C0
030040C0
03006080
03002180
03002180
03001100
03001B00
03000B00
03100E00
03E00E00
07800F00
7C001B80
300031C0
200060E0
0000C078
0001003C
0002001E
000C0004
00100000
00000000
ENDCHAR

STARTCHAR A5B6
ENCODING 42422
SWIDTH 960 0
DWIDTH 32 0
BBX 32 32 0 -8
BITMAP
00000000
00000020
03800030
0303FFF8
03000000
03000000
03000000
03000000
03200000
03300000
7FF80008
0300000C
030FFFFE
03006180
03006180
03006180
03006180
03006180
03006180
0300C180
0330C180
03C0C180
1F008188
7C018188
20018188
20010188
00030188
0006018C
000401FE
000800FC
00100000
00000000
ENDCHAR

STARTCHAR A5B7
ENCODING 42423
SWIDTH 960 0
DWIDTH 32 0
BBX 32 32 0 -8
BITMAP
00000000
00000000
00000010
03800018
0307FFFC
03003000
03003000
03003000
03006000
03206000
03306030
7FF87FF8
03006030
0300C030
0300C030
0300C060
0300C060
03018060
03018060
03018060
030300C0
033300C0
03C3FFC0
0F0300C0
3C0000C0
30000180
10000180
00000188
0000018C
000FFFFE
00000000
00000000
ENDCHAR

STARTCHAR A5B8
ENCODING 42424
SWIDTH 960 0
DWIDTH 32 0
BBX 32 32 0 -8
BITMAP
00000000
00001C00
03801800
03001800
03001800
03001800
03001860
0303FFF0
03001860
03201860
03301860
3FF81860
03001860
03001860
03001860
03001868
0300186C
030FFFFE
03003000
03003000
03103000
03606400
07806200
7E00C100
3000C0C0
20018060
00030030
00060018
000C0018
00100018
00200000
00000000
ENDCHAR

STARTCHAR A5B9
ENCODING 42425
SWIDTH 960 0
DWIDTH 32 0
BBX 32 32 0 -8
BITMAP
00000000
00000000
07070700
06060600
06060600
06060600
06060608
0606061C
06464638
06666660
7FF7F6C0
06060700
06060600
06060600
06060600
06060600
06060600
06060600
06060600
06060600
06160600
06660600
07860600
7C060608
30060608
20061608
00066608
0007860C
000E07FE
000803FC
00000000
00000000
ENDCHAR

STARTCHAR A5BA
ENCODING 42426
SWIDTH 960 0
DWIDTH 32 0
BBX 32 32 0 -8
BITMAP
00000000
00000000
03800060
030001F0
03000780
03001E00
0300F800
03071800
03001800
03401820
03601830
7FF01878
03007F80
03079800
03001800
03001800
03001808
0300180C
030018FE
0300FF00
031F1800
03601800
03801800
0E001808
78001808
30001808
20001808
0000180C
00001FFE
00000FFC
00000000
00000000
ENDCHAR

STARTCHAR A5BB
ENCODING 42427
SWIDTH 960 0
DWIDTH 32 0
BBX 32 32 0 -8
BITMAP
00000000
03804000
03007000
03006000
0300C008
0300C00C
0300FFFE
03018000
03218000
03311C00
7FFA1800
03021800
03041800
03081818
0303FFFC
03001818
03001818
03001818
03001818
03083018
03303018
03C03018
0F006018
7C006018
3000C030
20008030
00018030
00030470
000403E0
000800C0
00100000
00000000
ENDCHAR

STARTCHAR A5BC
ENCODING 42428
SWIDTH 960 0
DWIDTH 32 0
BBX 32 32 0 -8
BITMAP
00000000
00008000
03807000
03006000
03004000
0300C000
0300C008
0300801C
0311FFFC
03310020
7FFB8060
03028060
03048060
03044040
030840C0
030040C0
03002180
03002180
03003100
03001300
03101A00
03600E00
07800E00
7E001F00
30003380
200061C0
0000C0E0
00018070
0002003C
000C001E
00000000
00000000
ENDCHAR

STARTCHAR A5BD
ENCODING 42429
SWIDTH 960 0
DWIDTH 32 0
BBX 32 32 0 -8
BITMAP
00000000
00008000
0380E000
0300C000
0300C000
03018000
0301800C
0301FFFE
0321000C
0333000C
3FFA000C
0302100C
0304380C
0308300C
0300200C
0300600C
0300480C
0300C40C
0300820C
0301030C
031A3D0C
0367E18C
0783018C
3E020098
38000018
10000018
00000018
00000418
000003F0
000000E0
00000040
00000000
ENDCHAR

STARTCHAR A5BE
ENCODING 42430
SWIDTH 960 0
DWIDTH 32 0
BBX 32 32 0 -8
BITMAP
00000000
00004000
0380E000
0300C000
0300C000
0300C000
0301800C
0301FFFE
0301998C
0321198C
3FF2318C
0302318C
0304330C
0308630C
0300630C
0300C30C
0300C60C
0300860C
0301060C
03020C0C
03040C0C
0310180C
03E03018
7E002018
38004018
2000C018
00018018
00020438
000403F0
000000E0
00000040
00000000
ENDCHAR

STARTCHAR A5BF
ENCODING 42431
SWIDTH 960 0
DWIDTH 32 0
BBX 32 32 0 -8
BITMAP
00000000
00000000
07018000
0601C000
0603000C
06033FFE
0603000C
0606000C
0606200C
0644300C
7FE4380C
060C600C
0618600C
061C400C
060EC00C
0603C00C
0600800C
0601800C
0601000C
0602000C
0622200C
07C4300C
1F04100C
7808180C
200FFC0C
201E0C0C
0008000C
0000021C
000001F8
00000070
00000000
00000000
ENDCHAR

STARTCHAR A5C0
ENCODING 42432
SWIDTH 960 0
DWIDTH 32 0
BBX 32 32 0 -8
BITMAP
00000000
00000010
03800078
030003E0
03001F80
0303F000
03030000
03030000
03230000
03330000
7FFB0000
03030030
0303FFF8
03034030
03034020
03032060
03032060
030330C0
030310C0
03031980
03130980
03E60F00
07860600
7C040700
300C0B80
200811C0
000820E0
0010C070
00210038
0046001E
00000008
00000000
ENDCHAR

STARTCHAR A5C1
ENCODING 42433
SWIDTH 960 0
DWIDTH 32 0
BBX 32 32 0 -8
BITMAP
00000000
00000000
00010000
0001C000
00218030
207180F8
1FF181C0
00618700
00619800
0041E800
00C18800
00818400
01818200
03018100
020180C0
041F8070
0807003E
30020018
0001C000
00018080
080180C0
07FFFFE0
00018000
00018000
00018000
00018000
00018000
00018010
40018038
3FFFFFFC
00000000
00000000
ENDCHAR

STARTCHAR A5C2
ENCODING 42434
SWIDTH 960 0
DWIDTH 32 0
BBX 32 32 0 -8
BITMAP
00000000
00000000
00000080
00001FC0
0107FE20
01FF8200
01018200
03018200
03018200
03018100
03018100
03018180
020180C0
060180C0
04018060
04018030
08000038
1001001C
2001C000
00018000
00018040
000180C0
07FFFFE0
00018000
00018000
00018000
00018000
00018008
0001801C
3FFFFFFE
00000000
00000000
ENDCHAR

STARTCHAR A5C3
ENCODING 42435
SWIDTH 960 0
DWIDTH 32 0
BBX 32 32 0 -8
BITMAP
00000000
00000000
00018000
0001C010
00018038
3FFFFFFC
00018000
00018000
00018000
00018180
07FFFFC0
00000000
00000000
08000000
08000018
0FFFFFFC
0800001C
18400020
30700240
30600700
00601F80
00607800
0067C000
00780010
00600010
00600010
00600010
00600038
007FFFF8
003FFFF0
00000000
00000000
ENDCHAR

STARTCHAR A5C4
ENCODING 42436
SWIDTH 960 0
DWIDTH 32 0
BBX 32 32 0 -8
BITMAP
00000000
00010000
0001C000
00018008
0001801C
3FFFFFFE
00018000
00018000
00018000
000180C0
07FFFFE0
00000000
00000000
08000000
08000018
0FFFFFFC
18000038
10201020
30381C40
30301800
00301800
00201800
00601804
00401808
00C01808
00801808
01801808
0300180C
04001FFC
08000FF8
30000000
00000000
ENDCHAR

STARTCHAR A5C5
ENCODING 42437
SWIDTH 960 0
DWIDTH 32 0
BBX 32 32 0 -8
BITMAP
00000000
00010000
0001C010
00018038
3FFFFFFC
00018000
00018000
00018040
040180E0
03FFFFF0
00000000
00000000
04000030
07FFFFF8
06018030
06018030
06018030
06018030
06018030
07FFFFF0
06000030
06000020
04000000
04000000
0C000000
0C000000
08000000
10000000
10000000
20000000
40000000
00000000
ENDCHAR

STARTCHAR A5C6
ENCODING 42438
SWIDTH 960 0
DWIDTH 32 0
BBX 32 32 0 -8
BITMAP
00000000
00040000
000F0000
000C0000
00180000
00603000
00C00C00
01000700
0603F980
1FFE30E0
0F183060
08303000
00603000
00D03000
03BC3FF0
3C301FC0
00600100
007FFF80
00C001C0
01A00300
03200600
06100C00
0C081C00
10043000
00026000
0001C000
0003E000
000C3C00
00700FC0
038003FC
0C000018
00000000
ENDCHAR

STARTCHAR A5C7
ENCODING 42439
SWIDTH 960 0
DWIDTH 32 0
BBX 32 32 0 -8
BITMAP
00000000
00000000
0001C000
00018020
00018030
1FFFFFF8
00018000
00018080
040181C0
03FFFFE0
00018000
00018008
0001801C
3FFFFFFE
00180000
001C0000
00300000
00600080
00FFFFC0
00C00180
01200300
02100600
04081C00
18063800
00037000
0001C000
00037800
001C1F80
00F007F8
07000070
18000000
00000000
ENDCHAR

STARTCHAR A5C8
ENCODING 42440
SWIDTH 960 0
DWIDTH 32 0
BBX 32 32 0 -8
BITMAP
00000000
00080000
000E0000
00080000
10100000
18200060
1FFFFFF0
18000060
18040060
18070060
180C0060
180C0460
180FFE60
18180F60
18300C60
18201860
18481860
18843060
19023060
18036060
1803C060
18018060
18030060
18060060
180C0060
18100060
18E00060
18000060
1FFFFFE0
18000060
18000000
00000000
ENDCHAR

STARTCHAR A5C9
ENCODING 42441
SWIDTH 960 0
DWIDTH 32 0
BBX 32 32 0 -8
BITMAP
00000000
00010000
0001C000
00030000
00030010
00060038
3FFFFFFC
000C2000
00181000
00300800
00600400
00C00300
01800980
02801CE0
0C7FFE7C
30000018
00000000
00000000
00000040
000000E0
0FFFFFF0
000C0000
00180000
00301000
00200C00
00400600
00800780
0307F980
07F800C0
070000C0
02000000
00000000
ENDCHAR

STARTCHAR A5CA
ENCODING 42442
SWIDTH 960 0
DWIDTH 32 0
BBX 32 32 0 -8
BITMAP
00000000
00008000
0001C000
00018000
00030010
00060018
3FFFFFFC
000C2000
00181000
00300800
00600400
00C00700
01800380
020180F0
0C01C07E
30018038
00018030
1FFFFFF8
00018000
00018000
00119800
00398600
00618300
00C180C0
018180E0
03018070
06018038
08018018
30018018
40018000
00018000
00000000
ENDCHAR

STARTCHAR A5CB
ENCODING 42443
SWIDTH 960 0
DWIDTH 32 0
BBX 32 32 0 -8
BITMAP
00000000
00002000
01801800
03000C00
03000610
03000618
0307FFFC
06300000
7FF80000
06300000
06300000
063060C0
0C307FE0
0C3060C0
0C3060C0
182060C0
186060C0
186060C0
186060C0
1840C0C0
3EC0C0C0
01C0C0C0
00C0C0C0
016180C0
037180C8
023100C8
041100C8
080200CC
100200FE
2004007C
00080000
00000000
ENDCHAR

STARTCHAR A5CC
ENCODING 42444
SWIDTH 960 0
DWIDTH 32 0
BBX 32 32 0 -8
BITMAP
00000000
038070E0
030060C0
030060C0
030060C0
030060C0
060060D0
063060D8
7FFBFFFC
063060C0
063060C0
043060C0
0C3060C0
0C3060C0
0C3060C0
083060C0
186060C8
186060CC
1867FFFE
38C060C0
7EC0C0C0
0180C0C0
01C0C0C0
01E180C0
037180C0
023100C0
041300C0
080200C0
100400C0
200800C0
001000C0
00000000
ENDCHAR

STARTCHAR A5CD
ENCODING 42445
SWIDTH 960 0
DWIDTH 32 0
BBX 32 32 0 -8
BITMAP
00000000
01003800
01803100
030030C0
03003060
03003030
03003014
061BFFFE
7FFC3000
06183000
06183000
061831C0
0C183180
0C183180
0C303180
0C303180
18303180
18306180
18306180
3C606180
13604180
01C0C180
00E08188
00F18188
01318188
03190188
02120188
0406018C
080401FE
100800FC
20100000
00000000
ENDCHAR

STARTCHAR A5CE
ENCODING 42446
SWIDTH 960 0
DWIDTH 32 0
BBX 32 32 0 -8
BITMAP
00000000
03007000
03006000
06006000
06006000
06006060
0603FFF0
06306060
7FF86060
0C306060
0C306060
0C306060
0C306060
18306060
18306068
1860606C
186FFFFE
30606000
30606000
30C06800
7EC0C400
01808200
01C18300
01610180
037100C0
063200E0
04160060
08040030
10080030
20080010
40100000
00000000
ENDCHAR

STARTCHAR A5CF
ENCODING 42447
SWIDTH 960 0
DWIDTH 32 0
BBX 32 32 0 -8
BITMAP
00000000
00003000
01C03800
01806000
01806000
0300600C
03007FFE
0318C00C
3FFE800C
0618800C
0619000C
061A010C
0618018C
0C19FFCC
0C18000C
0C30000C
0C30000C
1830010C
1830018C
3C23FFCC
0360000C
00C0000C
00600018
00B00018
00B00018
01180018
02080018
04000438
040003F0
080000E0
10000000
00000000
ENDCHAR

STARTCHAR A5D0
ENCODING 42448
SWIDTH 960 0
DWIDTH 32 0
BBX 32 32 0 -8
BITMAP
00000000
02000000
038000C0
0303FFE0
030180C0
030180C0
060180C0
06198180
7FFD8180
06198180
06198180
0C198300
0C318330
0C31FFF8
0C31A030
1831A030
1821A030
18619030
10619060
3C631040
134308C0
01C30C80
00C20580
01E60700
01340700
02340D80
041818C0
08103070
10104038
2021801E
00020008
00000000
ENDCHAR

STARTCHAR A5D1
ENCODING 42449
SWIDTH 960 0
DWIDTH 32 0
BBX 32 32 0 -8
BITMAP
00000000
00000000
02000080
03FFFFE0
030000E0
030000C0
030000C0
030000C0
03FFFFC0
030000C0
030000C0
030000C0
030000C0
03FFFFC0
020600C0
000F0000
000C0008
0018001C
3FFFFFFE
00300C00
00601800
00C01800
01F03000
000FE000
0000F000
00039E00
00070780
003C01C0
01E000E0
1E000060
00000000
00000000
ENDCHAR

STARTCHAR A5D2
ENCODING 42450
SWIDTH 960 0
DWIDTH 32 0
BBX 32 32 0 -8
BITMAP
00000000
00000000
03810020
0301FFF0
03018060
02018060
02018060
06118060
7FFD8060
06318068
0631806C
0433FFFE
0C318060
0C318060
0C218060
08218060
18618060
18618068
1069806C
3847FFFA
34C18060
03818060
01818060
01C18060
03618060
06718060
04318060
08018060
100187E0
200180C0
00000000
00000000
ENDCHAR

STARTCHAR A5D3
ENCODING 42451
SWIDTH 960 0
DWIDTH 32 0
BBX 32 32 0 -8
BITMAP
00000000
0001C000
00018000
0E018038
0C018030
0C018030
0C018030
0FFFFFF0
0C018030
00018000
00018010
00018018
3FFFFFFC
00030000
00038000
00060010
000C0018
3FFFFFFC
00180600
00300C00
00600C00
00C01800
01F01800
000F3000
0001E000
0000FC00
00038F00
000E03C0
003801E0
0FC00060
00000000
00000000
ENDCHAR

STARTCHAR A5D4
ENCODING 42452
SWIDTH 960 0
DWIDTH 32 0
BBX 32 32 0 -8
BITMAP
00000000
00000000
01800000
03010018
0301FFFC
03010018
03030030
06330020
3FFA0040
06300000
0630C180
0630FFC0
0C30C180
0C30C180
0C30C180
0C60C180
0860C180
1860C180
1860C180
10C0C180
3EC0C180
11C0C180
00C0C188
01E0C188
01718188
02310188
04010188
0802018C
100201FE
200400FC
00080000
00000000
ENDCHAR

STARTCHAR A5D5
ENCODING 42453
SWIDTH 960 0
DWIDTH 32 0
BBX 32 32 0 -8
BITMAP
00000000
00000E00
01C00C00
01800C00
03000C00
03000C00
03008C08
06188C18
7FFCFFFC
06198C30
061B0C20
061B0C40
0C180C00
0C300C00
0C300F00
0C300E00
18301E00
18301E00
18601600
10603600
3EC03600
01C02600
00E06608
01F04608
0130C608
02118608
06110608
0C02060C
100407FE
201803FC
40200000
00000000
ENDCHAR

STARTCHAR A5D6
ENCODING 42454
SWIDTH 960 0
DWIDTH 32 0
BBX 32 32 0 -8
BITMAP
00000000
00000010
01800038
0187FFFC
03000C00
03000C00
03000C00
06180C00
7FFC0C00
06181C00
06181C00
06183C80
0C183C40
0C306C40
0C306C20
0C30CC10
08318C18
18210C1C
18620C0C
3C640C0C
12480C00
01C00C00
00C00C00
01E00C00
01300C00
02100C00
04100C00
0C000C00
08000C00
10000C00
00000000
00000000
ENDCHAR

STARTCHAR A5D7
ENCODING 42455
SWIDTH 960 0
DWIDTH 32 0
BBX 32 32 0 -8
BITMAP
00000000
00000000
01C00060
018001F0
03000780
03001C00
0301F000
06323000
7FF83000
06303020
06303030
0C3030F8
0C37FF00
0C303000
0C303000
18303000
18203008
1860300C
186033FE
18DFFC00
36C03000
01803000
01803000
01603008
01603008
02303008
04103008
0800300C
10003FFE
20001FFC
00000000
00000000
ENDCHAR

STARTCHAR A5D8
ENCODING 42456
SWIDTH 960 0
DWIDTH 32 0
BBX 32 32 0 -8
BITMAP
00000000
00040000
00030000
00018010
00018018
3FFFFFFC
00400E00
00201C00
00103800
000C7000
0006C000
0003C000
0006F000
00383F00
01E007F8
3E000670
01FFFF00
00000F00
00001800
00002000
0000C000
0001C018
3FFFFFFC
00018000
00018000
00018000
00018000
00018000
00318000
000F8000
00070000
00000000
ENDCHAR

STARTCHAR A5D9
ENCODING 42457
SWIDTH 960 0
DWIDTH 32 0
BBX 32 32 0 -8
BITMAP
00000000
00000000
00080000
00060000
00030000
08018000
08010010
0FFFFFFC
18000038
30060060
30030040
20018080
0FFFFF80
000001C0
00000300
00000700
00000E00
00001800
00003000
0000E000
00018000
00060000
000C0000
10300000
0CC00000
03800000
00700000
001FE01C
0001FFF8
000007F8
00000000
00000000
ENDCHAR

STARTCHAR A5DA
ENCODING 42458
SWIDTH 960 0
DWIDTH 32 0
BBX 32 32 0 -8
BITMAP
00000000
00000000
00060000
00030000
08018000
08008018
0FFFFFFC
0800001C
180C0030
30030060
30038040
00018000
00000020
00000070
1FFFFFF8
00000000
00000000
00000000
00380800
00700400
00600200
00C00300
00C00180
01800180
010000C0
020000C0
06000060
0C000060
08000060
30000020
00000000
00000000
ENDCHAR

STARTCHAR A5DB
ENCODING 42459
SWIDTH 960 0
DWIDTH 32 0
BBX 32 32 0 -8
BITMAP
00000000
00080000
00060000
00030000
00018000
08018008
0FFFFFFC
0800001C
18000030
30000060
30182040
003C2000
00301000
00601000
00C00800
00800400
01038700
02060380
040600E0
080C007C
300C4038
00183010
00301800
00600C00
00400600
00800E00
0301F300
07FE0180
07800180
04000080
00000000
00000000
ENDCHAR

STARTCHAR A5DC
ENCODING 42460
SWIDTH 960 0
DWIDTH 32 0
BBX 32 32 0 -8
BITMAP
00000000
00000000
04000070
03000060
01800060
00C00060
00420060
40030060
3FFF806C
080C7FFE
080C0060
080C0060
080C0060
04084060
04182060
04181060
06181860
02301860
02300C60
01200C60
01E00060
00E00060
00C00060
00E00060
01F00060
03380060
061C0060
0C0E0660
180701E0
200400C0
40000000
00000000
ENDCHAR

STARTCHAR A5DD
ENCODING 42461
SWIDTH 960 0
DWIDTH 32 0
BBX 32 32 0 -8
BITMAP
00000000
00040000
00070000
00060080
000C00C0
1FFFFFE0
000C0000
000C0000
000C0080
001800C0
03FFFFF0
00180000
00180000
00300008
0060000C
3FFFFFFE
00C00380
00C00300
01800308
0300030C
0FFFFFFE
04000300
08600300
101C0300
60070300
00030300
00010300
00004300
00003F00
00000E00
00000400
00000000
ENDCHAR

STARTCHAR A5DE
ENCODING 42462
SWIDTH 960 0
DWIDTH 32 0
BBX 32 32 0 -8
BITMAP
00000000
00000060
000003F8
02007F80
03FFC100
03018100
03018100
03018100
03018080
060180C0
06018060
04018070
0801803C
10018018
20018380
00000308
0000030C
7FFFFFFE
00000300
00000300
02000300
01C00300
00300300
001C0300
00070300
00030300
00010300
00000300
00003300
00000F00
00000600
00000000
ENDCHAR

STARTCHAR A5DF
ENCODING 42463
SWIDTH 960 0
DWIDTH 32 0
BBX 32 32 0 -8
BITMAP
00000000
00000000
00000008
0008000C
000CFFFC
7FFE0600
06180600
06180600
06180600
06180600
06180610
06180618
0618FFFC
06180600
06180600
06180600
06180600
06180600
06180608
0618060C
0C1BFFFE
0C180000
0C180008
18180008
18180008
18180008
1018000C
201FFFFE
200FFFFC
40000000
00000000
00000000
ENDCHAR

STARTCHAR A5E0
ENCODING 42464
SWIDTH 960 0
DWIDTH 32 0
BBX 32 32 0 -8
BITMAP
00000000
00000400
03800700
03000600
03000600
03020600
33330608
3B3BFFFC
33330618
33330618
33330618
33330618
33330618
33330618
33330618
33330618
33330618
33330618
3333FFF8
33330618
33300600
33300600
33300600
3FF00600
20100600
00100600
00000600
00000600
00000600
00000600
00000400
00000000
ENDCHAR

STARTCHAR A5E1
ENCODING 42465
SWIDTH 960 0
DWIDTH 32 0
BBX 32 32 0 -8
BITMAP
00000000
01C00000
01800000
01818018
0181FFFC
01818018
399D8018
31998018
31998018
31998018
31998018
3199FFF8
31998018
31998018
31998018
31998018
31998018
31998018
31998018
3199FFF8
31998018
31998018
31998018
3FF98018
30198018
00030018
00030018
00020218
000401F8
00040030
00080000
00000000
ENDCHAR

STARTCHAR A5E2
ENCODING 42466
SWIDTH 960 0
DWIDTH 32 0
BBX 32 32 0 -8
BITMAP
00000000
00000000
03802100
03003900
03002100
03006080
03006080
73384080
6330C040
63308060
63318020
63310030
63320018
633200CE
633DFFE0
633060C0
633060C0
633060C0
633060C0
633060C0
6330C0C0
6330C0C0
6330C0C0
7FF0C0C0
603180C0
600100C0
000300C0
000210C0
00040F80
00080300
00100000
00000000
ENDCHAR

STARTCHAR A5E3
ENCODING 42467
SWIDTH 960 0
DWIDTH 32 0
BBX 32 32 0 -8
BITMAP
00000000
00038000
00030000
0E0300E0
0C0300C0
0C0300C0
0C0300C0
0C0300C0
0FFFFFC0
0C0000C0
00000000
00000000
180000C0
1FFFFFE0
180300C0
180300C0
180300C0
180300C0
180300C0
180300C0
1FFFFFC0
180000C0
18000000
18000010
18000010
18000010
18000010
18000018
1FFFFFFC
0FFFFFF8
00000000
00000000
ENDCHAR

STARTCHAR A5E4
ENCODING 42468
SWIDTH 960 0
DWIDTH 32 0
BBX 32 32 0 -8
BITMAP
00000000
0001C000
00018000
07018070
06018060
06018060
06018060
06018060
07FFFFE0
06000060
00080000
00060000
00030000
00018010
00000018
3FFFFFFC
00400600
00200600
00200C00
00100C00
00101800
00083800
000C3000
00066000
0003C000
0003C000
000E7000
00383E00
00E00FC0
0F0001FE
30000000
00000000
ENDCHAR

STARTCHAR A5E5
ENCODING 42469
SWIDTH 960 0
DWIDTH 32 0
BBX 32 32 0 -8
BITMAP
00000000
03804000
03003000
03001800
03000C00
03000C00
73380408
6337FFFC
63308060
63308060
63308060
633040C0
633040C0
633040C0
633040C0
63302180
63302180
63303100
63301300
63301B00
63300E00
63300C00
63300E00
7FF01F00
60303380
000061C0
0000C0E0
00018070
0006003E
00080018
00100000
00000000
ENDCHAR

STARTCHAR A5E6
ENCODING 42470
SWIDTH 960 0
DWIDTH 32 0
BBX 32 32 0 -8
BITMAP
00000000
03800000
03000030
030001FC
03030F00
0303F000
03030000
733B0000
63330000
63330000
63330000
63330030
6333FFF8
63332030
63332030
63332060
63331060
63331040
633310C0
63330880
63330980
63330700
63360600
7FF60700
60360F80
600419C0
000830E0
00084070
00098038
0012001E
00040008
00000000
ENDCHAR

STARTCHAR A5E7
ENCODING 42471
SWIDTH 960 0
DWIDTH 32 0
BBX 32 32 0 -8
BITMAP
00000000
00000000
00000060
00003FF0
061FF000
07E00000
06000000
06000010
06000018
07FFFFFC
06000000
06000000
06000000
06300030
063FFFF8
06303030
06303030
06303030
06303030
06303030
063FFFF0
06300030
0C300000
0C300008
0C300008
08300008
08300008
1830000C
103FFFFE
201FFFFC
40000000
00000000
ENDCHAR

STARTCHAR A5E8
ENCODING 42472
SWIDTH 960 0
DWIDTH 32 0
BBX 32 32 0 -8
BITMAP
00000000
07000000
06003900
06003100
06003100
06006100
66306080
7FF84080
6630C040
66308060
66310030
66310038
6632001C
663400CE
6639FFE0
663060C0
663060C0
663060C0
663060C0
663060C0
6630C0C0
6630C0C0
66F0C0C0
662180C0
060180C0
060100C0
060210C0
06060FC0
06040780
06080100
06000000
00000000
ENDCHAR

STARTCHAR A5E9
ENCODING 42473
SWIDTH 960 0
DWIDTH 32 0
BBX 32 32 0 -8
BITMAP
00000000
07000800
06000E00
06000C00
06001C00
06001A00
66303200
7FF82100
66306180
663040C0
66308070
6631003E
66320018
6634E0E0
6630C0C0
6630C0C0
6630C0C0
6630C0C0
6630C0C0
6630C0C0
6630C0C0
6630C0C0
66F0C0C0
6620C0C0
060180C0
060180C0
060100C0
060200C0
060200C0
060400C0
06080000
00000000
ENDCHAR

STARTCHAR A5EA
ENCODING 42474
SWIDTH 960 0
DWIDTH 32 0
BBX 32 32 0 -8
BITMAP
00000000
0001C000
00018000
00018820
00018C70
03FFFEC0
00018180
00018300
00018608
00018C0C
3FFFFFFE
00002000
0000F000
0003B800
000E3000
00303000
00E03030
073FFFF8
38303030
40303030
00303030
00303030
00303030
00303030
00303230
003031F0
00303060
00303000
00003000
00003000
00003000
00000000
ENDCHAR

STARTCHAR A5EB
ENCODING 42475
SWIDTH 960 0
DWIDTH 32 0
BBX 32 32 0 -8
BITMAP
00000000
00000400
00003F00
1003F880
1FFE0000
18030000
18030000
180180C0
1FFFFFE0
1800C000
18006000
18007008
18003808
18601C10
1B800E10
3E0383D0
180301FC
10030038
10030040
1FFFFFE0
180300C0
180300C0
180300C0
180300C0
180300C0
18030EC0
180301C0
10030080
00030000
00030000
00020000
00000000
ENDCHAR

STARTCHAR A5EC
ENCODING 42476
SWIDTH 960 0
DWIDTH 32 0
BBX 32 32 0 -8
BITMAP
00000000
00020000
0001C000
00006000
00003008
0800301C
0FFFFFFE
0C040000
0C071000
0C060C00
0C060620
0C020270
0C0301F8
0C037E00
0CFF8000
0C418020
0C018078
0C0080C0
0C00C180
0C004700
0C006E00
08003C00
08007000
0800D804
18038C04
100E0704
1070038C
238000EC
2000007C
4000001E
40000000
00000000
ENDCHAR

STARTCHAR A5ED
ENCODING 42477
SWIDTH 960 0
DWIDTH 32 0
BBX 32 32 0 -8
BITMAP
00000000
00040000
00030000
0001C000
0000E010
0C006018
0FFFFFFE
0C000000
0C000000
0C007000
0C006000
0C006000
0C006000
0C006000
0C006020
0C006030
0C7FFFF8
0C006000
0C006000
0C006000
0C006180
0C0060C0
0C006060
18006030
18006030
18006000
10006008
1000600C
21FFFFFE
20000000
40000000
00000000
ENDCHAR

STARTCHAR A5EE
ENCODING 42478
SWIDTH 960 0
DWIDTH 32 0
BBX 32 32 0 -8
BITMAP
00000000
00040000
00038000
0000C000
00006008
0C00600C
0FFFFFFE
0C000000
0C0003E0
0C603C00
0C7FC000
0C600000
0C600000
0C600018
0C7FFFFC
0C600018
0C600018
0C600018
0C600018
0C7FFFF8
0C600018
0C600000
18C00000
18C00000
18800000
10800000
11000000
21000000
22000000
44000000
00000000
00000000
ENDCHAR

STARTCHAR A5EF
ENCODING 42479
SWIDTH 960 0
DWIDTH 32 0
BBX 32 32 0 -8
BITMAP
00000000
000C0000
00038000
0001C000
0000C018
1FFFFFFC
00080000
000C0000
001E0000
00380800
00600400
00C00300
0180FF80
07FF81C0
07F000C0
03000000
00700C00
00600E00
00600C08
00600C1C
3FFFFFFE
00600C00
00600C00
00600C00
00400C00
00C00C00
00800C00
01800C00
01000C00
02000C00
04000C00
00000000
ENDCHAR

STARTCHAR A5F0
ENCODING 42480
SWIDTH 960 0
DWIDTH 32 0
BBX 32 32 0 -8
BITMAP
00000000
00000000
00607000
7FF06000
00606000
00606010
00606018
006FFFFE
30606000
3FE06000
3060C000
3060C200
3000C380
3000C300
3000C600
6060C600
7FF18400
60618C00
00618C00
00610800
00611080
00631040
00622020
00C62020
00C44010
00C840F8
00C89F18
21D1F808
1F80C00C
07008008
00000000
00000000
ENDCHAR

STARTCHAR A5F1
ENCODING 42481
SWIDTH 960 0
DWIDTH 32 0
BBX 32 32 0 -8
BITMAP
00000000
00000000
00183C00
7FFC3000
00183000
00183000
00186018
00187FFC
30186018
3FF8C030
3018C020
30008E40
30008C00
30010C00
30020C00
30180C00
3FFC0C00
30180E00
00180E00
00180A00
00181900
00181900
00181180
00303080
003020C0
00306060
00304030
08608018
07E1000E
01C60004
00000000
00000000
ENDCHAR

STARTCHAR A5F2
ENCODING 42482
SWIDTH 960 0
DWIDTH 32 0
BBX 32 32 0 -8
BITMAP
00000000
00000000
03000020
00800070
006000E8
006101C0
00218300
7FFFC600
08060C00
080C1010
080C603C
080C0074
040C00E0
04080180
04180300
06180C00
02103008
0330001C
0130003A
01A00070
00C001C0
00C00300
00E00C00
01303000
021C0000
040F0000
0803C000
1000FE00
20003FFE
400000FC
00000000
00000000
ENDCHAR

STARTCHAR A5F3
ENCODING 42483
SWIDTH 960 0
DWIDTH 32 0
BBX 32 32 0 -8
BITMAP
00000000
00008000
03806000
03001800
03000C00
03000600
03000000
0B400000
0B200000
13200000
1330E000
1300C000
3300C000
6300C020
0300C010
0300C010
0304C008
0304C00C
0308C004
0308C006
0318C006
0318C000
0330C080
0330C080
0300C080
0300C080
0300C0C0
0300FFE0
03007FC0
03000000
03000000
00000000
ENDCHAR

STARTCHAR A5F4
ENCODING 42484
SWIDTH 960 0
DWIDTH 32 0
BBX 32 32 0 -8
BITMAP
00000000
03803800
03003100
03003080
03003060
03003060
03403068
0340300C
136FFFFE
13603000
13603000
33203000
33006E00
73006C00
63006C00
03006C00
03006C00
0300CC00
0300CC00
03008C00
03018C00
03018C00
03030C00
03020C08
03040C08
030C0C08
03180C08
03100C0C
03600FFE
030007FC
03000000
00000000
ENDCHAR

STARTCHAR A5F5
ENCODING 42485
SWIDTH 960 0
DWIDTH 32 0
BBX 32 32 0 -8
BITMAP
00000000
03800000
0300C000
03018010
03018018
0303FFFC
03030000
13420000
132C0020
1320FFF8
13300000
33300000
33100010
63100018
0307FFFC
03000070
030001E0
03000380
03000700
03000C00
03001800
03003000
03006000
0300C008
03018008
03030008
03060008
0306000C
0307FFFE
0303FFFC
03000000
00000000
ENDCHAR

STARTCHAR A5F6
ENCODING 42486
SWIDTH 960 0
DWIDTH 32 0
BBX 32 32 0 -8
BITMAP
00000000
07001000
06001C00
06001800
06003400
06003400
06006200
16C0C180
166180C0
16230060
16260038
360C001E
36100004
6621C1C0
66018180
06018180
06018180
06018180
06018180
06018180
06018180
06018180
06018180
06018180
06018180
06030180
06030180
06020180
06040180
06080180
06100000
00000000
ENDCHAR

STARTCHAR A5F7
ENCODING 42487
SWIDTH 960 0
DWIDTH 32 0
BBX 32 32 0 -8
BITMAP
00000000
00040000
00030000
0001C000
0000E008
0C00600C
0FFFFFFE
0C000000
0C000000
0C000000
0C018000
0C006000
0C003000
0C003000
0C071800
0C060000
0C060000
0C060040
0C460020
0C460010
0C460018
0C46000C
18C6008C
18860080
19860080
11060080
300600C0
2007FFE0
2003FFE0
40000000
40000000
00000000
ENDCHAR

STARTCHAR A5F8
ENCODING 42488
SWIDTH 960 0
DWIDTH 32 0
BBX 32 32 0 -8
BITMAP
00000000
00000000
00000600
00003F80
000FE000
03F98000
00018000
00018010
00018018
3FFFFFFC
00018000
00018000
00018000
00018000
00018000
00018000
00018000
00000000
000F0000
0001E000
00006000
04702000
04600040
04600220
0C600230
08600218
18600208
3860030C
307FFF8C
003FFF00
00000000
00000000
ENDCHAR

STARTCHAR A5F9
ENCODING 42489
SWIDTH 960 0
DWIDTH 32 0
BBX 32 32 0 -8
BITMAP
00000000
03800000
03006000
03001800
03000C00
03000608
0300060C
034FFFFE
13203000
13303000
13303000
33103000
23103000
63003030
63003FF8
03006030
03006030
03006030
03006030
0300C030
0300C030
03008030
03008030
03010060
03010060
03020060
030400C0
030410C0
03080F80
03100300
00000000
00000000
ENDCHAR

STARTCHAR A5FA
ENCODING 42490
SWIDTH 960 0
DWIDTH 32 0
BBX 32 32 0 -8
BITMAP
00000000
07008000
06006000
06003000
06001810
06000818
060FFFFC
06800000
16400000
16600000
16618180
1661FFC0
36018180
66018180
66018180
06018180
06018180
06018180
06018180
06018180
06018180
06030180
06030180
06030188
06030188
06020188
06060188
0604018C
060801FE
060800FC
06100000
00000000
ENDCHAR

STARTCHAR A5FB
ENCODING 42491
SWIDTH 960 0
DWIDTH 32 0
BBX 32 32 0 -8
BITMAP
00000000
04000000
07006000
06001800
06001C00
06000C08
0600001C
268FFFFE
16C10020
16410060
36408060
26008040
260080C0
660040C0
46004080
06006180
06002180
06003300
06001300
06001E00
06000C00
06000E00
06001F00
06003380
060061C0
0600C0E0
06018070
0602003C
060C001E
06100004
06200000
00000000
ENDCHAR

STARTCHAR A5FC
ENCODING 42492
SWIDTH 960 0
DWIDTH 32 0
BBX 32 32 0 -8
BITMAP
00000000
02000000
03800010
0307FFF8
03000038
03000060
030000C0
13406100
13201A00
13200C00
13300600
3300060C
231FFFFE
63000C0C
43000C18
03000C10
03000C20
03000C20
03000C00
03000C00
03000C00
03000C00
03000C00
03000C00
03000C00
03000C00
03000C00
03000C00
0300FC00
03001C00
02000000
00000000
ENDCHAR

STARTCHAR A5FD
ENCODING 42493
SWIDTH 960 0
DWIDTH 32 0
BBX 32 32 0 -8
BITMAP
00000000
00000000
03800020
03080030
0307FFF8
03000000
03000000
03000000
13400000
13600000
13200000
33000000
23000008
6300001C
631FFFFE
03003000
03003000
03002000
03006000
03004000
0300C000
03008080
03010040
03030020
03020030
030403D8
03083E18
031FF00C
031F000C
0308000C
03000000
00000000
ENDCHAR

STARTCHAR A5FE
ENCODING 42494
SWIDTH 960 0
DWIDTH 32 0
BBX 32 32 0 -8
BITMAP
00000000
03801C00
03001800
03001980
03001840
03001860
03001860
03401868
1340180C
134FFFFE
13601800
33301800
23301800
63301C00
43001C00
03001400
03001200
03003200
03002200
03002200
03006100
03004100
0300C180
03008080
030180C0
03010060
03020070
03040038
0308001C
0310000E
03200000
00000000
ENDCHAR

STARTCHAR A6A1
ENCODING 42657
SWIDTH 960 0
DWIDTH 32 0
BBX 32 32 0 -8
BITMAP
00000000
04001000
07001C00
06001800
06001800
06001800
06001800
06401808
164FFFFE
16201C00
16201C00
26001C00
26001C00
66001200
46001200
06003200
06003300
06002100
06006100
06006180
06004080
0600C0C0
06008040
06011060
06010870
06020630
06040718
0608031C
0608000E
0610000C
06000000
00000000
ENDCHAR

STARTCHAR A6A2
ENCODING 42658
SWIDTH 960 0
DWIDTH 32 0
BBX 32 32 0 -8
BITMAP
00000000
03803800
03003000
03003000
030030C0
0307FFE0
030030C0
134030C0
136060C0
136060C0
132060C0
3320C0C8
2300C0C8
630180CC
430100FE
03020E7C
03040C00
03080C10
03000C18
030FFFFC
03000C00
03000C00
03000C00
03000C00
03000C00
03000C00
03000C00
03000C00
03000C00
03000C00
03000C00
00000000
ENDCHAR

STARTCHAR A6A3
ENCODING 42659
SWIDTH 960 0
DWIDTH 32 0
BBX 32 32 0 -8
BITMAP
00000000
03800000
03000030
030001F8
03000F80
03007C00
031F8C00
13400C00
13600C00
13300C00
13300C00
33100C00
23000C00
63000C00
43000C08
03000C0C
030FFFFE
03000C00
03000C00
03000C00
03000C00
03000C00
03000C00
03000C00
03000C00
03000C08
03000C0C
030FFFFE
03000000
03000000
03000000
00000000
ENDCHAR

STARTCHAR A6A4
ENCODING 42660
SWIDTH 960 0
DWIDTH 32 0
BBX 32 32 0 -8
BITMAP
00000000
07000000
06004200
0600E200
0600C300
0600C100
06008180
06818080
164300C0
16620060
16640030
26080018
2610000E
66200060
4607FFF0
0600C060
0600C060
0600C060
0600C060
0600C060
0600C060
0600C060
06018060
06018060
06018060
06030060
060200E0
060410C0
06080FC0
06100380
00200000
00000000
ENDCHAR

STARTCHAR A6A5
ENCODING 42661
SWIDTH 960 0
DWIDTH 32 0
BBX 32 32 0 -8
BITMAP
00000000
00000000
00003900
00003080
000030C0
00003068
4000300C
3FFFFFFE
00003000
00003000
00001000
00001000
08021800
0FFF9830
0C031878
0C030860
0C030CC0
0C030CC0
0C030D80
0C030580
0C030700
0FFF0600
0C030702
0C020F04
00001184
000020C4
0000C0E6
0001007E
0006003E
0008000C
00000000
00000000
ENDCHAR

STARTCHAR A6A6
ENCODING 42662
SWIDTH 960 0
DWIDTH 32 0
BBX 32 32 0 -8
BITMAP
00000000
00000000
00003A00
00003180
000030C0
000030D0
00003018
7FFFFFFC
00003000
00003000
00C01800
00F01800
01801800
018C1820
03021870
02031860
040F8CC0
09F1CCC0
1F80CD80
0C008D80
08000700
0000C700
000F0704
00F80F04
3FC01984
1E0030C4
180060C4
1000C064
00010034
0006001E
00000000
00000000
ENDCHAR

STARTCHAR A6A7
ENCODING 42663
SWIDTH 960 0
DWIDTH 32 0
BBX 32 32 0 -8
BITMAP
00000000
00003800
00003300
00003180
000030C0
000030D0
0C003058
0FFFFFFC
0C003000
0C003000
0C003000
0C003000
0C003000
0C033020
0FFF9870
0C0318C0
0C0308C0
0C030D80
0C030D80
0C030700
0C030700
0C060600
18060F04
18060B04
18C61184
103C20C4
10184064
20008034
2003001E
4004000E
40000000
00000000
ENDCHAR

STARTCHAR A6A8
ENCODING 42664
SWIDTH 960 0
DWIDTH 32 0
BBX 32 32 0 -8
BITMAP
00000000
00000080
000007C0
04007FE0
07FFE000
06000000
06000060
07FFFFF0
06000060
06000060
06000060
06000060
07FFFFE0
06000060
06004000
06007000
06006000
06006020
06006070
047FFFF8
0400D000
0400D800
0C008800
08018400
08030600
08020300
10040180
101800E0
20300078
40C0001E
01000008
00000000
ENDCHAR

STARTCHAR A6A9
ENCODING 42665
SWIDTH 960 0
DWIDTH 32 0
BBX 32 32 0 -8
BITMAP
00000000
00000008
000C201C
3FFE3FFE
000C3000
000C3000
000C3000
100C3010
1FFC3FFC
180C3018
180C3018
180C3018
180C3018
180C3018
180C3018
180C3018
1FFC3FF8
180C3010
000C3000
00183000
00183000
00183000
00303000
00203000
00603000
00C03000
01803000
03003000
06003000
08003000
10000000
00000000
ENDCHAR

STARTCHAR A6AA
ENCODING 42666
SWIDTH 960 0
DWIDTH 32 0
BBX 32 32 0 -8
BITMAP
00000000
00000010
01840038
0183FFFC
01800C00
01800C00
01800C00
01B00C00
7FF80C00
01800C00
01800C00
01800C00
01800C00
01800C00
01880C20
01B00C78
01C1FFF8
0F800C00
7D800C00
31800C00
21800C00
21800C00
01800C00
01800C00
01800C00
01800C00
01800C08
01880C1C
3F87FFFE
07000000
04000000
00000000
ENDCHAR

STARTCHAR A6AB
ENCODING 42667
SWIDTH 960 0
DWIDTH 32 0
BBX 32 32 0 -8
BITMAP
00000000
02000000
03810018
0301FFFC
03018180
03018180
03018180
03418180
7FF18180
03018180
03018180
03018180
0301818C
030FFFFE
03000180
03300380
03C00380
07000780
7F000D80
33001980
23003180
03002180
03004180
03018180
03030180
03040180
03080180
03100180
7F001D80
0E000380
00000100
00000000
ENDCHAR

STARTCHAR A6AC
ENCODING 42668
SWIDTH 960 0
DWIDTH 32 0
BBX 32 32 0 -8
BITMAP
00000000
07000E00
06000C80
06000C40
06000C20
06000C30
06000C30
06600C00
7FF00C18
0607FFFC
06000C00
06000C00
06000C00
06000A00
06101A00
06601B00
07801900
0F001100
7E003100
36003180
26002080
06006080
060040C0
06008060
06018060
06010030
06020038
4604001C
3E08000E
0C100008
00200000
00000000
ENDCHAR

STARTCHAR A6AD
ENCODING 42669
SWIDTH 960 0
DWIDTH 32 0
BBX 32 32 0 -8
BITMAP
00000000
03800000
03000018
030001FC
03000F80
0303F800
03001800
03201800
7FF01800
03001810
03001818
0300187C
0307FFC0
03001800
03101800
03201800
03C01808
0300180C
1F0018FE
7B1FFF80
23001800
23001800
03001800
03001800
03001808
03001808
03001808
2300180C
1F001FFE
06000FFC
00000000
00000000
ENDCHAR

STARTCHAR A6AE
ENCODING 42670
SWIDTH 960 0
DWIDTH 32 0
BBX 32 32 0 -8
BITMAP
00000000
0380E000
0300C01C
0300C018
0300C018
0300C018
0310C018
0318C018
7FFCC018
0300C018
0300C018
0300FFF8
0300C018
0300C000
0308C000
0330C018
03C0FFFC
07018018
3F018018
3B018018
13018018
03018018
03030018
03030018
03060018
03060018
03040018
23040018
1F080018
06300018
00000000
00000000
ENDCHAR

STARTCHAR A6AF
ENCODING 42671
SWIDTH 960 0
DWIDTH 32 0
BBX 32 32 0 -8
BITMAP
00000000
03800000
0300E000
03001800
03000E00
03000600
03000200
03200000
7FF00000
0300E000
0300C000
0300C000
0300C020
0300C020
0310C010
0360C008
0384C008
0704C00C
3F04C00C
7308C006
2308C006
0318C044
0330C040
0330C040
0300C040
0300C040
0300C060
0300FFF0
23007FE0
1F000000
06000000
00000000
ENDCHAR

STARTCHAR A6B0
ENCODING 42672
SWIDTH 960 0
DWIDTH 32 0
BBX 32 32 0 -8
BITMAP
00000000
07000000
06003000
06001800
06000C00
06000600
06000008
0620000C
7FFBFFFE
06003000
06003000
06003000
06003000
06003018
06103FFC
06606018
07806018
06006030
7E004030
36004030
2600C030
06008030
06018060
06010060
06030060
06020060
06040060
460410C0
3E080F80
0C100300
00200000
00000000
ENDCHAR

STARTCHAR A6B1
ENCODING 42673
SWIDTH 960 0
DWIDTH 32 0
BBX 32 32 0 -8
BITMAP
00000000
07000000
06000000
06030018
0603FFFC
06030018
06430018
06630018
7FF30018
06030018
06030018
06030018
06030018
0603FFF8
06030318
06630300
07830300
0E030300
7E030180
66030180
26060180
06060080
060600C0
060400C0
060C0060
060C0070
06080038
4618001C
3E10000E
0C200004
00400000
00000000
ENDCHAR

STARTCHAR A6B2
ENCODING 42674
SWIDTH 960 0
DWIDTH 32 0
BBX 32 32 0 -8
BITMAP
00000000
00040000
03860020
0307FFF8
03060030
03060030
03060030
03260030
7FF60030
03060030
03060420
030603E0
030600C0
03060000
03060020
0367FFF0
03864038
0F062030
7F062020
73061060
23061060
230608C0
03060CC0
03060780
03060300
03060380
030604E0
03061878
7F06303E
0E06C00C
00000000
00000000
ENDCHAR

STARTCHAR A6B3
ENCODING 42675
SWIDTH 960 0
DWIDTH 32 0
BBX 32 32 0 -8
BITMAP
00000000
04000000
070381C0
06030180
06030180
06030180
06030180
4683258C
3FDFF3FE
0603398C
0603318C
0603318C
0602318C
06023188
06123108
06663108
07863108
0E063318
7E043218
36043218
260C3418
060C3410
06083630
060839F4
06183044
06103004
0610300C
0620300C
36203FFE
0E401FFC
08000000
00000000
ENDCHAR

STARTCHAR A6B4
ENCODING 42676
SWIDTH 960 0
DWIDTH 32 0
BBX 32 32 0 -8
BITMAP
00000000
03800000
03007000
03006000
03006000
03006000
03006008
0320600C
7FF7FFFE
03006000
03006000
03006000
03006018
03007FFC
0310D018
0360D018
0380D030
0F018830
7F018860
33018C60
230184C0
03030680
03030380
03060300
03040780
03080CC0
03081870
43102038
3F20C01E
0E030004
04040000
00000000
ENDCHAR

STARTCHAR A6B5
ENCODING 42677
SWIDTH 960 0
DWIDTH 32 0
BBX 32 32 0 -8
BITMAP
00000000
00000000
03800030
030003F8
03003F00
0303C600
03000600
03200600
03300600
3FF80610
03000618
0303FFFC
03000600
03000600
03000600
03100600
03E00600
0F000608
7F00060C
730FFFFE
23000600
03000600
03000600
03000600
03000600
03000600
03000600
03000600
43008600
3F007E00
0E001C00
00000000
ENDCHAR

STARTCHAR A6B6
ENCODING 42678
SWIDTH 960 0
DWIDTH 32 0
BBX 32 32 0 -8
BITMAP
00000000
070008E0
06003CC0
060070C0
0601E0C0
060E60C0
064060C0
066060C0
7FF060C0
060060C0
060060C0
060060C8
060060CC
060FFFFE
060060C0
064060C0
078060C0
0E0060C0
7E0060C0
660060C0
2600C0C0
0600C0C0
060080C0
060180C0
060180C0
060100C0
060100C0
060200C0
460200C0
3E0400C0
0C0800C0
00000000
ENDCHAR

STARTCHAR A6B7
ENCODING 42679
SWIDTH 960 0
DWIDTH 32 0
BBX 32 32 0 -8
BITMAP
00000000
03800000
03007000
03006000
03006000
0300C000
0320C00C
0330FFFE
3FF9800C
0301000C
0302000C
0302200C
0304700C
0308600C
0300600C
0320C00C
03C0C40C
0700820C
7F01030C
3302038C
23023D98
0307E0D8
030300D8
03020018
03000018
03000018
03000018
23000438
1F0003F0
0E0000E0
04000000
00000000
ENDCHAR

STARTCHAR A6B8
ENCODING 42680
SWIDTH 960 0
DWIDTH 32 0
BBX 32 32 0 -8
BITMAP
00000000
07000000
0600C000
0600E000
0601800C
06019FFE
0601000C
0643000C
0662000C
7FE6000C
0604000C
0608000C
0610200C
0638700C
061C600C
0647C00C
0783C00C
0E01800C
7E01000C
7603000C
26024018
06042018
06041018
06081818
06103818
0627CC18
063E0C18
06180030
261007F0
1E0000E0
0C000000
00000000
ENDCHAR

STARTCHAR A6B9
ENCODING 42681
SWIDTH 960 0
DWIDTH 32 0
BBX 32 32 0 -8
BITMAP
00000000
03800000
03000C00
03001E00
03001C00
03003C00
03203200
03306100
7FF84180
0300C0C0
03008060
03010030
03060018
0300000E
03107004
03600C00
03800700
0F000380
7B000000
33000000
23000000
03000000
03000000
03000000
0300C000
03003000
03000C00
43000600
3F000300
0E000380
04000000
00000000
ENDCHAR

STARTCHAR A6BA
ENCODING 42682
SWIDTH 960 0
DWIDTH 32 0
BBX 32 32 0 -8
BITMAP
00000000
00080000
001C1C00
3FFE1800
01801800
01801800
01801008
0180301C
01803FFE
01802030
01806030
01806020
01849060
018E9060
7FFF1060
01801860
018008C0
018008C0
01800CC0
01800580
01800780
01800700
01800300
01800780
01800D80
018018C0
01803060
01806078
1F80803C
0783000E
02040008
00000000
ENDCHAR

STARTCHAR A6BB
ENCODING 42683
SWIDTH 960 0
DWIDTH 32 0
BBX 32 32 0 -8
BITMAP
00000000
00180000
00070000
00018010
00008038
3FFFFFFC
01000380
00800700
00600E00
00181C00
000E7000
0003E000
0007F000
003C3F80
03C007FE
7C01C07C
00018080
000181C0
03FFFFE0
00018000
00018000
00018020
00018070
3FFFFFF8
00018000
00018000
00018000
00018000
00018000
00018000
00018000
00000000
ENDCHAR

STARTCHAR A6BC
ENCODING 42684
SWIDTH 960 0
DWIDTH 32 0
BBX 32 32 0 -8
BITMAP
00000000
00000000
0000E000
0000C000
3060C000
3FF18020
30618030
3061FFFC
30630000
30620000
30640000
30640000
30680030
3063FFF8
3FE00070
306000E0
306001C0
30600380
30600300
30600600
30600C00
30601800
30603008
3FE06008
3060C008
30618008
00030008
0003000C
0003FFFE
0001FFFC
00000000
00000000
ENDCHAR

STARTCHAR A6BD
ENCODING 42685
SWIDTH 960 0
DWIDTH 32 0
BBX 32 32 0 -8
BITMAP
00000000
000000E0
000000C0
400000C0
602000C0
7FF000C0
603000D0
603000D8
6037FFFC
603000C0
603000C0
603000C0
603000C0
603000C0
7FF100C0
603080C0
6030C0C0
603060C0
603060C0
603030C0
603000C0
603000C0
603000C0
7FF000C0
603000C0
603000C0
600000C0
000000C0
00000FC0
000003C0
00000300
00000000
ENDCHAR

STARTCHAR A6BE
ENCODING 42686
SWIDTH 960 0
DWIDTH 32 0
BBX 32 32 0 -8
BITMAP
00000000
00000000
030000C0
03FFFFE0
030000C0
030000C0
030000C0
030000C0
03FFFFC0
030000C0
030000C0
030000C0
030000C0
03FFFFC0
030000C0
00000010
00000018
3FFFFFFC
00301800
00301800
00301800
00301800
00301800
00601808
00601808
00C01808
00801808
0100180C
02001FFE
04000FFC
08000000
00000000
ENDCHAR

STARTCHAR A6BF
ENCODING 42687
SWIDTH 960 0
DWIDTH 32 0
BBX 32 32 0 -8
BITMAP
00000000
00000000
00000000
06000060
07FFFFF0
06000060
06000060
06000060
06000060
07FFFFE0
06000060
06000060
06000060
06000060
07FFFFE0
06000060
0001C000
00018000
00018000
00018080
000180C0
0001FFF0
00018000
00018000
00018000
00018000
00018000
00018008
0001800C
7FFFFFFE
00000000
00000000
ENDCHAR

STARTCHAR A6C0
ENCODING 42688
SWIDTH 960 0
DWIDTH 32 0
BBX 32 32 0 -8
BITMAP
00000000
04000000
06000060
07FFFFF0
06000060
06000060
06000060
07FFFFE0
06000060
06000060
06000060
07FFFFE0
00000040
00000000
00000180
0FFFFFC0
00000700
00001800
0001E000
0001C008
0001801C
3FFFFFFE
00018000
00018000
00018000
00018000
00018000
00018000
001F8000
00038000
00020000
00000000
ENDCHAR

STARTCHAR A6C1
ENCODING 42689
SWIDTH 960 0
DWIDTH 32 0
BBX 32 32 0 -8
BITMAP
00000000
00040000
00071800
00060600
00060600
08060020
0FFFFFF0
0C060060
0C060060
0C060060
0C060060
0FFFFFE0
0C020060
0C030060
0C030060
0C030060
0FFFFFE0
0C018060
00018000
0000C380
0000C740
00006E00
00007800
00007000
0001DC04
00070E08
000E0708
007801C8
01C000F8
3E00003C
00000008
00000000
ENDCHAR

STARTCHAR A6C2
ENCODING 42690
SWIDTH 960 0
DWIDTH 32 0
BBX 32 32 0 -8
BITMAP
00000000
01C00000
01800018
0181FFFC
01800018
01800018
01900018
01980018
7FFC0018
0180C018
0180FFF8
0380C018
03C0C000
03A18000
07918000
05998000
05998018
0989FFFC
09830018
11830018
11800018
21800018
41800018
01800018
01800018
01800018
01800018
01800418
018003F0
018000E0
01800000
00000000
ENDCHAR

STARTCHAR A6C3
ENCODING 42691
SWIDTH 960 0
DWIDTH 32 0
BBX 32 32 0 -8
BITMAP
00000000
01C00600
01800700
01800600
01800600
01800600
01900600
01B88640
3FFCE640
03808620
03808620
03818610
03C18610
03A18618
07918608
05990608
0D89060C
0983060C
0982060C
11820604
11840606
21840606
41840604
01880600
01800600
01800600
01800600
01808600
01807E00
01800C00
00000000
00000000
ENDCHAR

STARTCHAR A6C4
ENCODING 42692
SWIDTH 960 0
DWIDTH 32 0
BBX 32 32 0 -8
BITMAP
00000000
01C00030
018000F8
01800780
01803E00
0191C600
01980600
3FFC0600
01800600
01800600
03800600
03C00600
03A00608
07B0060C
059BFFFE
05980600
0D880600
09800600
11800600
11800600
21800608
21800608
41800608
01800608
01800608
01800608
0180060C
018007FE
018003FC
01800000
01800000
00000000
ENDCHAR

STARTCHAR A6C5
ENCODING 42693
SWIDTH 960 0
DWIDTH 32 0
BBX 32 32 0 -8
BITMAP
00000000
01C00000
0180000C
0181FFFE
01800C0C
01800C0C
01900C0C
01980C0C
3FFC0C0C
01800C0C
01810C0C
01818C0C
03C0CC0C
03A0CC0C
0390D80C
0598580C
0588180C
0980180C
0980180C
1180300C
1180300C
2180300C
41806018
01806018
01804018
0180C018
01808418
018103F0
018100E0
01820040
01840000
00000000
ENDCHAR

STARTCHAR A6C6
ENCODING 42694
SWIDTH 960 0
DWIDTH 32 0
BBX 32 32 0 -8
BITMAP
00000000
01C00000
01800060
0187FFF0
01806060
01806060
01906060
01986060
3FFC6060
01806060
01806060
03806060
03C06060
03A06460
07906660
059BFF60
05986060
09886060
09806060
11806060
11806060
21806060
41806060
01806060
01806064
01806064
01806064
01806064
0180607E
0180603C
01800000
00000000
ENDCHAR

STARTCHAR A6C7
ENCODING 42695
SWIDTH 960 0
DWIDTH 32 0
BBX 32 32 0 -8
BITMAP
00000000
00000000
06000060
07FFFFF0
06000060
06000060
06000060
06000060
07FFFFE0
06000060
06003860
06003000
06003000
06003010
06003018
067FFFFC
06007000
0600F800
0601B400
06033600
06063200
06043300
0C0C3180
0C1830E0
08203070
0840303E
1980300C
12003000
20003000
40003000
00003000
00000000
ENDCHAR

STARTCHAR A6C8
ENCODING 42696
SWIDTH 960 0
DWIDTH 32 0
BBX 32 32 0 -8
BITMAP
00000000
01800020
01C00070
018003F8
01800F00
01807C00
01978C00
41980C00
3FFC0C00
01800C00
03800C00
03800C00
03800C00
07E00C18
07B00C1C
059FFFFE
0D980C00
09800C00
19800C00
11800C00
21800C00
21800C00
41800C00
01800C00
01800C00
01800C00
01800C00
01800C00
01800C00
01800C00
01000C00
00000000
ENDCHAR

STARTCHAR A6C9
ENCODING 42697
SWIDTH 960 0
DWIDTH 32 0
BBX 32 32 0 -8
BITMAP
00000000
01C0001C
0181C018
01818718
01818618
01818618
01918618
01998618
3FFD8618
01818618
01818618
03818618
03C18618
03A18618
07B18618
05998618
05998618
0D998618
09818618
11818618
11818618
21830618
41830618
01820618
01860618
01840618
01840618
01880618
01880018
01900018
00000018
00000000
ENDCHAR

STARTCHAR A6CA
ENCODING 42698
SWIDTH 960 0
DWIDTH 32 0
BBX 32 32 0 -8
BITMAP
00000000
00100000
003C0000
006000C0
00FFFFE0
018001E0
03400380
0C200700
30181C00
000E3800
0003E000
0007F000
001C3FC0
01E007FC
3E018078
0001E000
00018010
00018030
3FFFFFFC
00018000
00018000
00218000
00399800
00618700
00C181E0
03818078
0601801C
0C01800C
30018004
00018000
00018000
00000000
ENDCHAR

STARTCHAR A6CB
ENCODING 42699
SWIDTH 960 0
DWIDTH 32 0
BBX 32 32 0 -8
BITMAP
00000000
200000E0
180000C0
0C0100C0
060080C0
060040C0
000060C0
004030C0
004020C0
408000C0
308800C0
190400C0
0D0200C0
0A0300C0
020180C0
020180C0
040080C0
040000C0
0C0000D0
080000D8
187FFFFC
780000C0
180000C0
180000C0
180000C0
180000C0
180000C0
180000C0
180000C0
1C0000C0
080000C0
00000000
ENDCHAR

STARTCHAR A6CC
ENCODING 42700
SWIDTH 960 0
DWIDTH 32 0
BBX 32 32 0 -8
BITMAP
00000000
10000000
0C0000C0
0607FFE0
030001C0
03000180
00000300
0020C600
00403C00
30401800
18400C00
0C800600
0C80060C
051FFFFE
01000C0C
02000C18
02000C20
06000C40
04000C00
0C000C00
0C000C00
78000C00
1C000C00
0C000C00
0C000C00
0C000C00
0C000C00
0C010C00
0C00FC00
0E003800
04001000
00000000
ENDCHAR

STARTCHAR A6CD
ENCODING 42701
SWIDTH 960 0
DWIDTH 32 0
BBX 32 32 0 -8
BITMAP
00000000
00000000
18000000
040000C0
070FFFE0
0300C0C0
0200C0C0
0000C0C0
0040C0C0
6040C0C0
1080C0C0
1C80C0C0
0C80C0C0
0500C0C0
0100C0C8
0200C0CC
023FFFFE
060180C0
040180C0
0C0180C0
0C0180C0
180180C0
7C0180C0
1C0180C0
0C0180C0
0C0180C0
0C0180C8
0C0180CC
0C3FFFFE
0E000000
04000000
00000000
ENDCHAR

STARTCHAR A6CE
ENCODING 42702
SWIDTH 960 0
DWIDTH 32 0
BBX 32 32 0 -8
BITMAP
00000000
10000010
0C000018
071FFFFC
03001800
01001800
00001800
00001800
004C1818
304FFFFC
184C1818
0C8C1818
068C1818
018C1818
010C1818
030C1818
020C1818
020C1818
060C1818
040C1818
0C0C1818
380C1918
0C0C18F8
0C0C1870
0C001800
0C001800
0C001800
0C001800
0C001800
0E001800
04001800
00000000
ENDCHAR

STARTCHAR A6CF
ENCODING 42703
SWIDTH 960 0
DWIDTH 32 0
BBX 32 32 0 -8
BITMAP
00000000
1001C800
0C018600
06018300
03018180
030180C0
000180C0
00018008
0041800C
305FFFFE
1840C000
0C80C000
0480C0E0
0500C0C0
01006180
03006180
02006300
06003600
04003600
0C003C00
0C001800
7C003C00
18006C00
0C00CE04
0C018704
0C030384
0C0601C4
0C0800EE
0C10007E
0E60003C
04000008
00000000
ENDCHAR

STARTCHAR A6D0
ENCODING 42704
SWIDTH 960 0
DWIDTH 32 0
BBX 32 32 0 -8
BITMAP
00000000
00000000
08010000
0601C000
03018000
03030000
01830018
0003FFFC
00260018
20440018
10480018
0C880018
0C900818
06A00C18
010FFF18
01000018
03000018
02000018
06000418
0C000618
7C3FFF98
0C000018
0C000018
0C000018
0C000018
0C000018
0C000018
0C000438
0C0003F0
0E0000E0
04000000
00000000
ENDCHAR

STARTCHAR A6D1
ENCODING 42705
SWIDTH 960 0
DWIDTH 32 0
BBX 32 32 0 -8
BITMAP
00000000
00001C00
18001800
06001800
03071800
03061800
00061800
00061820
004C1830
204FFFF8
188C1800
0C881800
0C981800
05101800
01201800
02201800
02001800
06001808
0400180C
0C3FFFFE
08001800
78001800
18001800
18001800
0C001800
0C001800
0C001800
0C001800
0C001800
0E001800
04001800
00000000
ENDCHAR

STARTCHAR A6D2
ENCODING 42706
SWIDTH 960 0
DWIDTH 32 0
BBX 32 32 0 -8
BITMAP
00000000
00010000
1801C000
06018000
03030000
03030000
00030018
0007FFFC
00460018
204C0018
18888018
0C90E018
0CA0C018
05418018
0101A018
02011018
02030818
06020418
04040618
0C081F18
0C1FE318
780E0118
18080118
08000018
0C000018
0C000018
0C000018
0C000438
0C0003F0
0E0000E0
04000040
00000000
ENDCHAR

STARTCHAR A6D3
ENCODING 42707
SWIDTH 960 0
DWIDTH 32 0
BBX 32 32 0 -8
BITMAP
00000000
10003000
08003800
06007000
03006800
0300C800
0000C400
00018200
00410300
20430180
188600C0
0C840470
0C88063E
0513FF1C
01200000
02400000
02000000
06000000
040000C0
0C0FFFE0
0C0000C0
780000C0
18000080
08000180
0C000180
0C000300
0C000300
0C000300
0C000600
0E000600
04000C00
00000000
ENDCHAR

STARTCHAR A6D4
ENCODING 42708
SWIDTH 960 0
DWIDTH 32 0
BBX 32 32 0 -8
BITMAP
00000000
00080000
00060000
00030000
00038000
00018000
08000030
0FFFFFFC
08000030
18000060
3801C040
30018080
20018080
000181C0
00118320
1FF98E00
00319800
0021F000
00619000
00618800
00C18400
00818600
01818300
030181C0
060180E0
0C018078
1801803C
20018018
407F8000
00078000
00070000
00000000
ENDCHAR

STARTCHAR A6D5
ENCODING 42709
SWIDTH 960 0
DWIDTH 32 0
BBX 32 32 0 -8
BITMAP
00000000
00010000
0001C000
0E018070
0C018060
0C018060
0C018060
0FFFFFE0
0C000060
0C000060
08010000
0001C000
00018000
000180C0
003181E0
3FF98700
00319C00
0061E000
00619000
00C19800
00818C00
01018600
03018300
060181C0
0C0180F0
1001807E
20018018
00018000
001F8000
00078000
00020000
00000000
ENDCHAR

STARTCHAR A6D6
ENCODING 42710
SWIDTH 960 0
DWIDTH 32 0
BBX 32 32 0 -8
BITMAP
00000000
08000000
040C0030
060FFFF8
030C0030
010C0030
000C0030
000C0030
204C0030
104C0030
088C0030
0C8C0030
048FFFF0
010C3030
010C3000
020C1800
020C1800
040C1800
040C1800
0C0C0800
08180C00
78180600
0C180600
0C180300
0C100180
0C3001C0
0C2000E0
0C200078
0C40001E
0E400008
04800000
00000000
ENDCHAR

STARTCHAR A6D7
ENCODING 42711
SWIDTH 960 0
DWIDTH 32 0
BBX 32 32 0 -8
BITMAP
00000000
10000080
0C0401C0
0602019C
071D0318
03198318
00188318
00584218
40586618
20982618
18981418
0D181C18
0D180C18
01180C18
02181E18
02181618
06183318
04182318
0C186398
08184198
18188198
781881D8
181900D8
181A0098
181C0018
18180018
18180018
181FFFF8
1C180018
08180018
00000000
00000000
ENDCHAR

STARTCHAR A6D8
ENCODING 42712
SWIDTH 960 0
DWIDTH 32 0
BBX 32 32 0 -8
BITMAP
00000000
10008000
0C01E000
06018000
03018000
01030000
00030060
0047FFF8
00460060
304C0060
188A00C0
0C9A00C0
05120180
01210180
01418300
02008300
0200C600
06004600
04006C00
0C003C00
0C001800
78003C00
0C006E00
0C00C700
0C018380
0C0301C0
0C0400E0
0C080078
0C30003E
0E400008
04800000
00000000
ENDCHAR

STARTCHAR A6D9
ENCODING 42713
SWIDTH 960 0
DWIDTH 32 0
BBX 32 32 0 -8
BITMAP
00000000
10000000
0C060180
0607FFC0
03060180
03060180
00060180
00060180
00460180
30460180
18840180
0C8C01FC
0D0800FE
05100000
01200060
023FFFF0
020800E0
060800C0
04040180
0C020380
08010700
78008600
18004C00
18007800
0C003800
0C00FC00
0C018700
0C0601C0
0C18007E
0E600018
04000000
00000000
ENDCHAR

STARTCHAR A6DA
ENCODING 42714
SWIDTH 960 0
DWIDTH 32 0
BBX 32 32 0 -8
BITMAP
00000000
10010000
0C01C000
06018000
02018000
03030000
00030018
0003FFFC
40460018
20443830
188C3020
0C883040
0C903000
01202800
01406800
02006800
02006C00
06004400
0400C400
0C00C600
18018200
78018300
18030100
0C020180
0C0600C0
0C0C00E0
0C080070
0C100038
0C20001E
0E400008
04800000
00000000
ENDCHAR

STARTCHAR A6DB
ENCODING 42715
SWIDTH 960 0
DWIDTH 32 0
BBX 32 32 0 -8
BITMAP
00000000
00000020
0C000078
02061FC0
0307F000
01860000
00060000
00060000
00260018
1027FFFC
18460018
0C460018
06460018
04860018
00860018
01060018
01060018
0307FFF8
02060018
02060000
06060000
3C060000
0C0C0000
0C0C0000
06180000
06180000
06100000
06100000
06200000
07200000
02400000
00000000
ENDCHAR

STARTCHAR A6DC
ENCODING 42716
SWIDTH 960 0
DWIDTH 32 0
BBX 32 32 0 -8
BITMAP
00000000
10000040
0C0000F0
06181FC0
061FF0C0
031830C0
001830C0
001830C0
005830C0
205830C0
189830C0
0C9830C0
0D1830C0
051830C0
011830C0
02183060
02183060
04183060
04183060
0C183060
08183060
78303020
18303030
18303030
0C303030
0C203018
0C203018
0C40300C
0C40300E
0E803000
04803000
00000000
ENDCHAR

STARTCHAR A6DD
ENCODING 42717
SWIDTH 960 0
DWIDTH 32 0
BBX 32 32 0 -8
BITMAP
00000000
00000000
18000400
0601C400
06018200
03010200
00030100
00230100
00460180
204600C0
108400C0
18880060
0C980070
05102038
0120701E
02406008
02006000
06006000
04004400
0400C200
0C008100
18018180
78010080
18020040
0C0200E0
0C040730
0C087830
0C1FE030
0C0E0018
0E080018
04000000
00000000
ENDCHAR

STARTCHAR A6DE
ENCODING 42718
SWIDTH 960 0
DWIDTH 32 0
BBX 32 32 0 -8
BITMAP
00000000
00000000
01C00060
018003F0
01800F00
01807C00
01938C00
01980C00
01B00C00
09A00C00
09C00C00
09800C00
19800C00
11800C10
31800C18
218FFFFC
01800C00
01800C00
01800C00
01800C00
03400C00
02200C00
02300C00
06180C08
04180C08
04000C08
08000C08
08000C0C
10000FFE
200007FC
00000000
00000000
ENDCHAR

ENDFONT
